<?xml version="1.0" encoding="UTF-8"?>
<svg width="56px" height="47px" viewBox="0 0 56 47" version="1.1" xmlns="http://www.w3.org/2000/svg" xmlns:xlink="http://www.w3.org/1999/xlink">
    <title>ab-principle-icon-05</title>
    <g id="Design" stroke="none" stroke-width="1" fill="none" fill-rule="evenodd">
        <g id="GreenLine-New:-Главная:-Десктоп" transform="translate(-48.000000, -3554.000000)" fill="#F6CC3B" fill-rule="nonzero">
            <g id="ab-principle-icon-05" transform="translate(48.000000, 3554.000000)">
                <path d="M54.4237115,24.9144474 C55.9174015,22.4341149 55.1607678,19.2177104 52.7496675,17.653585 C53.7508565,17.1758492 54.5917065,16.4168092 55.1771735,15.4446037 C55.9659626,14.134877 56.1975026,12.5963446 55.8290292,11.1126074 C55.4605557,9.62876086 54.5364738,8.37721991 53.2267471,7.58854022 C51.9171297,6.79975115 50.3784879,6.56832052 48.8947508,6.93668458 C47.4109042,7.30515801 46.1593633,8.22923994 45.3706836,9.53896666 C44.7852166,10.5110628 44.5075217,11.6093739 44.5535672,12.7176379 C43.3618526,12.0525482 41.9847529,11.8663975 40.6535893,12.1968096 C39.5920271,12.4603955 38.6581017,13.0284724 37.9467478,13.8284174 C37.7471444,11.115123 35.5204449,8.95776517 32.7783857,8.86840845 C33.3746805,7.96521653 33.7230295,6.88462363 33.7230295,5.72375186 C33.7230295,2.56761123 31.1553089,0 27.9992777,0 C24.8431371,0 22.2755258,2.5677206 22.2755258,5.72375186 C22.2755258,6.88462363 22.6238749,7.96521653 23.2201696,8.86840845 C20.4781105,8.95776517 18.251411,11.115123 18.0518075,13.8284174 C17.3403443,13.0284724 16.4064189,12.4603955 15.3448567,12.1968096 C14.0139119,11.8665069 12.6365934,12.0525482 11.4448788,12.7176379 C11.4909243,11.6093739 11.2132294,10.5110628 10.6277624,9.53896666 C9.83908274,8.22923994 8.58743242,7.30504864 7.10358587,6.93668458 C5.61973932,6.56853926 4.08131627,6.79986052 2.77158955,7.58854022 C0.0679198575,9.21675748 -0.807054152,12.740934 0.821163108,15.4447131 C1.40663009,16.4169186 2.24737074,17.1759586 3.24855976,17.6536944 C2.10332815,18.3958911 1.29463342,19.5262481 0.964221359,20.857193 C0.619153484,22.2470892 0.836037667,23.6879526 1.57473447,24.9146662 L4.36251104,29.5439349 C1.52223603,33.9924122 0,39.1635086 0,44.5688793 L0,46.2094555 L55.9983366,46.2094555 L55.9983366,44.5688793 C55.9983366,39.1635086 54.4761006,33.9924122 51.635935,29.5437162 L54.4237115,24.9144474 Z M50.0849342,10.0777319 C51.4327223,9.9708757 52.6118591,10.9768771 52.7186059,12.3246652 C52.8253528,13.6724533 51.8193514,14.8515901 50.4716727,14.9583369 C49.1238846,15.0651931 47.9447477,14.0590824 47.8380009,12.7114037 C47.7311447,11.363725 48.7371461,10.1845881 50.0849342,10.0777319 Z M40.1636039,16.3267963 C40.4501579,15.8508104 40.9049256,15.5150391 41.4441283,15.3811681 C41.9832217,15.2472971 42.5422207,15.331404 43.0183159,15.617958 L50.9041286,20.3668794 C51.886615,20.9585806 52.2045587,22.2392144 51.6128575,23.2217009 L49.5637778,26.6243654 C49.0503868,26.0165866 48.3665946,25.3394661 47.7975334,24.7704049 C45.1580649,22.1309364 42.0843906,20.0836066 38.737615,18.6945853 L40.1636039,16.3267963 Z M27.9991683,3.28104317 C29.3459721,3.28104317 30.4417676,4.37683874 30.4417676,5.72375186 C30.4417676,7.0705556 29.3459721,8.16635118 27.9991683,8.16635118 C26.6522552,8.16635118 25.556569,7.0705556 25.556569,5.72375186 C25.556569,4.37672937 26.6522552,3.28104317 27.9991683,3.28104317 Z M21.3165543,14.22489 C21.3165543,13.0780178 22.2496047,12.1449674 23.3964769,12.1449674 L32.6018597,12.1449674 C33.7487319,12.1449674 34.6817823,13.0780178 34.6817823,14.22489 L34.6817823,17.3691091 C32.5202684,16.8422653 30.2807724,16.5697109 27.9991683,16.5697109 C25.7175642,16.5697109 23.4780682,16.8422653 21.3165543,17.3691091 L21.3165543,14.22489 Z M27.9991683,19.8508635 C29.3805335,19.8508635 30.7441805,19.9649382 32.0804846,20.1857598 L32.0804846,22.0820472 C32.0804846,23.2781367 31.1074041,24.2512171 29.9113146,24.2512171 L28.4503268,24.2714509 C26.4325274,24.2995595 24.5408335,25.1063949 23.1238131,26.5432116 C21.7067927,27.9800283 20.9264253,29.8827686 20.9264253,31.9008962 C20.9264253,34.2988718 18.975452,36.2498451 16.577367,36.2498451 L7.65460075,36.2498451 C6.5211813,36.2498451 5.59403696,35.3606528 5.52775768,34.2435297 C6.73664365,31.6163109 8.41473443,29.196789 10.5207969,27.0906172 C15.1895488,22.4219746 21.3967238,19.8508635 27.9991683,19.8508635 L27.9991683,19.8508635 Z M3.27962133,12.3247745 C3.38636816,10.9769864 4.56561438,9.97098507 5.9132931,10.0778413 C7.26108119,10.1845881 8.26708256,11.363725 8.16022636,12.711513 C8.05347953,14.0593011 6.87434268,15.0653025 5.52655459,14.9584463 C4.17887587,14.8515901 3.1728745,13.6724533 3.27962133,12.3247745 Z M4.1485799,21.6475132 C4.28245092,21.1083105 4.6182222,20.6535428 5.09420806,20.3669888 L12.9800207,15.6180673 C13.314917,15.4162765 13.6843748,15.3203574 14.049567,15.3203574 C14.7554523,15.3203574 15.4448225,15.6793155 15.8347328,16.3267963 L17.2606123,18.6945853 C13.9139461,20.0836066 10.8402718,22.1309364 8.20080328,24.7704049 C7.63174206,25.3394661 6.94794987,26.0165866 6.43455887,26.6243654 L4.38547911,23.2217009 C4.09881575,22.7458244 4.01470887,22.1868253 4.1485799,21.6475132 Z M26.358592,40.3576294 L26.358592,42.9281936 L3.33441658,42.9281936 C3.43930409,41.3166009 3.6998276,39.7353041 4.10614366,38.2005997 C5.05724041,39.0281063 6.29795355,39.5307789 7.65471013,39.5307789 L16.5774763,39.5307789 C20.7847889,39.5307789 24.2076872,36.10799 24.2076872,31.9006774 C24.2076872,29.5358414 26.1314269,27.5849775 28.4961536,27.5520566 L29.9241111,27.5321509 C32.9236314,27.5252605 35.3617465,25.0829893 35.3617465,22.0818285 L35.3617465,20.961643 C39.1393374,22.1348738 42.7583393,24.3749166 45.6351445,27.2516124 L39.464609,27.2516124 C36.0775846,27.2516124 33.3219633,30.0071243 33.3219633,33.3942581 C33.3219633,34.4094467 32.4960972,35.2353128 31.4809086,35.2353128 C28.6563832,35.2354221 26.358592,37.5332132 26.358592,40.3576294 L26.358592,40.3576294 Z M52.6639201,42.928303 L29.6397446,42.928303 L29.6397446,40.3577387 C29.6397446,39.3425501 30.4656107,38.516684 31.4807993,38.516684 C34.3052154,38.516684 36.6030065,36.2188929 36.6030065,33.3944768 C36.6030065,31.8166799 37.8865934,30.5329837 39.4644996,30.5329837 L48.3536887,30.5329837 C50.8838948,34.1855627 52.3720069,38.4408894 52.6639201,42.928303 L52.6639201,42.928303 Z" id="Shape"></path>
            </g>
        </g>
    </g>
</svg>