<?xml version="1.0" encoding="UTF-8"?>
<svg width="52px" height="36px" viewBox="0 0 52 36" version="1.1" xmlns="http://www.w3.org/2000/svg" xmlns:xlink="http://www.w3.org/1999/xlink">
    <title>ab-principle-icon-01</title>
    <g id="Design" stroke="none" stroke-width="1" fill="none" fill-rule="evenodd">
        <g id="GreenLine-New:-Главная:-Десктоп" transform="translate(-48.000000, -1674.000000)" fill="#FCD03B" fill-rule="nonzero">
            <g id="ab-principle-icon-01" transform="translate(48.000000, 1674.000000)">
                <path d="M0.708827343,19.5181 C3.78495267,22.116 7.27139055,25.0607 14.0152428,25.0607 C20.7592982,25.0607 24.2459392,22.116 27.3221661,19.5181 C30.2313227,17.0613 32.7437761,14.9394 37.9841985,14.9394 C43.2247225,14.9394 45.7371759,17.0613 48.6462309,19.5181 C49.4978326,20.2372 50.7801608,20.1406 51.5104968,19.3022 C52.2408329,18.4637 52.1427235,17.2011 51.2911218,16.482 C48.2148949,13.8841 44.7282539,10.9394 37.9841985,10.9394 C31.2401431,10.9394 27.7535021,13.884 24.6772752,16.482 C21.7681187,18.9388 19.2556653,21.0607 14.0152428,21.0607 C8.77492196,21.0607 6.26277325,18.9389 3.35381981,16.482 C2.50231972,15.7629 1.21999146,15.8594 0.489553882,16.6979 C-0.240883697,17.5363 -0.142672749,18.799 0.708827343,19.5181 Z" id="Path"></path>
                <path d="M0.708827343,8.5787 C3.78485111,11.1767 7.27128898,14.1213 14.0152428,14.1213 C20.7592982,14.1213 24.2459392,11.1767 27.3221661,8.5787 C30.2313227,6.1219 32.7436745,4 37.9841985,4 C43.2245194,4 45.7369728,6.1218 48.6462309,8.5787 C49.4978326,9.298 50.7800593,9.2011 51.5103953,8.3626 C52.2408329,7.5242 52.1424188,6.2614 51.2909187,5.5424 C48.2146918,2.9444 44.7280508,0 37.9841985,0 C31.2401431,0 27.7535021,2.9446 24.6772752,5.5426 C21.7681187,7.9994 19.2556653,10.1213 14.0152428,10.1213 C8.77502352,10.1213 6.26277325,7.9995 3.35381981,5.5426 C2.50231972,4.8234 1.2198899,4.92 0.489553882,5.7585 C-0.240883697,6.5969 -0.142672749,7.8596 0.708827343,8.5787 Z" id="Path"></path>
                <path d="M51.2911218,27.4213 C48.2148949,24.8234 44.7282539,21.8787 37.9841985,21.8787 C31.2401431,21.8787 27.7535021,24.8233 24.6772752,27.4213 C21.7681187,29.8781 19.2556653,32 14.0152428,32 C8.77522664,32 6.26287481,29.8782 3.35392138,27.4215 L3.35371825,27.4213 C2.50221816,26.7024 1.21999146,26.799 0.489553882,27.6373 C-0.240782134,28.4757 -0.142571186,29.7384 0.708928905,30.4575 C3.78505423,33.0555 7.27159367,36 14.0152428,36 C20.7592982,36 24.2459392,33.0554 27.3221661,30.4574 C30.2313227,28.0006 32.7437761,25.8787 37.9841985,25.8787 C43.2247225,25.8787 45.7371759,28.0006 48.6462309,30.4574 C49.4978326,31.1765 50.7801608,31.0799 51.5104968,30.2415 C52.2408329,29.403 52.1427235,28.1404 51.2911218,27.4213 Z" id="Path"></path>
            </g>
        </g>
    </g>
</svg>