<svg width="72" height="72" viewBox="0 0 72 72" xmlns="http://www.w3.org/2000/svg">
    <g fill="none" fill-rule="evenodd">
        <path d="M0 0h72v72H0z"/>
        <path d="M38.695 59c-2.51 0-4.502-1.725-4.86-4.22l-5.292-37.02c-.02-.135-.06-.42-.486-.42h-.001c-.426 0-.467.284-.487.421l-3.768 26.42c-.343 2.36-2.241 4.077-4.617 4.182-2.376.105-4.418-1.438-4.966-3.752a1.034 1.034 0 0 1-.006-.025l-1.216-5.418c-.33-1.374-1.544-2.409-2.826-2.409a2.17 2.17 0 1 1 0-4.34c3.295 0 6.26 2.422 7.05 5.759l.007.025 1.217 5.42c.03.127.115.423.548.405.449-.02.496-.343.513-.464l3.769-26.421C23.629 14.7 25.594 13 28.056 13h.004c2.464.002 4.429 1.706 4.779 4.145l5.291 37.02c.02.136.077.506.583.495.51-.007.551-.376.567-.514l.738-6.563a2.17 2.17 0 1 1 4.313.485l-.739 6.564c-.286 2.534-2.266 4.33-4.814 4.367l-.083.001zm18.363-16.017.006-.026.766-3.25c.423-1.681 1.946-2.948 3.547-2.948a2.17 2.17 0 1 0 0-4.34c-3.597 0-6.86 2.63-7.761 6.252l-.007.026-.766 3.251c-.026.103-.072.245-.326.236-.265-.01-.292-.169-.308-.267l-1.703-10.388c-.37-2.218-2.197-3.727-4.446-3.667-2.248.06-3.994 1.661-4.247 3.896l-.919 8.12a2.17 2.17 0 1 0 4.313.489l.918-8.122a.46.46 0 0 1 .007-.04.242.242 0 0 1 .085-.002l.008.034 1.702 10.388a4.627 4.627 0 0 0 4.611 3.899 4.624 4.624 0 0 0 4.52-3.54z" fill="#F6CC3B" fill-rule="nonzero"/>
    </g>
</svg>
