<svg width="72" height="72" viewBox="0 0 72 72" xmlns="http://www.w3.org/2000/svg">
    <g fill="none" fill-rule="evenodd">
        <path d="M0 0h72v72H0z"/>
        <path d="M48.747 25.516a5.51 5.51 0 0 0-3.943 1.66 5.51 5.51 0 0 0-4.896-1.576l1.338-10.393a5.467 5.467 0 0 0-1.101-4.065 5.467 5.467 0 0 0-3.654-2.096 5.465 5.465 0 0 0-4.065 1.102 5.467 5.467 0 0 0-2.095 3.653l-.685 5.315-.684-5.315a5.467 5.467 0 0 0-2.096-3.653 5.469 5.469 0 0 0-4.065-1.102 5.467 5.467 0 0 0-3.653 2.096 5.467 5.467 0 0 0-1.102 4.065l2.904 22.552a5.495 5.495 0 0 0-.935 3.073v7.294C20.015 56.327 26.687 63 34.889 63H39.4c8.201 0 14.874-6.673 14.874-14.874V31.043a5.534 5.534 0 0 0-5.528-5.527zm0 3.168c1.301 0 2.36 1.058 2.36 2.36v7.433c0 1.3-1.059 2.359-2.36 2.359a2.362 2.362 0 0 1-2.359-2.36v-7.433c0-1.3 1.059-2.359 2.36-2.359zm-5.527 2.36v7.433c0 1.3-1.058 2.359-2.359 2.359-1.3 0-2.359-1.058-2.359-2.36v-7.433c0-1.3 1.058-2.359 2.36-2.359 1.3 0 2.358 1.059 2.358 2.36zm-17.678 7.43h7.79c1.3 0 2.359 1.057 2.359 2.358 0 1.3-1.059 2.36-2.36 2.36h-7.79a2.362 2.362 0 0 1-2.358-2.36c0-1.3 1.058-2.359 2.359-2.359zm-3.887-25.397a2.32 2.32 0 0 1 1.55-.889 2.322 2.322 0 0 1 1.725.467c.494.382.81.932.89 1.55l2.255 17.515c.156 1.575 2.735 2.074 3.142 0l2.255-17.514a2.32 2.32 0 0 1 .89-1.55 2.322 2.322 0 0 1 1.724-.468 2.32 2.32 0 0 1 1.55.89 2.32 2.32 0 0 1 .468 1.724l-1.665 12.93a5.498 5.498 0 0 0-1.105 3.311v4.64a5.495 5.495 0 0 0-2.003-.378h-7.79c-.585 0-1.15.092-1.68.262l-2.673-20.765a2.32 2.32 0 0 1 .467-1.725zM39.4 59.832H34.89c-6.455 0-11.707-5.252-11.707-11.706v-2.297c.716.34 1.516.53 2.36.53h7.79a5.532 5.532 0 0 0 4.919-3.012 5.51 5.51 0 0 0 6.554-1.002 5.51 5.51 0 0 0 6.301 1.129v4.652c0 6.455-5.25 11.706-11.706 11.706z" fill="#F6CC3B" fill-rule="nonzero"/>
    </g>
</svg>
