<svg width="72" height="72" viewBox="0 0 72 72" xmlns="http://www.w3.org/2000/svg">
    <g fill="none" fill-rule="evenodd">
        <path d="M0 0h72v72H0z"/>
        <g fill="#F6CC3B" fill-rule="nonzero">
            <path d="M57.159 21.358c-1.124-.17-3.249.087-8.695 4.23a2.295 2.295 0 0 1-2.068.367l-8.75-2.723c-3.996-1.353-9.276.585-12.939 2.718-2.955 1.721-8.745 5.828-6.31 8.233 1.789 1.768 6.064-.888 11.36-1.689 1.313-.198 2.023-.132 2.387-.042-1.357 5.195-16.194 23.46-19.745 27.695-1.044 1.247.116 3.11 1.696 2.723 7.56-1.855 13.788-7.277 18.27-12.393 4.075-.08 5.474.665 5.669.978.561.902.106 3.564-.195 5.325-.442 2.59-.792 4.634.55 5.747.714.591 1.65.605 2.479.172 2.604-1.362 7.305-9.73 6.937-14.058-.304-3.572-5.525-5.737-8.935-6.826 1.063-1.612 2.178-3.072 2.984-6.823 2.29.545 5.677 1.243 7.374.989 1.842-.277 4.309-2.991 6.053-5.22 1.406-1.795 3.764-5.109 3.764-7.129 0-1.191-.758-2.105-1.886-2.274zM41.741 46.602c1.933 1.005 2.663 1.88 2.701 2.325.194 2.274-1.98 6.532-3.297 8.545.42-2.46 1.044-5.728-.246-7.8-.887-1.425-2.804-2.252-5.823-2.498a78.316 78.316 0 0 0 1.801-2.437c1.814.518 3.542 1.178 4.864 1.865zm6.936-13.953c-.811.094-3.256-.215-7.767-1.368a1.688 1.688 0 0 0-2.093 1.437c-.294 2.482-1.173 4.854-1.89 5.915-.988 1.46-3.23 5.098-6.642 9.083-3.176 3.71-6.892 7.198-11.185 9.564 4.188-5.212 10.666-13.528 14.068-19.246 2.153-3.619 3.258-6.343 1.654-7.88-2.37-2.269-7.548-.682-10.771.251 3.23-2.373 8.752-5.131 12.57-3.957l8.773 2.73a5.676 5.676 0 0 0 5.113-.904c1.933-1.47 3.374-2.377 4.386-2.91-1.772 3.098-5.108 6.834-6.216 7.285z"/>
            <path d="M41.14 22.94c3.846 0 6.975-3.127 6.975-6.97S44.985 9 41.14 9c-3.846 0-6.975 3.127-6.975 6.97s3.129 6.97 6.975 6.97zm0-10.565c1.985 0 3.6 1.613 3.6 3.595a3.601 3.601 0 0 1-3.6 3.595 3.602 3.602 0 0 1-3.6-3.595 3.602 3.602 0 0 1 3.6-3.595z"/>
        </g>
    </g>
</svg>
