<svg width="72" height="72" viewBox="0 0 72 72" xmlns="http://www.w3.org/2000/svg">
    <g fill="none" fill-rule="evenodd">
        <path d="M0 0h72v72H0z"/>
        <g fill="#F6CC3B" fill-rule="nonzero">
            <path d="M41.427 14.954c-1.247-1.834-2.348-3.521-3.375-5.062a2.233 2.233 0 0 0-.586-.587c-.88-.587-2.054-.293-2.641.587-.954 1.54-2.054 3.154-3.374 5.062C25.656 23.463 17 36.299 17 43.634c0 5.355 2.2 10.197 5.722 13.718C26.242 60.799 31.084 63 36.439 63c5.354 0 10.196-2.2 13.717-5.722 3.52-3.52 5.721-8.362 5.721-13.717 0-7.335-8.655-20.098-14.45-28.607zm6.088 39.684c-2.86 2.86-6.748 4.548-11.076 4.548s-8.216-1.76-11.077-4.548c-2.86-2.861-4.548-6.749-4.548-11.077 0-6.161 8.29-18.411 13.79-26.554.661-.953 1.248-1.907 1.835-2.714.586.807 1.173 1.76 1.833 2.714 5.502 8.216 13.79 20.393 13.79 26.554 0 4.328-1.76 8.216-4.547 11.077z"/>
            <path d="M45.808 41.241c-1.027-.073-1.907.734-1.98 1.76-.073 1.614-.587 3.155-1.394 4.475-.807 1.32-1.98 2.494-3.374 3.228-.88.513-1.247 1.687-.734 2.567.587 1.027 1.76 1.32 2.641.807a12.71 12.71 0 0 0 4.695-4.548c1.173-1.834 1.834-4.035 1.907-6.308.073-1.027-.734-1.908-1.76-1.981z"/>
        </g>
    </g>
</svg>
