<svg width="72" height="72" viewBox="0 0 72 72" xmlns="http://www.w3.org/2000/svg">
    <g fill="none" fill-rule="evenodd">
        <path d="M0 0h72v72H0z"/>
        <path d="M51.084 53.058h-4.306c3.579-2.771 5.888-7.108 5.888-11.974 0-8.348-6.791-15.139-15.139-15.139H35.72V17.36c0-.874-.708-1.582-1.582-1.582h-.112v-5.196c0-.874-.709-1.582-1.582-1.582h-6.778c-.874 0-1.582.708-1.582 1.582v5.196h-.113c-.874 0-1.582.708-1.582 1.582v16.946c0 .873.708 1.582 1.582 1.582h.113v5.196c0 .873.708 1.582 1.582 1.582h6.778c.873 0 1.582-.709 1.582-1.582v-5.197H37.528a5.202 5.202 0 0 1 5.196 5.197 5.202 5.202 0 0 1-5.197 5.196H20.582a1.582 1.582 0 0 0 0 3.164h11.974v3.614H20.582c-.874 0-1.582.708-1.582 1.582v6.778c0 .874.708 1.582 1.582 1.582h30.502c.873 0 1.582-.708 1.582-1.582V54.64c0-.874-.709-1.582-1.582-1.582zM27.248 12.164h3.614v3.614h-3.614v-3.614zm3.614 27.338h-3.614v-3.615h3.614v3.615zm1.694-6.779h-7.003v-13.78h7.003v13.78zm3.164 16.72h1.807c4.61 0 8.36-3.75 8.36-8.36 0-4.61-3.75-8.36-8.36-8.36H35.72V29.11h1.807c6.603 0 11.975 5.372 11.975 11.975 0 6.602-5.372 11.974-11.975 11.974H35.72v-3.614zm13.782 10.393H22.164v-3.614h27.338v3.614z" fill="#F6CC3B" fill-rule="nonzero"/>
    </g>
</svg>
