<svg width="72" height="72" viewBox="0 0 72 72" xmlns="http://www.w3.org/2000/svg">
    <g fill="none" fill-rule="evenodd">
        <path d="M0 0h72v72H0z"/>
        <g fill="#FCD03B" fill-rule="nonzero">
            <path d="M10.709 37.518c3.076 2.598 6.562 5.543 13.306 5.543 6.744 0 10.23-2.945 13.307-5.543 2.91-2.457 5.422-4.579 10.662-4.579 5.24 0 7.753 2.122 10.662 4.58.852.718 2.134.622 2.864-.217a1.979 1.979 0 0 0-.219-2.82c-3.076-2.598-6.563-5.543-13.307-5.543-6.744 0-10.23 2.945-13.307 5.543-2.909 2.457-5.421 4.579-10.662 4.579-5.24 0-7.752-2.122-10.661-4.579a2.053 2.053 0 0 0-2.864.216 1.979 1.979 0 0 0 .219 2.82z"/>
            <path d="M10.709 26.579c3.076 2.598 6.562 5.542 13.306 5.542 6.744 0 10.23-2.944 13.307-5.542C40.232 24.122 42.744 22 47.984 22c5.24 0 7.753 2.122 10.662 4.579.852.719 2.134.622 2.864-.216a1.979 1.979 0 0 0-.22-2.82C58.216 20.943 54.729 18 47.985 18c-6.744 0-10.23 2.945-13.307 5.543-2.909 2.456-5.421 4.578-10.662 4.578-5.24 0-7.752-2.121-10.661-4.578a2.053 2.053 0 0 0-2.864.215 1.979 1.979 0 0 0 .219 2.82zM61.291 45.421c-3.076-2.598-6.563-5.542-13.307-5.542-6.744 0-10.23 2.944-13.307 5.542C31.768 47.878 29.256 50 24.015 50c-5.24 0-7.752-2.122-10.661-4.578a2.054 2.054 0 0 0-2.864.215 1.979 1.979 0 0 0 .219 2.82C13.785 51.056 17.272 54 24.015 54c6.744 0 10.23-2.945 13.307-5.543 2.91-2.456 5.422-4.578 10.662-4.578 5.24 0 7.753 2.122 10.662 4.578.852.72 2.134.623 2.864-.215a1.979 1.979 0 0 0-.219-2.82z"/>
        </g>
    </g>
</svg>
