<svg width="72" height="72" viewBox="0 0 72 72" xmlns="http://www.w3.org/2000/svg">
    <g fill="none" fill-rule="evenodd">
        <path d="M0 0h72v72H0z"/>
        <path d="m54.01 11.104-.064-1.187-1.147-.308c-.476-.128-10.79-2.823-18.308 1.348-6.046-4.855-15.847-2.295-16.262-2.183l-1.147.308-.064 1.186c-.024.43-.5 10.591 5.542 15.488a11.973 11.973 0 0 0 2.885 1.709v15.66c0 4.36 2.533 8.287 6.41 10.116V64h3.278v-9.789a11.26 11.26 0 0 0 3.177-.023V64h3.279V53.16a11.206 11.206 0 0 0 2.954-2.124 11.113 11.113 0 0 0 3.277-7.91V29.852c6.779-6.296 6.218-18.227 6.19-18.748zM27.43 19.579a27.44 27.44 0 0 0-1.296 4.598 8.387 8.387 0 0 1-1.51-.968c-3.668-2.972-4.256-8.942-4.333-11.525 2.373-.43 7.717-1.031 11.402 1.3-1.128 1.054-2.052 2.265-2.81 3.553l-2.626-2.128-2.064 2.547 3.237 2.623zm17.11 23.547a7.856 7.856 0 0 1-2.316 5.591 7.858 7.858 0 0 1-5.592 2.317 7.862 7.862 0 0 1-2.6-.438 7.914 7.914 0 0 1-5.31-7.47v-9.5c.823.148 1.861.303 3.042.41v9.791h3.28v-9.653c1.023-.01 2.092-.07 3.176-.207v9.86h3.278V33.306a17.207 17.207 0 0 0 3.043-1.182v11.002zm.509-15.207c-4.077 3.303-10.265 3.197-14.074 2.724l14.056-11.391-2.065-2.548-14.055 11.392c.326-3.825 1.504-9.901 5.58-13.205 5.005-4.056 13.193-2.972 16.253-2.38-.055 3.118-.691 11.352-5.695 15.408z" fill="#F6CC3B" fill-rule="nonzero"/>
    </g>
</svg>
