<svg width="45" height="32" viewBox="0 0 45 32" xmlns="http://www.w3.org/2000/svg">
    <path d="M34.128 26.558a4.51 4.51 0 0 1-.322-1.652c0-2.563 1.119-4.638 3.735-4.638.782 0 2.61-2.158 4.38-3.202 1.658-.979 2.61-.979 2.45-1.78-.792-3.953-6.538-9.712-12.693-10.54L1.481 0 .145 9.547c-1.16 8.312 4.763 15.973 13.246 17.11l19.54 3.303 6.66.893 3.988.542.6-4.287a7.332 7.332 0 0 0-2.258 1.038c-.11.117-.24.226-.359.325-.018.018-.037.027-.055.045a3.876 3.876 0 0 1-.313.226 4.754 4.754 0 0 1-2.653.803 4.738 4.738 0 0 1-4.146-2.41c-.073-.135-.138-.27-.202-.406a2.018 2.018 0 0 1-.065-.171z" fill="#F6CC3B" fill-rule="evenodd"/>
</svg>
