<?xml version="1.0" encoding="UTF-8"?>
<svg width="56px" height="56px" viewBox="0 0 56 56" version="1.1" xmlns="http://www.w3.org/2000/svg" xmlns:xlink="http://www.w3.org/1999/xlink">
    <title>ab-principle-icon-04</title>
    <g id="Design" stroke="none" stroke-width="1" fill="none" fill-rule="evenodd">
        <g id="GreenLine-New:-Главная:-Десктоп" transform="translate(-792.000000, -2788.000000)" fill="#F6CC3B" fill-rule="nonzero">
            <g id="ab-principle-icon-04" transform="translate(792.000000, 2788.000000)">
                <path d="M34.9606954,15.8380491 C31.9317664,12.6554117 28.9112593,10.994834 28.7841653,10.9257389 L27.9999447,10.4991424 L27.2157241,10.9257389 C27.0886301,10.994834 24.0682324,12.6554117 21.039194,15.8380491 C16.967372,20.1162588 14.8151951,25.1328675 14.8151951,30.3456101 C14.8151951,37.6125099 20.7298808,43.5245121 27.9999447,43.5245121 C35.2700086,43.5245121 41.1846943,37.6124006 41.1846943,30.3456101 C41.1846943,25.1328675 39.0325174,20.1162588 34.9606954,15.8380491 Z M26.3594252,31.5161813 L18.8087044,25.6398199 C19.2701586,24.1523078 19.9551759,22.7073242 20.8620061,21.3101168 L26.3593159,25.5884359 L26.3593159,31.5161813 L26.3594252,31.5161813 Z M29.6406829,25.5885452 L35.1290239,21.3172231 C35.9613696,22.6044469 36.6844494,24.0491025 37.1835287,25.6459422 L29.6406829,31.5162906 L29.6406829,25.5885452 Z M33.1385036,18.7095399 L29.6406829,21.4317985 L29.6406829,15.453981 C30.6787635,16.2563367 31.9285945,17.346224 33.1385036,18.7095399 Z M26.3594252,15.4537624 L26.3594252,21.4317985 L22.8582139,18.7070253 C23.0183393,18.527072 23.1811991,18.3477747 23.3493088,18.1696799 C24.4001863,17.0566151 25.4585013,16.1487583 26.3594252,15.4537624 L26.3594252,15.4537624 Z M18.0965621,30.3455007 C18.0965621,29.9852661 18.1096872,29.6272181 18.133531,29.2709192 L26.3594252,35.6728187 L26.3594252,40.1080229 C21.6767424,39.3243623 18.0965621,35.2453475 18.0965621,30.3455007 Z M29.6406829,40.1080229 L29.6406829,35.6728187 L37.8658116,29.2715752 C37.8898741,29.6241569 37.903546,29.9817676 37.903546,30.3455007 C37.9034366,35.2453475 34.3233658,39.3243623 29.6406829,40.1080229 L29.6406829,40.1080229 Z" id="Shape"></path>
                <path d="M15.6406501,49.3978123 C9.92262114,46.0978664 5.83242406,40.7697832 4.12354506,34.3948877 C1.53430462,24.7357895 5.05443786,14.5668964 12.7546746,8.54152144 L11.9655322,14.9652864 L15.2223992,15.3649883 L16.6485431,3.75417281 L5.03267219,2.32843088 L4.63279625,5.5837711 L10.3266533,6.28259346 C1.88638357,13.144981 -1.93289099,24.4742777 0.953959514,35.2438169 C2.8896828,42.4649085 7.52292802,48.5003416 13.9999119,52.2382541 C18.314547,54.7281914 23.1023395,56 27.9543352,56 C30.3860753,56 32.8349873,55.6802166 35.2469304,55.0343088 L34.3975222,51.8662121 C28.0200698,53.574238 21.3587885,52.6975396 15.6406501,49.3978123 L15.6406501,49.3978123 Z" id="Path"></path>
                <path d="M55.0460393,20.7561536 C53.110316,13.535062 48.4770708,7.4996289 42.0000869,3.76171642 C35.5228842,0.0238039333 27.977304,-0.969219146 20.7530684,0.965770999 L21.6024766,4.13386775 C27.9800384,2.42562316 34.6413196,3.30243094 40.359458,6.60215819 C46.077487,9.90210409 50.1676841,15.2301873 51.8765631,21.6050828 C54.4658035,31.264181 50.9456703,41.4330741 43.2454335,47.4584491 L44.034576,41.0346841 L40.777709,40.6349822 L39.351565,52.2457977 L50.967436,53.6715396 L51.3673119,50.4161994 L45.6734548,49.717377 C54.1136152,42.8549895 57.9328898,31.5255834 55.0460393,20.7561536 Z" id="Path"></path>
            </g>
        </g>
    </g>
</svg>