<?xml version="1.0" encoding="UTF-8"?>
<svg width="54px" height="54px" viewBox="0 0 54 54" version="1.1" xmlns="http://www.w3.org/2000/svg" xmlns:xlink="http://www.w3.org/1999/xlink">
    <title>ab-principle-icon-02</title>
    <g id="Design" stroke="none" stroke-width="1" fill="none" fill-rule="evenodd">
        <g id="GreenLine-New:-Главная:-Десктоп" transform="translate(-102.000000, -2303.000000)" fill="#F6CC3B" fill-rule="nonzero">
            <g id="ab-principle-icon-02" transform="translate(102.000000, 2303.000000)">
                <path d="M38.9254517,30.057927 C42.4583664,26.736907 44.404022,22.2418699 44.404022,17.4008822 C44.404022,6.41125593 34.3450871,-1.92615293 23.2661254,0.388024381 C16.4363439,1.81433219 11.0497457,7.41757131 9.86212274,14.3305709 C8.83112674,20.3326024 10.8867904,26.0361461 14.9419007,29.9298831 C17.5395887,32.4244188 19.0905653,36.0996163 19.0905653,39.7611023 L19.0905653,44.5153914 C18.2910819,44.5948124 17.6666833,45.2690996 17.6666833,46.0894665 C17.6666833,46.9632027 18.3750382,47.6715576 19.2487744,47.6715576 C19.9837084,51.2778814 23.1809035,53.9999217 27.0010205,53.9999217 C30.821243,53.9999217 34.0172779,51.2778814 34.7523174,47.6715576 L35.0696848,47.6715576 C35.943421,47.6715576 36.6517759,46.9632027 36.6517759,46.0894665 C36.6517759,45.2157304 35.943421,44.5073755 35.0696848,44.5073755 L34.9114757,44.5073755 L34.9114757,39.7611023 C34.9805604,39.416312 34.2378214,34.464367 38.9254517,30.057927 Z M17.1334132,27.6475586 C13.6701104,24.3221087 12.1564712,19.6634834 12.9806351,14.8662669 C13.9501405,9.22210436 18.3436074,4.64849009 23.9129897,3.48533676 C33.0034739,1.58703845 41.2398399,8.39857323 41.2398399,17.4008822 C41.2398399,21.359485 39.6482563,25.0358427 36.7583033,27.7525039 C33.7350328,30.5943613 31.9358789,34.3639569 31.7613215,38.1790113 L28.5831115,38.1790113 L28.5831115,27.3723802 L34.6456844,18.2784154 C35.1304371,17.5513918 34.9339414,16.5691242 34.2069178,16.084477 C33.4798943,15.5999353 32.4975212,15.79622 32.0129795,16.5233491 L31.2055857,17.734387 L27.7084261,15.9857545 C27.2630148,15.7631016 26.7388153,15.7631016 26.2934039,15.9857545 L22.7963499,17.7342815 L21.9889561,16.5232436 C21.5042034,15.7961145 20.5217248,15.5998298 19.7950177,16.0843715 C19.0679941,16.5691242 18.8714984,17.5513918 19.3561456,18.2783099 L25.4189295,27.3724857 L25.4189295,38.1790113 L22.1769085,38.1790113 C21.7885579,34.2140802 19.9646178,30.3662238 17.1334132,27.6475586 Z M27.0010205,24.0412348 L24.5652331,20.3875537 L27.0010205,19.16966 L29.4368079,20.3875537 L27.0010205,24.0412348 Z M27.0010205,50.8357396 C24.9385011,50.8357396 23.1799542,49.5118459 22.526867,47.6705028 L31.4750685,47.6705028 C30.8220868,49.5118459 29.0635399,50.8357396 27.0010205,50.8357396 Z M22.2547474,44.5073755 L22.2547474,41.3431934 L31.7472936,41.3431934 L31.7472936,44.5073755 L22.2547474,44.5073755 Z" id="Shape"></path>
                <path d="M7.02817579,27.1054287 L4.28788862,28.6875197 C3.53122721,29.1243878 3.27197523,30.0919947 3.7088433,30.8486561 C4.1479263,31.6091145 5.11690433,31.8625655 5.86997967,31.4277014 L8.61026683,29.8456104 C9.36692824,29.4087423 9.62618023,28.4411354 9.18931215,27.684474 C8.75244408,26.9278126 7.7848372,26.6684551 7.02817579,27.1054287 Z" id="Path"></path>
                <path d="M46.9738652,7.69633575 L49.7140469,6.11424471 C50.4708138,5.67737664 50.7300658,4.70976975 50.2930922,3.95310834 C49.8561187,3.19634146 48.8887227,2.93719495 48.1319559,3.37406302 L45.3917742,4.95615406 C44.6350073,5.39302214 44.3757553,6.36062902 44.8127288,7.11729043 C45.2509681,7.87637772 46.2193133,8.13193816 46.9738652,7.69633575 Z" id="Path"></path>
                <path d="M8.61026683,4.95615406 L5.86997967,3.37406302 C5.11321278,2.93687853 4.1456059,3.19644693 3.7088433,3.95310834 C3.27197523,4.70976975 3.53122721,5.67737664 4.28788862,6.11424471 L7.02817579,7.69633575 C7.78146207,8.13141079 8.75065104,7.8772215 9.18931215,7.11729043 C9.62618023,6.36062902 9.36692824,5.39302214 8.61026683,4.95615406 Z" id="Path"></path>
                <path d="M45.3917742,29.8456104 L48.1319559,31.4277014 C48.8853476,31.8627765 49.8543256,31.6085872 50.2930922,30.8486561 C50.7300658,30.0919947 50.4708138,29.1243878 49.7140469,28.6875197 L46.9738652,27.1054287 C46.2169929,26.6683497 45.2495969,26.9277071 44.8127288,27.684474 C44.3757553,28.4411354 44.6350073,29.4087423 45.3917742,29.8456104 Z" id="Path"></path>
                <path d="M0,17.4008822 C0,18.2746184 0.708354897,18.9829733 1.58209104,18.9829733 L4.85174587,18.9829733 C5.72548202,18.9829733 6.43383692,18.2746184 6.43383692,17.4008822 C6.43383692,16.5271461 5.72548202,15.8187912 4.85174587,15.8187912 L1.58209104,15.8187912 C0.708354897,15.8187912 0,16.5271461 0,17.4008822 Z" id="Path"></path>
                <path d="M52.41995,15.8187912 L49.1502951,15.8187912 C48.276559,15.8187912 47.5682041,16.5271461 47.5682041,17.4008822 C47.5682041,18.2746184 48.276559,18.9829733 49.1502951,18.9829733 L52.41995,18.9829733 C53.2936861,18.9829733 54.002041,18.2746184 54.002041,17.4008822 C54.002041,16.5271461 53.2936861,15.8187912 52.41995,15.8187912 Z" id="Path"></path>
            </g>
        </g>
    </g>
</svg>