<?xml version="1.0" encoding="UTF-8"?>
<svg width="40px" height="52px" viewBox="0 0 40 52" version="1.1" xmlns="http://www.w3.org/2000/svg" xmlns:xlink="http://www.w3.org/1999/xlink">
    <title>ab-principle-icon-03</title>
    <g id="Design" stroke="none" stroke-width="1" fill="none" fill-rule="evenodd">
        <g id="GreenLine-New:-Главная:-Десктоп" transform="translate(-978.000000, -2554.000000)" fill="#F6CC3B" fill-rule="nonzero">
            <g id="ab-principle-icon-03" transform="translate(978.000000, 2554.000000)">
                <path d="M17.7892945,32.2702656 L17.7892945,6.6015625 C17.7892945,2.96146094 14.7909244,0 11.1054556,0 C7.41998674,0 4.42161656,2.96146094 4.42161656,6.6015625 L4.42161656,32.2702656 C1.63795187,34.3392969 1.77635684e-15,37.5549688 1.77635684e-15,41.03125 C1.77635684e-15,47.0793984 4.9818251,52 11.1054556,52 C17.229086,52 22.2109111,47.0793984 22.2109111,41.03125 C22.2109111,37.5549688 20.5729592,34.3392969 17.7892945,32.2702656 Z M11.1054556,48.953125 C6.68281071,48.953125 3.08484877,45.3993516 3.08484877,41.03125 C3.08484877,38.3132344 4.47159111,35.8155078 6.79437941,34.3497578 C7.23798066,34.0698516 7.50646533,33.5859062 7.50646533,33.0659062 L7.50646533,6.6015625 C7.50646533,4.64150781 9.12097234,3.046875 11.1054556,3.046875 C13.0899388,3.046875 14.7044458,4.64150781 14.7044458,6.6015625 L14.7044458,33.0660078 C14.7044458,33.5859062 14.9728276,34.0699531 15.4165317,34.3498594 C17.73932,35.8155078 19.1260623,38.3132344 19.1260623,41.03125 C19.1260623,45.3993516 15.5281004,48.953125 11.1054556,48.953125 L11.1054556,48.953125 Z" id="Shape"></path>
                <path d="M12.6478799,36.7229688 L12.6478799,6.6015625 C12.6478799,5.76021875 11.9572851,5.078125 11.1054556,5.078125 C10.253626,5.078125 9.56303117,5.76021875 9.56303117,6.6015625 L9.56303117,36.7229688 C7.76775202,37.3518438 6.47818241,39.0451953 6.47818241,41.0311484 C6.47818241,43.5512187 8.55397714,45.6014609 11.1054556,45.6014609 C13.656934,45.6014609 15.7327287,43.5512187 15.7327287,41.0311484 C15.7327287,39.0451953 14.4431591,37.3518438 12.6478799,36.7229688 Z M11.1054556,42.5546875 C10.2549628,42.5546875 9.56303117,41.8712734 9.56303117,41.03125 C9.56303117,40.1912266 10.2549628,39.5078125 11.1054556,39.5078125 C11.9559484,39.5078125 12.6478799,40.1912266 12.6478799,41.03125 C12.6478799,41.8712734 11.9559484,42.5546875 11.1054556,42.5546875 Z" id="Shape"></path>
                <path d="M22.4165677,8.08691406 C21.5647381,8.08691406 20.8741433,8.76900781 20.8741433,9.61035156 C20.8741433,10.4516953 21.5647381,11.1337891 22.4165677,11.1337891 C25.9248634,11.1337891 28.7791711,13.9529609 28.7791711,17.4181719 C28.7791711,20.8832813 25.9248634,23.7024531 22.4165677,23.7024531 C21.5647381,23.7024531 20.8741433,24.3845469 20.8741433,25.2258906 C20.8741433,26.0672344 21.5647381,26.7493281 22.4165677,26.7493281 C27.625849,26.7493281 31.8640199,22.5633281 31.8640199,17.4181719 C31.8640199,12.2728125 27.625849,8.08691406 22.4165677,8.08691406 L22.4165677,8.08691406 Z" id="Path"></path>
                <path d="M22.4164649,5.6875 C23.2682944,5.6875 23.9588892,5.00540625 23.9588892,4.1640625 L23.9588892,1.52353906 C23.9588892,0.682195313 23.2682944,0.0001015625 22.4164649,0.0001015625 C21.5646353,0.0001015625 20.8740405,0.682195313 20.8740405,1.52353906 L20.8740405,4.1640625 C20.8740405,5.00540625 21.5646353,5.6875 22.4164649,5.6875 Z" id="Path"></path>
                <path d="M22.4164649,29.1485391 C21.5646353,29.1485391 20.8740405,29.8306328 20.8740405,30.6719766 L20.8740405,33.3125 C20.8740405,34.1538437 21.5646353,34.8359375 22.4164649,34.8359375 C23.2682944,34.8359375 23.9588892,34.1538437 23.9588892,33.3125 L23.9588892,30.6719766 C23.9588892,29.8306328 23.2682944,29.1485391 22.4164649,29.1485391 Z" id="Path"></path>
                <path d="M38.4575756,15.8946328 L35.7842457,15.8946328 C34.9324161,15.8946328 34.2418213,16.5767266 34.2418213,17.4180703 C34.2418213,18.2594141 34.9324161,18.9415078 35.7842457,18.9415078 L38.4575756,18.9415078 C39.3094052,18.9415078 40,18.2594141 40,17.4180703 C40,16.5767266 39.3094052,15.8946328 38.4575756,15.8946328 Z" id="Path"></path>
                <path d="M31.905254,9.56952344 C32.3000118,9.56952344 32.6947696,9.42083594 32.9958509,9.12325781 L34.8862462,7.25613281 C35.4886143,6.66117969 35.4886143,5.69664062 34.8862462,5.1016875 C34.2839809,4.50673437 33.3073178,4.50673437 32.7049496,5.1016875 L30.8145543,6.9688125 C30.2121862,7.56376562 30.2121862,8.52830469 30.8145543,9.12325781 C31.1158412,9.42073437 31.5104962,9.56952344 31.905254,9.56952344 L31.905254,9.56952344 Z" id="Path"></path>
                <path d="M32.9595525,25.6768281 C32.3572872,25.081875 31.3806241,25.0819766 30.7782559,25.6768281 C30.1759906,26.2717812 30.1758878,27.2363203 30.7782559,27.8312734 L32.6685484,29.6983984 C32.9697325,29.995875 33.3644903,30.1446641 33.7591453,30.1446641 C34.1538003,30.1446641 34.5486609,29.995875 34.8497422,29.6985 C35.4520075,29.1035469 35.4521103,28.1390078 34.8497422,27.5440547 L32.9595525,25.6768281 Z" id="Path"></path>
            </g>
        </g>
    </g>
</svg>