<?xml version="1.0" encoding="utf-8"?>
<svg width="156px" height="40px" viewbox="0 0 156 40" version="1.1" xmlns:xlink="http://www.w3.org/1999/xlink" xmlns="http://www.w3.org/2000/svg">
  <defs>
    <filter id="filter_1">
      <feColorMatrix in="SourceGraphic" type="matrix" values="0 0 0 0 1 0 0 0 0 1 0 0 0 0 1 0 0 0 1 0" />
    </filter>
  </defs>
  <g id="bi-group-logo" filter="url(#filter_1)">
    <path d="M20.0114 18.388C20.0114 18.5426 19.9362 18.6799 19.8203 18.7658C17.722 20.4807 14.7657 21.9048 11.0901 21.9048C4.39953 21.9048 0 17.1849 0 10.9525C0 5.02239 4.58267 5.41561e-08 11.0291 5.41561e-08C14.3765 5.41561e-08 16.566 0.829678 18.571 2.33616C18.9554 2.61326 19.0245 3.15039 18.7083 3.50435L17.1801 5.31558C17.0127 5.52886 16.7118 5.5563 16.5016 5.39031C14.9715 4.1725 13.3962 3.41883 10.8762 3.41883C6.93498 3.41883 3.94102 6.83755 3.94102 10.9525C3.94102 15.3093 6.84321 18.5161 11.2122 18.5161C13.2287 18.5161 15.0617 17.8809 16.3756 16.9126L16.3756 12.9492C15.96 12.9492 11.3824 12.949 11.3824 12.9494C11.1195 12.9494 10.9066 12.7385 10.9066 12.4783L10.9066 10.1829C10.9066 9.92263 11.1195 9.71177 11.3824 9.71177L19.5356 9.71197C19.7986 9.71238 20.0114 9.92284 20.0114 10.1831L20.0114 18.388L20.0114 18.388ZM26.6788 10.8617L26.6788 4.22271C26.6788 3.96263 26.8917 3.75155 27.1546 3.75155L32.1476 3.75155C34.9279 3.75155 36.5776 4.99227 36.5776 7.26116C36.5776 9.4699 34.8667 10.8617 32.1782 10.8617L26.6788 10.8617L26.6788 10.8617ZM23.7189 21.5418L26.2033 21.5418C26.4661 21.5418 26.679 21.3307 26.679 21.0706L26.6788 14.1593L31.3229 14.1593L36.41 21.2221C36.5554 21.416 36.7886 21.5418 37.0512 21.5418L40.1457 21.5418C40.5467 21.5418 40.7619 21.0822 40.5192 20.7788L35.2943 13.5241C38.2883 12.677 40.3967 10.5893 40.3967 7.11013C40.3967 3.02566 37.4635 0.363253 32.453 0.363253L23.7189 0.363049C23.2783 0.363049 22.9209 0.716827 22.9209 1.15332L22.9209 20.7515C22.9209 21.188 23.2783 21.5418 23.7189 21.5418ZM53.4555 21.9048C60.0241 21.9048 64.668 16.9126 64.668 10.9525C64.668 4.93171 60.0853 0 53.5165 0C46.9479 0 42.3042 4.99227 42.3042 10.9525C42.3042 16.9733 46.8867 21.9048 53.4555 21.9048ZM53.5165 18.486C49.2698 18.486 46.2455 15.0671 46.2455 10.9525C46.2455 6.77719 49.2087 3.41901 53.4555 3.41901C57.7022 3.41901 60.7267 6.83755 60.7267 10.9525C60.7267 15.1276 57.7632 18.486 53.5165 18.486ZM76.2011 21.8745C81.7921 21.8745 85.3971 18.6978 85.3971 12.3746L85.3971 1.15352C85.3971 0.71703 85.04 0.363253 84.5993 0.363253L82.1147 0.363253C81.8521 0.363253 81.6392 0.573938 81.6392 0.834406L81.6394 12.5561C81.6394 16.4586 79.5923 18.4558 76.2621 18.4558C72.9014 18.4558 70.8545 16.3379 70.8545 12.4047L70.8547 0.834406C70.8547 0.573938 70.6418 0.363253 70.379 0.363253L67.8945 0.363253C67.4538 0.363253 67.0966 0.71703 67.0966 1.15352L67.0966 12.5561C67.0966 18.6978 70.6408 21.8745 76.2011 21.8745ZM92.2557 11.3761L92.2557 4.22271C92.2557 3.96263 92.4688 3.75155 92.7314 3.75155L96.6248 3.75155C99.4355 3.75155 101.238 5.05263 101.238 7.53374C101.238 9.80265 99.4659 11.3761 96.6248 11.3761L92.2557 11.3761ZM89.2957 21.5418L91.7803 21.5418C92.0429 21.5418 92.2559 21.3307 92.2559 21.0706L92.2557 14.7343L96.5023 14.7343C101.207 14.7343 105.057 12.2534 105.057 7.50329C105.057 3.1769 101.91 0.363253 96.9303 0.363253L89.2957 0.363253C88.855 0.363253 88.4979 0.71703 88.4979 1.15352L88.4979 20.7515C88.4979 21.188 88.855 21.5418 89.2957 21.5418Z" transform="translate(50.61841 7.6191406)" id="Shape" fill="#FFFFFF" stroke="none" />
    <path d="M31.2393 30.7294C30.9763 30.7294 30.7634 30.518 30.7634 30.2569L30.7634 9.74171C30.7636 9.48067 30.9763 9.26929 31.2393 9.26929L34.729 9.26929C35.167 9.26929 35.5219 9.62181 35.5221 10.0566L35.5221 29.9421C35.5221 30.377 35.167 30.7294 34.729 30.7294L31.2393 30.7294ZM14.9565 26.1184C14.9565 26.3792 15.1694 26.5906 15.4324 26.5906L19.9453 26.5906C22.0458 26.5906 23.3128 25.8552 23.3128 24.1994C23.3128 22.7592 22.2312 21.8696 19.7907 21.8696L14.9565 21.8696L14.9565 26.1184ZM14.9565 17.9456L18.6787 17.9456C20.779 17.9456 22.1082 17.2711 22.1082 15.6158C22.1082 14.2051 20.9954 13.4082 18.9874 13.4082L15.4324 13.4082C15.1694 13.4082 14.9567 13.6196 14.9565 13.8806L14.9565 17.9456L14.9565 17.9456ZM11.1141 30.7294C10.6762 30.7294 10.321 30.377 10.321 29.9421L10.321 10.0568C10.321 9.62201 10.6762 9.26929 11.1141 9.26929L19.6983 9.26929C23.3049 9.26929 26.8363 10.8549 26.8363 14.8796C26.8363 17.3019 25.5378 18.6504 23.9931 19.5089C26.4955 20.4597 28.041 21.8999 28.041 24.8436C28.041 28.7676 24.8277 30.7294 19.9454 30.7294L11.1141 30.7294L11.1141 30.7294ZM44.6444 19.9998C44.6444 7.71407 34.2558 0.985352 22.9214 0.985352C11.5869 0.985352 1.19849 7.71408 1.19849 19.9998C1.19849 32.2851 11.5874 39.0142 22.9215 39.0142C34.2558 39.0142 44.6444 32.2851 44.6444 19.9998ZM45.8431 20.0001C45.8431 33.3333 34.3824 40 22.9216 40C11.4608 40 0 33.3333 0 20.0001C0 6.66682 11.4608 0 22.9216 0C34.3824 -8.78033e-07 45.8431 6.66682 45.8431 20.0001ZM43.6427 19.9999C43.6427 8.28914 33.6894 1.97974 22.9214 1.97974C12.1533 1.97974 2.2002 8.28914 2.2002 19.9999C2.2002 31.7108 12.1535 38.0198 22.9215 38.0198C33.6896 38.0198 43.6427 31.7106 43.6427 19.9999Z" id="Shape" fill="#FFFFFF" stroke="none" />
  </g>
</svg>