<?xml version="1.0" encoding="UTF-8"?>
<svg width="42px" height="36px" viewBox="0 0 42 36" version="1.1" xmlns="http://www.w3.org/2000/svg" xmlns:xlink="http://www.w3.org/1999/xlink">
    <title>1458B38B-78AC-474D-9C64-801AC71D1A37</title>
    <defs>
        <filter color-interpolation-filters="auto" id="filter-1">
            <feColorMatrix in="SourceGraphic" type="matrix" values="0 0 0 0 1.000000 0 0 0 0 1.000000 0 0 0 0 1.000000 0 0 0 1.000000 0"></feColorMatrix>
        </filter>
    </defs>
    <g id="Design" stroke="none" stroke-width="1" fill="none" fill-rule="evenodd">
        <g id="GreenLine-New:-Главная:-Мобайл" transform="translate(-67.000000, -14.000000)">
            <g id="bi-group-logo" transform="translate(16.000000, 12.000000)" filter="url(#filter-1)">
                <g transform="translate(51.000000, 2.000000)">
                    <path d="M28.1154324,27.6564644 C27.87879,27.6564644 27.6871839,27.4662182 27.6871839,27.2312785 L27.6871839,8.7675675 C27.6873339,8.5326278 27.8787899,8.34238255 28.1154324,8.34238255 L31.2562194,8.34238255 C31.6503622,8.34238255 31.9697809,8.65964982 31.9699669,9.05097545 L31.9699669,26.9478715 C31.9699669,27.339363 31.6503622,27.6564644 31.2562194,27.6564644 L28.1154324,27.6564644 Z M13.4609425,23.5064857 C13.4609425,23.7412408 13.6525486,23.9314851 13.8891911,23.9314851 L17.950794,23.9314851 C19.8412789,23.9314851 20.9815536,23.2696695 20.9815536,21.7794106 C20.9815536,20.4832244 20.0081748,19.6826218 17.8116748,19.6826218 L13.4609425,19.6826218 L13.4609425,23.5064857 Z M13.4609425,16.1510105 L16.810895,16.1510105 C18.701192,16.1510105 19.8974719,15.5439248 19.8974719,14.0542236 C19.8974719,12.7845951 18.8959425,12.06736 17.0887557,12.06736 L13.889191,12.06736 C13.6525486,12.06736 13.4610924,12.2575873 13.4609425,12.492527 L13.4609425,16.1510105 L13.4609425,16.1510105 Z M10.0026461,27.6564645 C9.60850418,27.6564645 9.28886156,27.3393629 9.28886156,26.9478715 L9.28886156,9.05116105 C9.28886156,8.65983538 9.60850413,8.34238255 10.0026461,8.34238255 L17.7283768,8.34238255 C20.9743651,8.34238255 24.1525901,9.76943614 24.1525901,13.3916629 C24.1525901,15.5716902 22.9839768,16.7853604 21.593694,17.5580131 C23.8458272,18.4137375 25.2368577,19.7099029 25.2368577,22.3592718 C25.2368577,25.8909 22.3448416,27.6564645 17.950794,27.6564645 L10.0026461,27.6564645 L10.0026461,27.6564645 Z M40.179955,17.9997579 C40.179955,6.942628 30.8302177,0.886777407 20.6292648,0.886777407 C10.4282748,0.886777407 1.07867126,6.94262894 1.07867126,17.9997579 C1.07867126,29.0565901 10.4286495,35.1127384 20.6294165,35.1127384 C30.8302178,35.1127384 40.179955,29.0565901 40.179955,17.9997579 Z M41.2588294,18.0001291 C41.2588294,29.9999362 30.944141,36 20.6294147,36 C10.3147263,36 0,29.9999363 0,18.0001291 C0,6.00013534 10.3147263,0 20.6294147,0 C30.944141,0 41.2588294,6.00013534 41.2588294,18.0001291 Z M39.2784558,17.9997579 C39.2784558,7.46012032 30.3204702,1.7816562 20.6292648,1.7816562 C10.9380243,1.7816562 1.98022372,7.46011983 1.98022372,17.9997579 C1.98022372,28.5395792 10.9382112,34.2177484 20.6294147,34.2177484 C30.3206562,34.2177484 39.2784558,28.5393946 39.2784558,17.9997579 Z" id="Shape" fill="#FFFFFF" fill-rule="nonzero"></path>
                </g>
            </g>
        </g>
    </g>
</svg>