<?xml version="1.0" encoding="UTF-8"?>
<svg width="80px" height="80px" viewBox="0 0 80 80" version="1.1" xmlns="http://www.w3.org/2000/svg" xmlns:xlink="http://www.w3.org/1999/xlink">
    <title>icon-school-binom-02</title>
    <defs>
        <linearGradient x1="101.58598%" y1="4.58076187%" x2="14.8374542%" y2="84.3544937%" id="linearGradient-1">
            <stop stop-color="#007053" offset="0%"></stop>
            <stop stop-color="#409E53" offset="100%"></stop>
        </linearGradient>
    </defs>
    <g id="Design" stroke="none" stroke-width="1" fill="none" fill-rule="evenodd">
        <g id="GreenLine-New:-Школа:-блок-BINOM:-Десктоп" transform="translate(-341.000000, -716.000000)">
            <g id="Group-34" transform="translate(48.000000, 716.000000)">
                <g id="icon-school-binom-02" transform="translate(293.000000, 0.000000)">
                    <rect id="sizer" x="0" y="0" width="80" height="80"></rect>
                    <g id="icon-school-02" transform="translate(10.000000, 10.000000)" fill="url(#linearGradient-1)">
                        <path d="M21.5039062,28.2421875 C23.8567969,28.2421875 26.0653125,29.1547266 27.7224609,30.8116406 L27.7224609,30.8116406 L40.8772266,43.9664062 C42.3583594,45.4475391 42.7725,47.5978125 42.1198828,49.453125 L42.1198828,49.453125 L54.7265625,49.453125 C57.6343359,49.453125 60,51.8187891 60,54.7265625 C60,57.6343359 57.6343359,60 54.7265625,60 L54.7265625,60 L29.5541016,60 L10.1009766,49.453125 L0,49.453125 L0,28.2421875 Z M21.5039062,31.7578125 L12.3046875,31.7578125 L12.3046875,46.6488281 L30.4458984,56.484375 L54.7265625,56.484375 C55.6958203,56.484375 56.484375,55.6958203 56.484375,54.7265625 C56.484375,53.7573047 55.6958203,52.96875 54.7265625,52.96875 L54.7265625,52.96875 L42.6239864,52.9680283 C42.5008425,52.9680111 42.3786956,52.9679935 42.2576628,52.9679755 L38.3599258,52.9670394 C38.2876814,52.9670088 38.2180758,52.9669777 38.1512263,52.9669461 L37.136052,52.9660749 C37.1055592,52.9659926 37.0898438,52.9659078 37.0898438,52.9658203 C35.7590625,52.9512891 34.4328516,52.4374219 33.4196484,51.4242187 L33.4196484,51.4242187 L20.2691016,38.2737891 L22.755,35.7878906 L35.9054297,48.9382031 C36.5909766,49.6236328 37.7060156,49.6236328 38.3913281,48.9382031 C39.0767578,48.2528906 39.0767578,47.1377344 38.3913281,46.4523047 L38.3913281,46.4523047 L25.2366797,33.2976562 C24.2435156,32.3047266 22.9178906,31.7578125 21.5039062,31.7578125 L21.5039062,31.7578125 Z M8.7890625,31.7578125 L3.515625,31.7578125 L3.515625,45.9375 L8.7890625,45.9375 L8.7890625,31.7578125 Z M42.890625,0 C52.3248047,0 60,7.67519531 60,17.109375 C60,26.5435547 52.3248047,34.21875 42.890625,34.21875 C33.4564453,34.21875 25.78125,26.5435547 25.78125,17.109375 C25.78125,7.67519531 33.4564453,0 42.890625,0 Z M42.890625,3.515625 C35.3949609,3.515625 29.296875,9.61382813 29.296875,17.109375 C29.296875,24.6049219 35.3949609,30.703125 42.890625,30.703125 C50.3862891,30.703125 56.484375,24.6049219 56.484375,17.109375 C56.484375,9.61382812 50.3862891,3.515625 42.890625,3.515625 Z M42.890625,7.03125 C48.4477734,7.03125 52.96875,11.5523437 52.96875,17.109375 C52.96875,22.6664063 48.4477734,27.1875 42.890625,27.1875 C37.3334766,27.1875 32.8125,22.6664063 32.8125,17.109375 C32.8125,11.5523438 37.3334766,7.03125 42.890625,7.03125 Z M42.890625,10.546875 C39.2719922,10.546875 36.328125,13.4908594 36.328125,17.109375 C36.328125,20.7278906 39.2719922,23.671875 42.890625,23.671875 C46.5092578,23.671875 49.453125,20.7278906 49.453125,17.109375 C49.453125,13.4908594 46.5092578,10.546875 42.890625,10.546875 Z M44.6484375,14.0625 L44.6484375,20.15625 L41.1328125,20.15625 L41.1328125,14.0625 L44.6484375,14.0625 Z" id="Combined-Shape"></path>
                    </g>
                </g>
            </g>
        </g>
    </g>
</svg>