<svg width="24" height="20" xmlns="http://www.w3.org/2000/svg">
    <path d="M11.766 7.5c.388 0 .703.315.703.703v.235a2.344 2.344 0 0 1-2.344 2.343H8.953a.703.703 0 0 0-.703.703v.938c0 .4.333.721.737.702a.716.716 0 0 0 .67-.722v-.214h.937a3.285 3.285 0 0 0 2.964-1.876h.024a2.97 2.97 0 0 0 1.582-.454 2.97 2.97 0 0 0 1.582.454 2.97 2.97 0 0 0 1.582-.454v2.564a3.522 3.522 0 0 1-2.812 3.445v2.649a.703.703 0 0 1-.704.703H9.189a.703.703 0 0 1-.704-.703V15.93a3.52 3.52 0 0 1-3.28-3.508V9.375c0-1.036.839-1.875 1.874-1.875zM2.156 0c.389 0 .703.315.703.703V3.75h1.407v3.281H2.859v3.047a.703.703 0 0 1-.703.703H.703A.703.703 0 0 1 0 10.078V.703C0 .315.315 0 .703 0zm21.14 0c.39 0 .704.315.704.703v9.375a.703.703 0 0 1-.703.703h-1.453a.703.703 0 0 1-.703-.703V7.031h-1.407V3.75h1.407V.703c0-.388.314-.703.703-.703zm-6.55 1.875c.874 0 1.582.708 1.582 1.582v3.867a1.582 1.582 0 1 1-3.164 0c0 .783-.569 1.433-1.315 1.56.017-.147.026-.296.026-.447v-.234a2.112 2.112 0 0 0-2.11-2.11H7.079c-.503 0-.98.115-1.406.318V3.457a1.582 1.582 0 1 1 3.164 0 1.582 1.582 0 1 1 3.164 0 1.582 1.582 0 1 1 3.164 0c0-.874.708-1.582 1.582-1.582z" fill="#F7FCFF" fill-rule="nonzero"/>
</svg>
