<svg width="30" height="30" viewBox="0 0 30 30" fill="none" xmlns="http://www.w3.org/2000/svg">
<path d="M22.0711 20.8926L9.10743 7.92893C8.78199 7.60349 8.25435 7.60349 7.92892 7.92893C7.60348 8.25437 7.60348 8.78201 7.92892 9.10744L20.8925 22.0711C21.218 22.3965 21.7456 22.3965 22.0711 22.0711C22.3965 21.7456 22.3965 21.218 22.0711 20.8926Z" fill="white"/>
<path d="M22.0711 9.10744C22.3965 8.78201 22.3965 8.25437 22.0711 7.92893C21.7456 7.60349 21.218 7.60349 20.8925 7.92893L7.92892 20.8926C7.60348 21.218 7.60348 21.7456 7.92892 22.0711C8.25435 22.3965 8.78199 22.3965 9.10743 22.0711L22.0711 9.10744Z" fill="white"/>
</svg>
