<?xml version="1.0" encoding="UTF-8"?>
<svg width="32px" height="32px" viewBox="0 0 32 32" version="1.1" xmlns="http://www.w3.org/2000/svg" xmlns:xlink="http://www.w3.org/1999/xlink">
    <title>icon-social_02</title>
    <g id="Design" stroke="none" stroke-width="1" fill="none" fill-rule="evenodd">
        <g id="GreenLine-New:-Главная:-Десктоп" transform="translate(-1366.000000, -11829.000000)" fill="#FFFFFF">
            <g id="Group-26" transform="translate(0.000000, 10958.000000)">
                <g id="social" transform="translate(1136.000000, 871.000000)">
                    <g id="soc-icon-2" transform="translate(230.000000, 0.000000)">
                        <path d="M11.4,24.3646628 C20.5,24.3646628 25.4,16.8646628 25.4,10.3646628 L25.4,9.76466275 C26.4,9.06466275 27.2,8.16466275 27.9,7.26466275 C27,7.66466275 26,7.96466275 25.1,8.06466275 C26.1,7.46466275 26.9,6.46466275 27.3,5.36466275 C26.3,5.96466275 25.3,6.36466275 24.2,6.56466275 C22.3,4.56466275 19.2,4.46466275 17.2,6.36466275 C15.9,7.56466275 15.4,9.36466275 15.8,11.0646628 C11.8,10.6646628 8.1,8.86466275 5.6,5.76466275 C4.3,7.96466275 4.9,10.8646628 7.1,12.3646628 C6.3,12.2646628 5.5,12.0646628 4.9,11.7646628 L4.9,11.8646628 C4.9,14.1646628 6.6,16.2646628 8.9,16.6646628 C8.2,16.8646628 7.4,16.8646628 6.7,16.7646628 C7.3,18.7646628 9.2,20.1646628 11.3,20.1646628 C9.6,21.5646628 7.4,22.2646628 5.2,22.2646628 C4.8,22.2646628 4.4,22.2646628 4,22.1646628 C6.2,23.5646628 8.8,24.3646628 11.4,24.3646628" id="Path"></path>
                    </g>
                </g>
            </g>
        </g>
    </g>
</svg>