<?xml version="1.0" encoding="UTF-8"?>
<svg width="32px" height="32px" viewBox="0 0 32 32" version="1.1" xmlns="http://www.w3.org/2000/svg" xmlns:xlink="http://www.w3.org/1999/xlink">
    <title>icon-social_04</title>
    <g id="Design" stroke="none" stroke-width="1" fill="none" fill-rule="evenodd">
        <g id="GreenLine-New:-Главная:-Десктоп" transform="translate(-1182.000000, -11829.000000)" fill="#FFFFFF">
            <g id="Group-26" transform="translate(0.000000, 10958.000000)">
                <g id="social" transform="translate(1136.000000, 871.000000)">
                    <g id="soc-icon-4" transform="translate(46.000000, 0.000000)">
                        <path d="M16,14.356659 C19.3160534,14.4720675 22.1041216,11.9360925 22.2392022,8.68159672 C22.1056184,5.42601195 19.3171028,2.88840112 16,3.00378488 C12.6826488,2.88838935 9.89373023,5.42579732 9.75939735,8.68159672 C9.89447355,11.9366481 12.683409,14.4728427 16,14.356659 Z M16,6.33073515 C17.3736223,6.28272134 18.5285078,7.33344434 18.583912,8.68159672 C18.5277594,10.0292046 17.3730977,11.0791097 16,11.0310835 C14.6263777,11.0790973 13.4714922,10.0283743 13.416088,8.68022194 C13.4722406,7.33261406 14.6269023,6.28270895 16,6.33073515 Z M22.0165236,22.163994 C22.3562353,22.4634561 22.5499362,22.8907745 22.5491343,23.3389719 C22.5483323,23.7871694 22.3531034,24.2138171 22.0123221,24.512106 L22.0109216,24.5134808 C21.2769072,25.1621731 20.1624245,25.1621731 19.4284101,24.5134808 L15.9985995,21.3941212 L12.5715899,24.512106 C11.8366544,25.1611819 10.721213,25.1611819 9.98627743,24.512106 C9.64590045,24.2127293 9.45140104,23.7853024 9.45140104,23.3366752 C9.45140104,22.8880481 9.64590045,22.4606211 9.98627743,22.1612444 L13.4735083,18.9855192 C12.1999822,18.7232149 10.9773401,18.2628183 9.85182997,17.6217445 C9.44865805,17.4079936 9.15630336,17.0369228 9.04692785,16.6001236 C8.93755234,16.1633243 9.02134646,15.701493 9.27762731,15.3286234 L9.28042829,15.3272486 C9.8571781,14.5420617 10.9474423,14.3158707 11.7985171,14.804835 C14.4006716,16.2662925 17.5965274,16.2662925 20.1986819,14.804835 L20.2014829,14.804835 C21.0535314,14.3144532 22.145809,14.5414057 22.7223727,15.3286234 C22.9786535,15.701493 23.0624477,16.1633243 22.9530722,16.6001236 C22.8436966,17.0369228 22.551342,17.4079936 22.14817,17.6217445 C21.021963,18.2637406 19.7983214,18.7246216 18.5236907,18.9868939 L22.0109216,22.1612444 L22.0165236,22.163994 Z" id="Shape"></path>
                    </g>
                </g>
            </g>
        </g>
    </g>
</svg>