<?xml version="1.0" encoding="UTF-8"?>
<svg width="80px" height="80px" viewBox="0 0 80 80" version="1.1" xmlns="http://www.w3.org/2000/svg" xmlns:xlink="http://www.w3.org/1999/xlink">
    <title>icon-school-binom-04</title>
    <defs>
        <linearGradient x1="101.58598%" y1="23.6470561%" x2="14.8374542%" y2="69.9330082%" id="linearGradient-1">
            <stop stop-color="#007053" offset="0%"></stop>
            <stop stop-color="#409E53" offset="100%"></stop>
        </linearGradient>
    </defs>
    <g id="Design" stroke="none" stroke-width="1" fill="none" fill-rule="evenodd">
        <g id="GreenLine-New:-Школа:-блок-BINOM:-Десктоп" transform="translate(-793.000000, -716.000000)">
            <g id="Group-34" transform="translate(48.000000, 716.000000)">
                <g id="icon-school-binom-04" transform="translate(745.000000, 0.000000)">
                    <rect id="sizer" x="0" y="0" width="80" height="80"></rect>
                    <g id="computer" transform="translate(6.000000, 14.000000)" fill="url(#linearGradient-1)">
                        <path d="M64.015625,0 C66.2127381,0 68,1.78726193 68,3.984375 L68,3.984375 L68,35.859375 C68,38.0564881 66.2127381,39.84375 64.015625,39.84375 L64.015625,39.84375 L50.0703125,39.84375 L50.0703125,47.8125 L54.0546875,47.8125 C55.1550598,47.8125 56.046875,48.7043152 56.046875,49.8046875 C56.046875,50.9050598 55.1550598,51.796875 54.0546875,51.796875 L54.0546875,51.796875 L30.1484375,51.796875 C29.0480652,51.796875 28.15625,50.9050598 28.15625,49.8046875 C28.15625,48.7043152 29.0480652,47.8125 30.1484375,47.8125 L30.1484375,47.8125 L34.1328125,47.8125 L34.1328125,39.84375 L23.90625,39.84375 L23.90625,49.8046875 C23.90625,50.9050598 23.0144348,51.796875 21.9140625,51.796875 L21.9140625,51.796875 L1.9921875,51.796875 C0.891815219,51.796875 0,50.9050598 0,49.8046875 L0,49.8046875 L0,5.9765625 C0,4.87619022 0.891815219,3.984375 1.9921875,3.984375 L1.9921875,3.984375 L16.203125,3.984375 C16.203125,1.78726193 17.9903869,0 20.1875,0 L20.1875,0 Z M16.203125,23.90625 L3.984375,23.90625 L3.984375,47.8125 L19.921875,47.8125 L19.921875,39.8338928 C17.8482361,39.6964111 16.203125,37.9667359 16.203125,35.859375 L16.203125,35.859375 L16.203125,23.90625 Z M46.0859375,39.84375 L38.1171875,39.84375 L38.1171875,47.8125 L46.0859375,47.8125 L46.0859375,39.84375 Z M11.953125,41.3046875 C13.0534973,41.3046875 13.9453125,42.1965027 13.9453125,43.296875 C13.9453125,44.3972473 13.0534973,45.2890625 11.953125,45.2890625 C10.8527527,45.2890625 9.9609375,44.3972473 9.9609375,43.296875 C9.9609375,42.1965027 10.8527527,41.3046875 11.953125,41.3046875 Z M64.015625,3.984375 L20.1875,3.984375 L20.1875,35.859375 L64.015625,35.859375 L64.015625,3.984375 Z M16.203125,15.9375 L3.984375,15.9375 L3.984375,19.921875 L16.203125,19.921875 L16.203125,15.9375 Z M16.203125,7.96875 L3.984375,7.96875 L3.984375,11.953125 L16.203125,11.953125 L16.203125,7.96875 Z" id="Combined-Shape"></path>
                    </g>
                </g>
            </g>
        </g>
    </g>
</svg>