<?xml version="1.0" encoding="UTF-8"?>
<svg width="80px" height="80px" viewBox="0 0 80 80" version="1.1" xmlns="http://www.w3.org/2000/svg" xmlns:xlink="http://www.w3.org/1999/xlink">
    <title>icon-school-binom-01</title>
    <defs>
        <linearGradient x1="101.58598%" y1="4.58076187%" x2="14.8374542%" y2="84.3544937%" id="linearGradient-1">
            <stop stop-color="#007053" offset="0%"></stop>
            <stop stop-color="#409E53" offset="100%"></stop>
        </linearGradient>
    </defs>
    <g id="Design" stroke="none" stroke-width="1" fill="none" fill-rule="evenodd">
        <g id="GreenLine-New:-Школа:-блок-BINOM:-Десктоп" transform="translate(-115.000000, -716.000000)">
            <g id="Group-34" transform="translate(48.000000, 716.000000)">
                <g id="icon-school-binom-01" transform="translate(67.000000, 0.000000)">
                    <rect id="sizer" x="0" y="0" width="80" height="80"></rect>
                    <g id="approve" transform="translate(8.000000, 8.000000)" fill="url(#linearGradient-1)">
                        <path d="M49.625,0 C50.12225,0 50.599125,0.197625 50.95075,0.54925 L50.95075,0.54925 L63.45075,13.04925 C63.802375,13.400875 64,13.87775 64,14.375 L64,14.375 L64,62.125 C64,63.1605 63.1605,64 62.125,64 L62.125,64 L4.375,64 C3.3395,64 2.5,63.1605 2.5,62.125 L2.5,62.125 L2.5,56.5 L1.875,56.5 C0.8395,56.5 0,55.6605 0,54.625 L0,54.625 L0,52.125 C0,48.334125 3.084125,45.25 6.875,45.25 L6.875,45.25 L9.661625,45.25 L7.731,33.66625 C7.57775,32.746625 7.5,31.8075 7.5,30.875 C7.5,26.394875 11.144875,22.75 15.625,22.75 C16.36025,22.75 17.07225,22.849875 17.75,23.03375 L17.75,23.03375 L17.75,1.875 C17.75,0.8395 18.5895,0 19.625,0 L19.625,0 Z M25,56.5 L6.25,56.5 L6.25,60.25 L25,60.25 L25,56.5 Z M47.75,3.75 L21.5,3.75 L21.5,25.271375 C22.89225,26.730375 23.75,28.70375 23.75,30.875 C23.75,31.8075 23.67225,32.746625 23.519,33.66625 L23.519,33.66625 L21.588375,45.25 L24.375,45.25 C28.165875,45.25 31.25,48.334125 31.25,52.125 L31.25,52.125 L31.25,54.625 C31.25,55.6605 30.4105,56.5 29.375,56.5 L29.375,56.5 L28.75,56.5 L28.75,60.25 L60.25,60.25 L60.25,16.25 L49.625,16.25 C48.5895,16.25 47.75,15.4105 47.75,14.375 L47.75,14.375 L47.75,3.75 Z M54.625,51.25 C55.6605,51.25 56.5,52.0895 56.5,53.125 C56.5,54.1605 55.6605,55 54.625,55 L54.625,55 L42.125,55 C41.0895,55 40.25,54.1605 40.25,53.125 C40.25,52.0895 41.0895,51.25 42.125,51.25 L42.125,51.25 Z M24.375,49 L6.875,49 C5.151875,49 3.75,50.401875 3.75,52.125 L3.75,52.125 L3.75,52.75 L27.5,52.75 L27.5,52.125 C27.5,50.401875 26.098125,49 24.375,49 L24.375,49 Z M54.625,43.75 C55.6605,43.75 56.5,44.5895 56.5,45.625 C56.5,46.6605 55.6605,47.5 54.625,47.5 L54.625,47.5 L42.125,47.5 C41.0895,47.5 40.25,46.6605 40.25,45.625 C40.25,44.5895 41.0895,43.75 42.125,43.75 L42.125,43.75 Z M15.625,26.5 C13.212625,26.5 11.25,28.462625 11.25,30.875 C11.25,31.6015 11.3105,32.33325 11.43,33.049625 L11.43,33.049625 L13.463375,45.25 L17.786625,45.25 L19.82,33.04975 C19.9395,32.33325 20,31.6015 20,30.875 C20,28.462625 18.037375,26.5 15.625,26.5 Z M54.625,36.25 C55.6605,36.25 56.5,37.0895 56.5,38.125 C56.5,39.1605 55.6605,40 54.625,40 L54.625,40 L29.625,40 C28.5895,40 27.75,39.1605 27.75,38.125 C27.75,37.0895 28.5895,36.25 29.625,36.25 L29.625,36.25 Z M54.625,28.75 C55.6605,28.75 56.5,29.5895 56.5,30.625 C56.5,31.6605 55.6605,32.5 54.625,32.5 L54.625,32.5 L29.625,32.5 C28.5895,32.5 27.75,31.6605 27.75,30.625 C27.75,29.5895 28.5895,28.75 29.625,28.75 L29.625,28.75 Z M54.625,21.25 C55.6605,21.25 56.5,22.0895 56.5,23.125 C56.5,24.1605 55.6605,25 54.625,25 L54.625,25 L44.625,25 C43.5895,25 42.75,24.1605 42.75,23.125 C42.75,22.0895 43.5895,21.25 44.625,21.25 L44.625,21.25 Z M32.75,7.5 C36.8855,7.5 40.25,10.8645 40.25,15 C40.25,19.1355 36.8855,22.5 32.75,22.5 C28.6145,22.5 25.25,19.1355 25.25,15 C25.25,10.8645 28.6145,7.5 32.75,7.5 Z M32.75,11.25 C30.68225,11.25 29,12.93225 29,15 C29,17.06775 30.68225,18.75 32.75,18.75 C34.81775,18.75 36.5,17.06775 36.5,15 C36.5,12.93225 34.81775,11.25 32.75,11.25 Z M51.5,6.401625 L51.5,12.5 L57.598375,12.5 L51.5,6.401625 Z" id="Combined-Shape"></path>
                    </g>
                </g>
            </g>
        </g>
    </g>
</svg>