<?xml version="1.0" encoding="UTF-8"?>
<svg width="16px" height="24px" viewBox="0 0 16 24" version="1.1" xmlns="http://www.w3.org/2000/svg" xmlns:xlink="http://www.w3.org/1999/xlink">
    <title>icon-mobile_phone</title>
    <g id="Design" stroke="none" stroke-width="1" fill="none" fill-rule="evenodd">
        <g id="GreenLine-New:-Страница-ЖК:-Десктоп" transform="translate(-52.000000, -12579.000000)" fill="#FFFFFF" fill-rule="nonzero">
            <g id="Group-26" transform="translate(0.000000, 11859.000000)">
                <g id="Group-82" transform="translate(48.000000, 80.000000)">
                    <g id="Group-5" transform="translate(0.000000, 499.000000)">
                        <g id="Group-40" transform="translate(4.698914, 133.000000)">
                            <g id="icon-mobile_phone" transform="translate(-0.000000, 8.000000)">
                                <path d="M13.8774169,0.712548571 C13.3960797,0.237340571 12.8255203,0 12.1665497,0 L2.43347076,0 C1.77429153,0 1.20405654,0.237538286 0.722445975,0.712548571 C0.240837727,1.18729143 0,1.74990857 0,2.39987429 L0,21.6 C0,22.2499429 0.240837727,22.8124571 0.722445975,23.2873143 C1.20405654,23.7624 1.77429153,24 2.43347076,24 L12.1665497,24 C12.8255203,24 13.3961956,23.7621714 13.877301,23.2873143 C14.3589857,22.8124571 14.599886,22.2499429 14.599886,21.6 L14.599886,2.39987429 C14.599886,1.74990857 14.3593333,1.18755429 13.8774169,0.712548571 Z M5.77922713,2.39987429 L8.82116408,2.39987429 C9.02397687,2.39987429 9.12512255,2.49989714 9.12512255,2.69993143 C9.12512255,2.89990857 9.02390734,3.00005714 8.82116408,3.00005714 L5.77922713,3.00005714 C5.57648386,3.00005714 5.47507164,2.89990857 5.47507164,2.69993143 C5.47500215,2.49989714 5.57641434,2.39987429 5.77922713,2.39987429 Z M8.37443828,22.6594286 C8.07641252,22.9529143 7.71844557,23.0998857 7.30009711,23.0998857 C6.88194564,23.0998857 6.52397869,22.9529143 6.22608038,22.6594286 C5.92818208,22.3653714 5.77922713,22.0121143 5.77922713,21.6 C5.77922713,21.1873143 5.92837906,20.8342857 6.22608038,20.5404571 C6.5237817,20.2469714 6.88201516,20.0995429 7.30009711,20.0995429 C7.71851509,20.0995429 8.07647045,20.2469714 8.37443828,20.5404571 C8.67227865,20.8342857 8.82109455,21.1873143 8.82109455,21.6 C8.82109455,22.0125714 8.67208167,22.3654857 8.37443828,22.6594286 Z M12.7752314,18.6001143 C12.7752314,18.7624 12.7150932,18.9035429 12.5944692,19.0220571 C12.4738453,19.1406857 12.331553,19.1997714 12.1670131,19.1997714 L2.43347076,19.1997714 C2.26874548,19.1997714 2.12618673,19.1404571 2.00580611,19.0220571 C1.88541389,18.9035429 1.82521779,18.7624 1.82521779,18.6001143 L1.82521779,5.40019429 C1.82521779,5.23772571 1.88534437,5.09698286 2.00580611,4.97837714 C2.12625625,4.85984 2.26874548,4.80014857 2.43347076,4.80014857 L12.1665497,4.80014857 C12.331553,4.80014857 12.4739611,4.85957714 12.5944692,4.97837714 C12.7150932,5.09705143 12.7749996,5.23772571 12.7749996,5.40019429 L12.7749996,18.6001143 L12.7752314,18.6001143 L12.7752314,18.6001143 Z" id="Shape"></path>
                            </g>
                        </g>
                    </g>
                </g>
            </g>
        </g>
    </g>
</svg>