<?xml version="1.0" encoding="UTF-8"?>
<svg width="14px" height="14px" viewBox="0 0 14 14" version="1.1" xmlns="http://www.w3.org/2000/svg" xmlns:xlink="http://www.w3.org/1999/xlink">
    <title>zoom-in</title>
    <defs>
        <linearGradient x1="101.58598%" y1="4.58076187%" x2="14.8374542%" y2="84.3544937%" id="linearGradient-1">
            <stop stop-color="#007053" offset="0%"></stop>
            <stop stop-color="#409E53" offset="100%"></stop>
        </linearGradient>
    </defs>
    <g id="Design" stroke="none" stroke-width="1" fill="none" fill-rule="evenodd">
        <g id="GreenLine-New:-Главная:-Десктоп" transform="translate(-1271.000000, -10227.000000)" fill="url(#linearGradient-1)">
            <g id="Group-45" transform="translate(48.000000, 10010.000000)">
                <g id="Group-66" transform="translate(0.000000, 181.000000)">
                    <g id="Group" transform="translate(1209.000000, 26.000000)">
                        <g id="zoom-in" transform="translate(14.000000, 10.000000)">
                            <path d="M6.33333333,0 C9.83113675,0 12.6666667,2.83552992 12.6666667,6.33333333 C12.6666667,7.72103689 12.2203564,9.0044991 11.4634469,10.048009 L13.7071068,12.2928932 C14.0976311,12.6834175 14.0976311,13.3165825 13.7071068,13.7071068 C13.3466228,14.0675907 12.7793918,14.0953203 12.3871006,13.7902954 L12.2928932,13.7071068 L10.048009,11.4634469 C9.0044991,12.2203564 7.72103689,12.6666667 6.33333333,12.6666667 C2.83552992,12.6666667 0,9.83113675 0,6.33333333 C0,2.83552992 2.83552992,0 6.33333333,0 Z M6.33333333,2 C3.94009942,2 2,3.94009942 2,6.33333333 C2,8.72656725 3.94009942,10.6666667 6.33333333,10.6666667 C7.50149507,10.6666667 8.56169683,10.2044351 9.34101504,9.45289541 C9.3558693,9.43141161 9.37392038,9.41186606 9.39289322,9.39289322 L9.45289541,9.34101504 C10.2044351,8.56169683 10.6666667,7.50149507 10.6666667,6.33333333 C10.6666667,3.94009942 8.72656725,2 6.33333333,2 Z M6.33333333,3.33333333 C6.84616917,3.33333333 7.26884049,3.71937352 7.3266056,4.21671221 L7.33333333,4.33333333 L7.333,5.333 L8.33333333,5.33333333 C8.88561808,5.33333333 9.33333333,5.78104858 9.33333333,6.33333333 C9.33333333,6.84616917 8.94729314,7.26884049 8.44995446,7.3266056 L8.33333333,7.33333333 L7.333,7.333 L7.33333333,8.33333333 C7.33333333,8.88561808 6.88561808,9.33333333 6.33333333,9.33333333 C5.82049749,9.33333333 5.39782617,8.94729314 5.34006106,8.44995446 L5.33333333,8.33333333 L5.333,7.333 L4.33333333,7.33333333 C3.78104858,7.33333333 3.33333333,6.88561808 3.33333333,6.33333333 C3.33333333,5.82049749 3.71937352,5.39782617 4.21671221,5.34006106 L4.33333333,5.33333333 L5.333,5.333 L5.33333333,4.33333333 C5.33333333,3.78104858 5.78104858,3.33333333 6.33333333,3.33333333 Z" id="Combined-Shape"></path>
                        </g>
                    </g>
                </g>
            </g>
        </g>
    </g>
</svg>