<?xml version="1.0" encoding="UTF-8"?>
<svg width="32px" height="32px" viewBox="0 0 32 32" version="1.1" xmlns="http://www.w3.org/2000/svg" xmlns:xlink="http://www.w3.org/1999/xlink">
    <title>icon-social_03</title>
    <g id="Design" stroke="none" stroke-width="1" fill="none" fill-rule="evenodd">
        <g id="GreenLine-New:-Главная:-Десктоп" transform="translate(-1136.000000, -11829.000000)" fill="#FFFFFF">
            <g id="Group-26" transform="translate(0.000000, 10958.000000)">
                <g id="soc-icon-3" transform="translate(1136.000000, 871.000000)">
                    <path d="M26.8823629,23.7455995 C26.8601761,23.6947388 26.835392,23.6451686 26.8081183,23.5971043 C26.2063512,22.6166988 25.4696949,21.7349421 24.6220296,20.9804179 L24.5986563,20.955909 L24.5862822,20.9443754 L24.575283,20.9328418 L24.5629089,20.9328418 C24.2387852,20.6258187 23.9295052,20.3019929 23.6362273,19.9625773 C23.4078645,19.7031949 23.3449844,19.3278716 23.4753641,19.0024048 C23.7656651,18.448441 24.1113341,17.928426 24.5065381,17.451135 C24.8190984,17.0330419 25.0670384,16.6976062 25.2503582,16.4448281 C26.5720941,14.6292465 27.1449685,13.4691582 26.9689815,12.964563 L26.9002365,12.8463436 C26.8037153,12.7447475 26.6799923,12.6763604 26.5455127,12.6502723 C26.3056124,12.5887923 26.0563113,12.5789832 25.8126918,12.6214383 L22.5129351,12.6445055 C22.4377274,12.6250592 22.3589291,12.6270502 22.2847019,12.6502723 L22.1362129,12.6863148 L22.0784671,12.7151488 L22.0330955,12.7511913 C21.9843201,12.7850003 21.9415197,12.8274411 21.9066048,12.8766193 C21.8590807,12.9390649 21.8206258,13.0085377 21.7924882,13.0827824 C21.4496178,14.0026124 21.0395987,14.8933415 20.5660787,15.747045 C20.2837662,16.2372232 20.0243686,16.6615637 19.7878861,17.0200666 C19.6105228,17.3010558 19.411407,17.5662626 19.192555,17.8130018 C19.0566476,17.9596272 18.9110019,18.0959691 18.7567121,18.2210031 C18.626555,18.3238444 18.5275623,18.3670954 18.459734,18.3507561 C18.3944665,18.3362712 18.3293824,18.3208917 18.2644984,18.3046217 C18.1561933,18.2327064 18.0672167,18.1329552 18.0060175,18.0148399 C17.9351817,17.871047 17.8908675,17.7145255 17.8754021,17.5534958 C17.8524871,17.3670358 17.8387381,17.2070071 17.8341552,17.0734095 C17.8314054,16.9388508 17.8336969,16.7495074 17.8410296,16.5053795 C17.8479041,16.2602904 17.8520288,16.0944948 17.8520288,16.0079928 C17.8520288,15.7081191 17.8575284,15.3822948 17.8685276,15.0305198 L17.8974005,14.1957752 C17.9047333,13.9900926 17.908858,13.7728764 17.9097746,13.5441266 C17.9132164,13.3638796 17.8993981,13.1837255 17.8685276,13.0063723 C17.8420453,12.8757636 17.8019316,12.7486086 17.7489114,12.6272051 C17.6998708,12.5101336 17.6184466,12.4111928 17.5151787,12.3431901 C17.3955839,12.2691539 17.2656945,12.2151602 17.1302071,12.1831613 C16.6213643,12.0770283 16.1036267,12.0248642 15.584821,12.0274577 C14.6634705,11.9471415 13.7358726,12.0433823 12.8473979,12.3114727 C12.6827975,12.4015941 12.5351314,12.5222428 12.4115551,12.6675727 C12.2740652,12.8405767 12.2548166,12.9352484 12.3538093,12.9515877 C12.7301187,12.9779571 13.0806878,13.1612389 13.3272375,13.460508 L13.3959825,13.6017946 C13.471488,13.7755359 13.5255454,13.9586687 13.5568456,14.1467574 C13.6133677,14.4317169 13.6478523,14.7209971 13.659963,15.0117777 C13.6982729,15.5040211 13.6982729,15.9987191 13.659963,16.4909625 C13.6214658,16.9013665 13.5848019,17.2214241 13.5499711,17.451135 C13.5259592,17.6433101 13.4740279,17.8304972 13.3959825,18.0061897 C13.3554331,18.0961185 13.3095118,18.1832743 13.2584926,18.2671375 C13.2437188,18.2906448 13.2245398,18.3107557 13.2021218,18.3262472 C13.1032989,18.3655449 12.9984598,18.3855771 12.8927696,18.385357 C12.7504028,18.3711652 12.6151265,18.3135234 12.5036733,18.2195614 C12.3285205,18.0879085 12.1688387,17.9349863 12.0279583,17.763984 C11.821898,17.5098497 11.6361188,17.2383755 11.4724993,16.9523066 C11.2662645,16.6062985 11.0522386,16.1958944 10.8304217,15.7210944 L10.6475601,15.3779697 C10.5329853,15.1569089 10.3767051,14.8349291 10.1787197,14.4120303 C9.97981772,13.9910538 9.8038307,13.582572 9.65075866,13.1865849 C9.59879905,13.0337494 9.50267651,12.9017108 9.37577894,12.8088593 L9.31940809,12.7742585 C9.26253317,12.7322049 9.20057813,12.6982678 9.13517168,12.6733395 C9.05060818,12.6377411 8.96253174,12.6121136 8.87256605,12.5969294 L5.73367253,12.6214383 C5.49576822,12.5910665 5.2573402,12.6735231 5.08334549,12.8463436 L5.03522404,12.9169869 C5.00842237,12.9757783 4.99658127,13.0408404 5.00085158,13.1058496 C5.00549584,13.2159645 5.02877302,13.3243367 5.06959651,13.4259072 C5.52789604,14.5389 6.02606764,15.6124863 6.56411129,16.6466661 C7.10307154,17.680846 7.57053707,18.5136683 7.96650787,19.1451331 C8.36431186,19.776598 8.76944865,20.3725008 9.18191823,20.9328418 C9.59438781,21.4931827 9.86707604,21.8521661 9.9999829,22.0097921 C10.1338064,22.1683791 10.2392153,22.2865986 10.3162096,22.3644504 L10.6021885,22.6499071 C10.8542357,22.8980224 11.1240477,23.1255161 11.409254,23.3303897 C11.7896548,23.6115532 12.1833792,23.8723538 12.588917,24.1117914 C13.0641139,24.3863423 13.5703937,24.5970468 14.0958058,24.7389311 C14.639522,24.8975686 15.2039783,24.9637659 15.7676825,24.9350024 L17.0848354,24.9350024 C17.3109669,24.9299174 17.5273567,24.8375132 17.6925406,24.6754963 L17.7379122,24.6149449 C17.7769284,24.5469424 17.8056827,24.473023 17.823156,24.3958064 C17.8512363,24.289727 17.8651181,24.1800696 17.8644029,24.0699821 C17.8537369,23.7623882 17.8782006,23.4545607 17.9372725,23.1530606 C17.9752857,22.939486 18.0409727,22.7323652 18.1325081,22.5374545 C18.1981867,22.409399 18.2810689,22.2919017 18.378615,22.1885629 C18.4363006,22.1223016 18.5019246,22.0641503 18.5738506,22.0155589 C18.6032482,22.0000916 18.6335576,21.9866083 18.6645939,21.9751912 C18.8959789,21.9232294 19.1370638,21.9913937 19.3121712,22.1582872 C19.571855,22.3555343 19.806555,22.5866194 20.0106196,22.8459784 C20.2287702,23.1179792 20.4904593,23.4236197 20.7956867,23.7628999 C21.0378123,24.0433664 21.3063674,24.2974372 21.5972526,24.5212344 L21.8268607,24.662521 C22.015132,24.7727307 22.2148951,24.8598079 22.4221918,24.9220271 C22.627555,24.9981472 22.8478608,25.0189679 23.0628945,24.9825785 L25.9955533,24.9350024 C26.2290688,24.9479625 26.4617657,24.8967766 26.6706285,24.7865073 C26.8029588,24.7216222 26.9060155,24.6052855 26.9579823,24.4621246 C26.9887669,24.329715 26.9906469,24.1917262 26.9634819,24.0584485 C26.9475323,23.9513467 26.920327,23.846425 26.8823629,23.7455995 L26.8823629,23.7455995 Z" id="Path"></path>
                </g>
            </g>
        </g>
    </g>
</svg>