<?xml version="1.0" encoding="UTF-8"?>
<svg width="80px" height="80px" viewBox="0 0 80 80" version="1.1" xmlns="http://www.w3.org/2000/svg" xmlns:xlink="http://www.w3.org/1999/xlink">
    <title>icon-school-binom-05</title>
    <defs>
        <linearGradient x1="101.58598%" y1="11.7267239%" x2="14.8374542%" y2="78.9493853%" id="linearGradient-1">
            <stop stop-color="#007053" offset="0%"></stop>
            <stop stop-color="#409E53" offset="100%"></stop>
        </linearGradient>
        <linearGradient x1="94.716028%" y1="4.58076187%" x2="19.5202189%" y2="84.3544937%" id="linearGradient-2">
            <stop stop-color="#007053" offset="0%"></stop>
            <stop stop-color="#409E53" offset="100%"></stop>
        </linearGradient>
    </defs>
    <g id="Design" stroke="none" stroke-width="1" fill="none" fill-rule="evenodd">
        <g id="GreenLine-New:-Школа:-блок-BINOM:-Десктоп" transform="translate(-1019.000000, -716.000000)">
            <g id="Group-34" transform="translate(48.000000, 716.000000)">
                <g id="icon-school-binom-05" transform="translate(971.000000, 0.000000)">
                    <rect id="sizer" x="0" y="0" width="80" height="80"></rect>
                    <g id="icon-school-05" transform="translate(10.000000, 12.000000)">
                        <path d="M51.2109375,0 C46.9665234,0 43.4153906,3.024375 42.5987109,7.03125 L1.7578125,7.03125 C0.78703125,7.03125 0,7.81828125 0,8.7890625 L0,53.3203125 C0,54.2910938 0.78703125,55.078125 1.7578125,55.078125 L51.2109375,55.078125 C56.0572266,55.078125 60,51.1353516 60,46.2890625 L60,8.7890625 C60,3.94277344 56.0572266,0 51.2109375,0 Z M45.9375,8.7890625 C45.9375,5.88128906 48.3031641,3.515625 51.2109375,3.515625 C54.1187109,3.515625 56.484375,5.88128906 56.484375,8.7890625 L56.484375,39.2620313 C55.0144922,38.15625 53.1877734,37.5 51.2109375,37.5 C49.2341016,37.5 47.4073828,38.15625 45.9375,39.2620313 L45.9375,8.7890625 Z M51.2109375,51.5625 L3.515625,51.5625 L3.515625,10.546875 L42.421875,10.546875 L42.421875,46.2890625 C42.421875,47.2598438 43.2089063,48.046875 44.1796875,48.046875 C45.1504688,48.046875 45.9375,47.2598438 45.9375,46.2890625 C45.9375,43.3812891 48.3031641,41.015625 51.2109375,41.015625 C54.1187109,41.015625 56.484375,43.3812891 56.484375,46.2890625 C56.484375,49.1968359 54.1187109,51.5625 51.2109375,51.5625 Z" id="Shape" fill="url(#linearGradient-1)"></path>
                        <path d="M37.03125,14.0625 L8.90625,14.0625 C7.93546875,14.0625 7.1484375,14.8495313 7.1484375,15.8203125 L7.1484375,46.2890625 C7.1484375,47.2598437 7.93546875,48.046875 8.90625,48.046875 L37.03125,48.046875 C38.0020313,48.046875 38.7890625,47.2598437 38.7890625,46.2890625 L38.7890625,15.8203125 C38.7890625,14.8495313 38.0020313,14.0625 37.03125,14.0625 Z M29.4140625,44.53125 L29.4140625,41.6015625 C29.4140625,40.6307812 28.6270313,39.84375 27.65625,39.84375 C26.6854688,39.84375 25.8984375,40.6307812 25.8984375,41.6015625 L25.8984375,44.53125 L10.6640625,44.53125 L10.6640625,31.640625 L16.5234375,31.640625 L16.5234375,35.7421875 C16.5234375,36.7129688 17.3104688,37.5 18.28125,37.5 L21.796875,37.5 C22.7676563,37.5 23.5546875,36.7129688 23.5546875,35.7421875 C23.5546875,34.7714062 22.7676563,33.984375 21.796875,33.984375 L20.0390625,33.984375 L20.0390625,24.0234375 C20.0390625,23.0526563 19.2520313,22.265625 18.28125,22.265625 C17.3104688,22.265625 16.5234375,23.0526563 16.5234375,24.0234375 L16.5234375,28.125 L10.6640625,28.125 L10.6640625,17.578125 L35.2734375,17.578125 L35.2734375,28.125 L31.7578125,28.125 L31.7578125,22.8515625 C31.7578125,21.8807813 30.9707813,21.09375 30,21.09375 L26.484375,21.09375 C25.5135937,21.09375 24.7265625,21.8807813 24.7265625,22.8515625 C24.7265625,23.8223437 25.5135937,24.609375 26.484375,24.609375 L28.2421875,24.609375 L28.2421875,28.125 L25.3125,28.125 C24.3417188,28.125 23.5546875,28.9120312 23.5546875,29.8828125 C23.5546875,30.8535938 24.3417188,31.640625 25.3125,31.640625 L35.2734375,31.640625 L35.2734375,44.53125 L29.4140625,44.53125 Z" id="Shape" fill="url(#linearGradient-2)"></path>
                    </g>
                </g>
            </g>
        </g>
    </g>
</svg>