<svg width="24" height="19" xmlns="http://www.w3.org/2000/svg">
    <g fill="#F7FCFF" fill-rule="nonzero">
        <path d="M15.208 3.667a1.839 1.839 0 0 0 1.834-1.834A1.839 1.839 0 0 0 15.208 0a1.839 1.839 0 0 0-1.833 1.833c0 1.009.825 1.834 1.833 1.834z"/>
        <path d="M5.583 9.625A4.597 4.597 0 0 0 1 14.208a4.597 4.597 0 0 0 4.583 4.584 4.597 4.597 0 0 0 4.584-4.584 4.597 4.597 0 0 0-4.584-4.583zm0 7.792a3.189 3.189 0 0 1-3.208-3.209A3.189 3.189 0 0 1 5.583 11a3.189 3.189 0 0 1 3.209 3.208 3.189 3.189 0 0 1-3.209 3.209z" stroke="#FFF" stroke-width=".4"/>
        <path d="M18.37 8.662V6.83c-1.374 0-2.52-.504-3.345-1.329l-1.787-1.742A1.652 1.652 0 0 0 12 3.208c-.504 0-.963.184-1.283.55L8.196 6.28c-.321.321-.55.78-.55 1.284s.229.962.55 1.329l2.887 2.566v4.584h1.834v-5.73L10.9 8.296l2.154-2.2.688.687c1.145 1.192 2.75 1.88 4.629 1.88z"/>
        <path d="M18.417 9.625a4.597 4.597 0 0 0-4.584 4.583 4.597 4.597 0 0 0 4.584 4.584A4.597 4.597 0 0 0 23 14.208a4.597 4.597 0 0 0-4.583-4.583zm0 7.792a3.189 3.189 0 0 1-3.209-3.209A3.189 3.189 0 0 1 18.417 11a3.189 3.189 0 0 1 3.208 3.208 3.189 3.189 0 0 1-3.208 3.209z" stroke="#FFF" stroke-width=".4"/>
    </g>
</svg>
