<?xml version="1.0" encoding="UTF-8"?>
<svg width="32px" height="32px" viewBox="0 0 32 32" version="1.1" xmlns="http://www.w3.org/2000/svg" xmlns:xlink="http://www.w3.org/1999/xlink">
    <title>icon-social_05</title>
    <g id="Design" stroke="none" stroke-width="1" fill="none" fill-rule="evenodd">
        <g id="GreenLine-New:-Главная:-Десктоп" transform="translate(-1274.000000, -11829.000000)" fill="#FFFFFF">
            <g id="Group-26" transform="translate(0.000000, 10958.000000)">
                <g id="social" transform="translate(1136.000000, 871.000000)">
                    <g id="soc-icon-5" transform="translate(138.000000, 0.000000)">
                        <path d="M22.5162298,6 L10.4837702,6 C8.56005254,6.00076142 7.00076142,7.56005254 7,9.48377024 L7,21.51485 C7.0015205,23.4384765 8.56014456,24.9977178 10.4837702,25 L22.51485,25 C24.4386997,24.9977192 25.9977192,23.4386997 26,21.51485 L26,9.48377024 C25.9984783,7.56036772 24.4396323,6.00152168 22.5162298,6 L22.5162298,6 Z M16.4979304,21.75354 C13.0439943,21.7527781 10.2445724,18.9523267 10.2450803,15.4983905 C10.2455882,12.0444544 13.0458338,9.24482648 16.4997699,9.24508041 C19.9537061,9.24533434 22.75354,12.045374 22.75354,15.4993101 C22.7482199,18.9517584 19.9503797,21.7489814 16.4979304,21.75354 L16.4979304,21.75354 Z M22.9549779,10.5364897 C22.1373595,10.5357274 21.4751668,9.87229888 21.4759283,9.05468055 C21.4766911,8.23706223 22.1401194,7.57486936 22.9577377,7.57563058 C23.775356,7.57639311 24.4375491,8.23982122 24.4367881,9.05743955 C24.4367881,9.8750584 23.7739764,10.5378694 22.9563576,10.5378694 L22.9549779,10.5364897 Z M20.1127735,15.5006899 C20.1135351,17.4955882 18.4969681,19.1133905 16.5020697,19.1141527 C14.5071714,19.1149143 12.8893691,17.4983474 12.8886067,15.5034491 C12.887845,13.5085508 14.5044118,11.8907483 16.4993101,11.8899862 C18.4932641,11.8915054 20.1097308,13.5067377 20.1127735,15.5006899 L20.1127735,15.5006899 Z" id="Shape"></path>
                    </g>
                </g>
            </g>
        </g>
    </g>
</svg>