<svg width="22" height="22" viewBox="0 0 22 22" fill="none" xmlns="http://www.w3.org/2000/svg">
<path d="M6.1876 4.39999H5.50297C5.26467 4.39999 4.87774 4.48774 4.55046 4.838C4.22294 5.18849 3.3 6.03564 3.3 7.75856C3.3 9.48147 4.58028 11.1462 4.75871 11.3801C4.93738 11.6138 7.23005 15.2623 10.8612 16.6659C13.879 17.8324 14.4933 17.6004 15.1481 17.5419C15.8031 17.4838 17.2619 16.695 17.5596 15.8774C17.8573 15.0598 17.8573 14.3589 17.768 14.2125C17.6786 14.0665 17.4403 13.979 17.0832 13.804C16.7258 13.6288 14.9749 12.7673 14.6474 12.6502C14.3199 12.5336 14.0818 12.4752 13.8435 12.826C13.6052 13.176 12.9036 13.9858 12.6951 14.2195C12.4869 14.4534 12.2784 14.4827 11.921 14.3075C11.5637 14.1318 10.4249 13.7555 9.06017 12.5627C7.99792 11.6344 7.26082 10.4506 7.05233 10.1001C6.84408 9.74986 7.03014 9.5603 7.20929 9.38552C7.36983 9.22881 7.58667 9.01438 7.76534 8.81004C7.94377 8.60547 7.99458 8.45955 8.11386 8.22588C8.23289 7.99222 8.17325 7.78765 8.08404 7.61263C7.99458 7.43739 7.309 5.70579 6.99126 5.01324H6.9915C6.72385 4.43002 6.44213 4.41032 6.1876 4.39999Z" fill="white"/>
</svg>
