<?xml version="1.0" encoding="UTF-8"?>
<svg width="18px" height="18px" viewBox="0 0 18 18" version="1.1" xmlns="http://www.w3.org/2000/svg" xmlns:xlink="http://www.w3.org/1999/xlink">
    <title>icon-whatsapp</title>
    <g id="Design" stroke="none" stroke-width="1" fill="none" fill-rule="evenodd">
        <g id="GreenLine-New:-Страница-ЖК:-Десктоп" transform="translate(-68.000000, -10681.000000)" fill="#FFFFFF" fill-rule="nonzero">
            <g id="Group-45" transform="translate(48.000000, 9864.000000)">
                <g id="Group-66" transform="translate(0.000000, 207.000000)">
                    <g id="Group-5" transform="translate(0.000000, 593.000000)">
                        <g id="icon-whatsapp" transform="translate(20.000000, 17.000000)">
                            <path d="M15.3401243,2.6139221 C13.6475641,0.929306039 11.395949,0.000961305469 8.99958727,0 C6.60858648,0 4.35339742,0.927520734 2.64970282,2.61172484 C0.942984093,4.29881288 0.00219937981,6.54084777 0,8.91664123 L0,8.91938781 L0,8.92103576 C0.000274922476,10.3590088 0.378430779,11.8096161 1.09625338,13.1337433 L0.0246055704,18 L4.95162873,16.8803558 C6.19950183,17.5086365 7.5918467,17.8398742 8.99615071,17.8404236 L8.99972472,17.8404236 C11.3903131,17.8404236 13.6455022,16.9127655 15.3494717,15.2284241 C17.0577025,13.5399628 17.9988996,11.3008117 18,8.9235077 C18.0006866,6.56295778 17.0561904,4.3221588 15.3401243,2.6139221 Z M8.99958727,16.4355469 L8.99642565,16.4355469 C7.73549369,16.4349976 6.48610851,16.1187286 5.38353192,15.5206604 L5.15053512,15.3943176 L1.87428399,16.1387787 L2.58592081,12.9076996 L2.44873451,12.6713562 C1.76665183,11.4962311 1.40622848,10.1990204 1.40622848,8.91952516 C1.40884022,4.77809142 4.81485479,1.40487673 8.99931233,1.40487673 C11.0208173,1.40570068 12.9202567,2.18861388 14.3476542,3.60914611 C15.7966331,5.05165099 16.5943206,6.93882752 16.5936338,8.9230957 C16.5919838,13.0654907 13.1852819,16.4355469 8.99958727,16.4355469 Z" id="Shape"></path>
                            <path d="M6.50957616,4.86486486 L6.11962807,4.86486486 C5.98389352,4.86486486 5.76351173,4.91660415 5.57709753,5.12314621 C5.39054747,5.32982663 4.86486486,5.82937342 4.86486486,6.84534456 C4.86486486,7.8613157 5.59408132,8.84297845 5.69571239,8.98090375 C5.79747935,9.11869066 7.10332983,11.270159 9.17154921,12.097849 C10.8904457,12.7856769 11.240312,12.6488584 11.6132763,12.6144117 C11.9863765,12.5801033 12.817224,12.1150032 12.9867903,11.6328872 C13.1563566,11.1507713 13.1563566,10.7374105 13.105541,10.6510862 C13.0545896,10.5650385 12.9188551,10.5134375 12.7154571,10.4102357 C12.5119232,10.3068955 11.5146344,9.79890992 11.3280843,9.72987811 C11.1415342,9.66112299 11.0059356,9.62667623 10.870201,9.83349498 C10.7344665,10.0398987 10.3348716,10.5174494 10.2161209,10.6552363 C10.0975061,10.7931616 9.9787553,10.8104542 9.77522141,10.707114 C9.57168756,10.6034971 8.92304221,10.3815993 8.1457276,9.67827718 C7.54069668,9.1308646 7.1208571,8.43279948 7.00210638,8.22611909 C6.88349152,8.019577 6.98947044,7.90779804 7.09150909,7.80473453 C7.1829499,7.71232321 7.3064561,7.58588016 7.40822302,7.46538579 C7.50985409,7.34475305 7.53879451,7.25870537 7.60672968,7.12091843 C7.67452903,6.9831315 7.64056144,6.86249876 7.58974589,6.75929691 C7.53879451,6.6559567 7.14830294,5.63486698 6.96732356,5.22648642 L6.96745942,5.22648642 C6.81501284,4.88257242 6.65454986,4.87095184 6.50957616,4.86486486 L6.50957616,4.86486486 Z" id="Path"></path>
                        </g>
                    </g>
                </g>
            </g>
        </g>
    </g>
</svg>