<?xml version="1.0" encoding="UTF-8"?>
<svg width="32px" height="32px" viewBox="0 0 32 32" version="1.1" xmlns="http://www.w3.org/2000/svg" xmlns:xlink="http://www.w3.org/1999/xlink">
    <title>icon-social_06</title>
    <g id="Design" stroke="none" stroke-width="1" fill="none" fill-rule="evenodd">
        <g id="GreenLine-New:-Главная:-Десктоп" transform="translate(-1228.000000, -11829.000000)" fill="#FFFFFF">
            <g id="Group-26" transform="translate(0.000000, 10958.000000)">
                <g id="social" transform="translate(1136.000000, 871.000000)">
                    <g id="soc-icon-6" transform="translate(92.000000, 0.000000)">
                        <path d="M13.209845,18.9754619 C13.209845,17.0971195 13.2031971,15.2187772 13.216493,13.3404348 C13.2191522,13.0229055 13.1380471,12.9230254 12.8561739,12.9364422 C12.3336447,12.9602941 11.8097859,12.9334607 11.2872568,12.9468774 C11.0758518,12.9528404 10.997406,12.8872475 11,12.6368018 C11.0107019,11.4640801 11.0107019,10.2913585 11,9.11863679 C11,8.89353385 11.0598967,8.81899646 11.2633241,8.8234687 C11.7978196,8.83837618 12.3336447,8.80856122 12.8668106,8.83688543 C13.1766053,8.85328366 13.2404256,8.73104233 13.2337777,8.40904079 C13.2160498,7.51657971 13.2160498,6.62362172 13.2337777,5.73016681 C13.2346405,4.65657226 13.5354784,3.61025867 14.0940229,2.73823578 C14.7903893,1.6764089 15.8941537,1.04712767 17.0696471,1.04176467 C18.3035073,0.982134757 19.5413563,1.01493121 20.7765462,1 C20.949393,0.998532984 21,1.06710739 21,1.25345087 C20.9945991,2.4400862 20.9945991,3.62622461 21,4.81186611 C21.0025766,5.02355231 20.9414154,5.08765447 20.7566023,5.08467297 C20.1622752,5.07423774 19.5679482,5.07870998 18.9736211,5.08020073 C18.635786,5.0357344 18.2973179,5.15735973 18.0454737,5.41372171 C17.7936295,5.67008369 17.6530532,6.03609632 17.6599854,6.4174016 C17.6200977,7.1210346 17.6493487,7.82913986 17.6333936,8.53426361 C17.6294048,8.78769075 17.7623639,8.76980178 17.9099485,8.76980178 C18.8140702,8.76831103 19.7181919,8.77874627 20.6196545,8.76234804 C20.8855726,8.75638505 20.971996,8.82495945 20.942745,9.13801651 C20.8294374,10.3167874 20.7288243,11.4970488 20.6409279,12.6785428 C20.6209841,12.9438959 20.5119576,12.9945813 20.2978935,12.9915998 C19.5852684,12.9814083 18.8725655,12.9799175 18.1599115,12.9871276 C17.6480191,12.9915998 17.6972139,12.9036457 17.6972139,13.4895096 C17.6945547,17.1671847 17.690566,20.8448598 17.7051915,24.5210441 C17.7051915,24.9101293 17.6174385,25.0070279 17.2744041,24.9995742 C16.0511805,24.9747284 14.8270706,24.9747284 13.6020743,24.9995742 C13.2577103,25.0085186 13.2005379,24.8773328 13.2031971,24.5329701 C13.216493,22.6799704 13.209845,20.8284615 13.209845,18.9754619 L13.209845,18.9754619 Z" id="Path"></path>
                    </g>
                </g>
            </g>
        </g>
    </g>
</svg>