<svg width="22" height="19" xmlns="http://www.w3.org/2000/svg">
    <g fill="#F7FCFF" fill-rule="nonzero">
        <path d="M21.282 3.009a.713.713 0 0 0-.712.717V4.1a14.463 14.463 0 0 0-3.114-1.558v-.96a.717.717 0 0 0-.717-.717.713.713 0 0 0-.713.718v.508a19.367 19.367 0 0 0-4.309-.642V.717A.717.717 0 0 0 11 0a.713.713 0 0 0-.713.717v.732a19.365 19.365 0 0 0-4.309.642v-.508a.717.717 0 0 0-.717-.718.713.713 0 0 0-.713.718v.96a14.463 14.463 0 0 0-3.113 1.556v-.373a.718.718 0 0 0-.717-.717.714.714 0 0 0-.713.717v8.126c0 .276.154.527.403.646a4.616 4.616 0 0 0 4.534-.321 3.153 3.153 0 0 1 3.508 0 4.586 4.586 0 0 0 5.1 0 3.153 3.153 0 0 1 3.509 0 4.615 4.615 0 0 0 4.533.321c.25-.119.408-.37.408-.646V3.726a.718.718 0 0 0-.718-.717zM4.548 5.675c-1.267.602-2.334 1.375-3.113 2.267V5.887c.872-.723 1.932-1.333 3.113-1.812v1.6zm1.43-2.1a17.817 17.817 0 0 1 4.31-.692v1.438a15.654 15.654 0 0 0-4.31.778V3.576zm6.776 7.408a3.153 3.153 0 0 1-3.508 0 4.589 4.589 0 0 0-2.55-.775c-.016 0-.031.003-.047.004.82-.839 2.345-1.603 4.351-1.603s3.532.764 4.351 1.603a4.585 4.585 0 0 0-2.597.771zm3.272-5.884a15.657 15.657 0 0 0-4.309-.778V2.883a17.82 17.82 0 0 1 4.31.693v1.523zm4.544 2.843c-.779-.892-1.846-1.665-3.114-2.267v-1.6c1.182.478 2.242 1.089 3.114 1.812v2.055z"/>
        <path d="M21.93 14.412a.715.715 0 0 0-.957-.338c-1 .48-2.195.394-3.119-.221a4.584 4.584 0 0 0-5.1 0 3.153 3.153 0 0 1-3.508 0 4.584 4.584 0 0 0-5.1 0 3.174 3.174 0 0 1-3.119.221.717.717 0 1 0-.62 1.294 4.616 4.616 0 0 0 4.534-.322 3.153 3.153 0 0 1 3.509 0 4.586 4.586 0 0 0 5.1 0 3.153 3.153 0 0 1 3.509 0 4.615 4.615 0 0 0 4.533.322c.357-.17.509-.6.337-.956z"/>
        <path d="M21.93 17.281a.716.716 0 0 0-.957-.337c-1 .479-2.195.394-3.119-.222a4.584 4.584 0 0 0-5.1 0 3.153 3.153 0 0 1-3.508 0 4.584 4.584 0 0 0-5.1 0 3.174 3.174 0 0 1-3.119.222.716.716 0 1 0-.62 1.294 4.616 4.616 0 0 0 4.534-.322 3.153 3.153 0 0 1 3.509 0 4.586 4.586 0 0 0 5.1 0 3.153 3.153 0 0 1 3.509 0 4.615 4.615 0 0 0 4.533.322c.357-.171.509-.6.337-.957z"/>
    </g>
</svg>
