<?xml version="1.0" encoding="UTF-8"?>
<svg width="64px" height="64px" viewBox="0 0 64 64" version="1.1" xmlns="http://www.w3.org/2000/svg" xmlns:xlink="http://www.w3.org/1999/xlink">
    <title>infr-icon-05</title>
    <defs>
        <linearGradient x1="101.58598%" y1="33.6490743%" x2="14.8374542%" y2="62.3676177%" id="linearGradient-1">
            <stop stop-color="#007053" offset="0%"></stop>
            <stop stop-color="#409E53" offset="100%"></stop>
        </linearGradient>
        <linearGradient x1="89.8489417%" y1="4.58076187%" x2="22.8377704%" y2="84.3544937%" id="linearGradient-2">
            <stop stop-color="#007053" offset="0%"></stop>
            <stop stop-color="#409E53" offset="100%"></stop>
        </linearGradient>
    </defs>
    <g id="Design" stroke="none" stroke-width="1" fill="none" fill-rule="evenodd">
        <g id="GreenLine-New:-Инфраструктура:-Раскладка:-Десктоп" transform="translate(-3952.000000, -382.000000)">
            <g id="infr-icon-05" transform="translate(3952.000000, 382.000000)">
                <rect id="sizer" x="0" y="0" width="64" height="64"></rect>
                <g id="shopping-bag" transform="translate(5.000000, 1.000000)">
                    <path d="M34.5117188,47.46875 C39.5195508,47.46875 43.59375,43.3945508 43.59375,38.3867188 L43.59375,36.5703125 L39.9609375,36.5703125 L39.9609375,38.3867188 C39.9609375,41.391418 37.516418,43.8359375 34.5117188,43.8359375 C31.5070195,43.8359375 29.0625,41.391418 29.0625,38.3867188 L29.0625,36.5703125 L25.4296875,36.5703125 L25.4296875,38.3867188 C25.4296875,43.3945508 29.5038867,47.46875 34.5117188,47.46875 Z" id="Path" fill="url(#linearGradient-1)"></path>
                    <path d="M18.1640625,0 C12.1546641,0 7.265625,4.88903906 7.265625,10.8984375 L7.265625,14.53125 L0,14.53125 L0,62 L54.4921875,62 L54.4921875,29.3046875 L36.328125,29.3046875 L36.328125,14.53125 L29.0625,14.53125 L29.0625,10.8984375 C29.0625,4.88903906 24.1734609,0 18.1640625,0 Z M10.8984375,10.8984375 C10.8984375,6.89217187 14.1577969,3.6328125 18.1640625,3.6328125 C22.1703281,3.6328125 25.4296875,6.89217187 25.4296875,10.8984375 L25.4296875,14.53125 L10.8984375,14.53125 L10.8984375,10.8984375 Z M50.859375,58.3671875 L18.1640625,58.3671875 L18.1640625,32.9375 L50.859375,32.9375 L50.859375,58.3671875 Z M32.6953125,29.3046875 L14.53125,29.3046875 L14.53125,58.3671875 L3.6328125,58.3671875 L3.6328125,18.1640625 L32.6953125,18.1640625 L32.6953125,29.3046875 Z" id="Shape" fill="url(#linearGradient-2)"></path>
                </g>
            </g>
        </g>
    </g>
</svg>