<?xml version="1.0" encoding="UTF-8"?>
<svg width="64px" height="64px" viewBox="0 0 64 64" version="1.1" xmlns="http://www.w3.org/2000/svg" xmlns:xlink="http://www.w3.org/1999/xlink">
    <title>infr-icon-01</title>
    <defs>
        <linearGradient x1="101.58598%" y1="22.2783132%" x2="14.8374542%" y2="70.9683067%" id="linearGradient-1">
            <stop stop-color="#007053" offset="0%"></stop>
            <stop stop-color="#409E53" offset="100%"></stop>
        </linearGradient>
    </defs>
    <g id="Design" stroke="none" stroke-width="1" fill="none" fill-rule="evenodd">
        <g id="GreenLine-New:-Инфраструктура:-Раскладка:-Десктоп" transform="translate(-440.000000, -342.000000)">
            <g id="infr-icon-01" transform="translate(440.000000, 342.000000)">
                <rect id="sizer" x="0" y="0" width="64" height="64"></rect>
                <g id="icon-inf-01" transform="translate(0.000000, 7.000000)" fill="url(#linearGradient-1)">
                    <path d="M1.88756616,39.284375 C3.99169602,39.284375 6.00215348,40.1906292 7.40343349,41.7707965 L7.40343349,41.7707965 L10.3886731,45.1371484 C10.8578944,45.6662189 11.5039024,45.9652964 12.2082255,45.9795088 C12.9136535,45.9942155 13.569974,45.7208438 14.0595749,45.2111762 L14.0595749,45.2111762 L17.2125163,41.9296041 C18.3758709,40.7188347 19.9381005,40.0452924 21.6115584,40.033181 C23.2882082,40.022429 24.8568217,40.6719957 26.0373639,41.8659575 L26.0373639,41.8659575 L29.6870268,45.5569691 C30.6523557,46.5331729 32.1881901,46.5573957 33.1833518,45.6119648 L33.1833518,45.6119648 L37.3976271,41.6085284 C38.5816069,40.4837746 40.1272627,39.8809233 41.757506,39.9125613 C43.3850484,39.9434577 44.9094652,40.6043943 46.0503532,41.7732682 L46.0503532,41.7732682 L49.2827259,45.085366 C49.7900054,45.6054147 50.4678105,45.8724835 51.1912854,45.8372616 C51.9146376,45.8021632 52.5637148,45.4705827 53.0190633,44.9036949 L53.0190633,44.9036949 L55.1247892,42.2823178 C56.5363817,40.5250522 58.6300763,39.5191879 60.8736712,39.5191879 L60.8736712,39.5191879 L60.9074325,39.5191879 C61.9224827,39.5237606 62.7417171,40.3558633 62.7367067,41.3771759 C62.7321412,42.3961403 61.9102059,43.2190977 60.8989615,43.2190977 L60.8989615,43.2190977 L60.8735484,43.2190977 C59.7454284,43.2190977 58.6925655,43.7248106 57.9827178,44.6085722 L57.9827178,44.6085722 L55.876992,47.2299493 C54.7701109,48.6079302 53.1269769,49.4473246 51.3684404,49.5328459 C49.6122366,49.6188616 47.8939682,48.9426004 46.6602673,47.6783183 L46.6602673,47.6783183 L43.4278946,44.3662205 C42.4788939,43.3934772 40.9050013,43.3635694 39.9200294,44.2993607 L39.9200294,44.2993607 L35.705754,48.3027971 C34.5513615,49.3994969 33.0485519,50 31.4649606,50 C31.4320587,50 31.3991567,49.9997528 31.366132,49.9992585 C29.7462012,49.9736762 28.224608,49.3231209 27.0815102,48.1670999 L27.0815102,48.1670999 L23.4318474,44.4760883 C22.9577153,43.9965756 22.32779,43.7330908 21.6563689,43.7330908 L21.6563689,43.7330908 L21.6378308,43.7330908 C20.9595347,43.7380342 20.3261718,44.0111587 19.8544951,44.5019177 L19.8544951,44.5019177 L16.7016765,47.7833662 C15.5113128,49.0223132 13.8477992,49.7135283 12.1346871,49.6788007 C10.42268,49.6443202 8.78691207,48.8869868 7.64651518,47.6012008 L7.64651518,47.6012008 L4.66127558,44.2348489 C3.95670699,43.4403162 2.94570813,42.984532 1.88756616,42.984532 L1.88756616,42.984532 L1.83784491,42.984532 C0.822917463,42.984532 0,42.1562604 0,41.1344535 C0,40.1127702 0.822794695,39.284375 1.83784491,39.284375 L1.83784491,39.284375 Z M2.61370072,27.9203553 C4.71783057,27.9203553 6.72828803,28.8266095 8.12932251,30.4065296 L8.12932251,30.4065296 L11.1146849,33.7728815 C11.5839062,34.3019521 12.2299142,34.6010296 12.9342373,34.6152419 C13.6404019,34.6314317 14.2959858,34.356577 14.7857095,33.8469094 L14.7857095,33.8469094 L17.9385281,30.5653373 C19.1018827,29.3545678 20.6641123,28.6810255 22.3375701,28.6689141 C24.0123784,28.6565556 25.5828335,29.3077288 26.7633757,30.5016906 L26.7633757,30.5016906 L30.4130386,34.1927023 C31.3786131,35.168906 32.9142018,35.1931288 33.9092408,34.247698 L33.9092408,34.247698 L38.1236389,30.2442615 C39.3074959,29.1196313 40.8596584,28.5167801 42.483395,28.5482945 C44.1110602,28.5791909 45.635477,29.2401274 46.776365,30.4090013 L46.776365,30.4090013 L50.0086149,33.7210991 C50.5160172,34.2412715 51.1946816,34.5075988 51.91742,34.4729948 C52.6406494,34.4377728 53.2897266,34.1061923 53.7450751,33.5394281 L53.7450751,33.5394281 L55.8506782,30.918051 C57.2625163,29.1607854 59.3560881,28.1549211 61.599683,28.1549211 L61.599683,28.1549211 L61.6334443,28.1549211 C62.6484945,28.1594937 63.4676062,28.9914729 63.4632043,30.012909 C63.4586441,31.0318735 62.6367087,31.8548309 61.6254643,31.8548309 L61.6254643,31.8548309 L61.6000513,31.8548309 C60.4718085,31.8548309 59.4189455,32.3606673 58.7089751,33.2444289 L58.7089751,33.2444289 L56.603372,35.8656824 C55.4966137,37.2436634 53.853357,38.0829342 52.0949433,38.1685791 C50.3365296,38.2550891 48.6203483,37.5783336 47.3865246,36.3140515 L47.3865246,36.3140515 L44.1542747,33.0019537 C43.2049057,32.029334 41.6315042,31.9993026 40.6464095,32.9352174 L40.6464095,32.9352174 L36.4320113,36.9386538 C35.2776188,38.0353537 33.7751776,38.6358568 32.1913407,38.6358568 L32.1913407,38.6358568 L32.0926348,38.6351152 C30.4725813,38.609533 28.9509881,37.9589777 27.8078903,36.8029567 L27.8078903,36.8029567 L24.1582274,33.111945 C23.6796757,32.6281069 23.0469267,32.3623975 22.3640881,32.3690711 C21.685792,32.3740146 21.0524292,32.6471391 20.5807525,33.137898 L20.5807525,33.137898 L17.4279338,36.4193465 C16.2374474,37.6584172 14.5739338,38.350868 12.8608217,38.314781 C11.1488145,38.2803006 9.51304662,37.5229672 8.37264974,36.2371812 L8.37264974,36.2371812 L5.38741014,32.8708292 C4.68284154,32.0762965 3.67184268,31.6205123 2.61370072,31.6205123 L2.61370072,31.6205123 L2.56397946,31.6205123 C1.54905201,31.6205123 0.726134551,30.7922407 0.726134551,29.7704338 C0.726134551,28.7487505 1.54892925,27.9203553 2.56397946,27.9203553 L2.56397946,27.9203553 Z M3.15049543,16.3374277 C5.25462528,16.3374277 7.26508274,17.2436819 8.66636276,18.8238491 L8.66636276,18.8238491 L11.6517251,22.1902011 C12.1209464,22.7192716 12.7669545,23.0183491 13.4712775,23.0325614 C14.175355,23.0488748 14.8330261,22.7738965 15.322627,22.2642289 L15.322627,22.2642289 L18.4755684,18.9826568 C19.638923,17.7718873 21.2011525,17.0983451 22.8746104,17.0862337 C24.5506464,17.0749873 26.1198737,17.7250483 27.3004159,18.9190101 L27.3004159,18.9190101 L30.9500788,22.6100218 C31.9151622,23.586102 33.4511193,23.6104484 34.446281,22.6650175 L34.446281,22.6650175 L38.6606792,18.6615811 C39.8444133,17.5369508 41.3915424,16.9336053 43.0204352,16.965614 C44.6479777,16.9965104 46.1723945,17.6574469 47.3132825,18.8263208 L47.3132825,18.8263208 L50.5456551,22.1384186 C51.0530575,22.6584674 51.7304942,22.9255362 52.4542147,22.8903143 C53.1775669,22.8552159 53.8267669,22.5236354 54.2821154,21.9567476 L54.2821154,21.9567476 L56.3877184,19.3354941 C57.7995565,17.5782285 59.8931283,16.5723642 62.1366004,16.5723642 L62.1366004,16.5723642 L62.1703618,16.5723642 C63.185412,16.5769368 64.0045236,17.4090396 64,18.4305993 C63.9954388,19.4495637 63.1735034,20.2725212 62.1622591,20.2725212 L62.1622591,20.2725212 L62.136846,20.2725212 C61.0087259,20.2725212 59.9559858,20.7783576 59.2460154,21.6621192 L59.2460154,21.6621192 L57.1404123,24.2833727 C56.0332857,25.6613537 54.3900289,26.500748 52.6314925,26.5862693 C50.8749203,26.6725322 49.1570203,25.9959003 47.9234421,24.7317418 L47.9234421,24.7317418 L44.6910694,21.419644 C43.7419459,20.4470242 42.1684216,20.4169929 41.1833269,21.3527841 L41.1833269,21.3527841 L36.9689288,25.3562205 C35.8144135,26.4529203 34.3118495,27.0534234 32.7281354,27.0534234 C32.6952335,27.0534234 32.6623315,27.0531763 32.6293068,27.0526819 C31.009376,27.0270997 29.4877828,26.3765443 28.3446851,25.2205234 L28.3446851,25.2205234 L24.6950222,21.5295117 C24.2208901,21.049999 23.5909648,20.7865142 22.9195437,20.7865142 L22.9195437,20.7865142 L22.9010056,20.7865142 C22.2227095,20.7914577 21.5893466,21.0645821 21.1176699,21.5553411 L21.1176699,21.5553411 L17.9647285,24.8369132 C16.7743648,26.0761074 15.1083959,26.765963 13.3977392,26.7323477 C11.685732,26.6978673 10.0499641,25.9405339 8.90956722,24.6547478 L8.90956722,24.6547478 L5.92420485,21.2883959 C5.21963625,20.4938632 4.2086374,20.038079 3.15049543,20.038079 L3.15049543,20.038079 L3.10077417,20.038079 C2.08572396,20.038079 1.26292926,19.209313 1.26292926,18.1875062 C1.26292926,17.1658229 2.08572396,16.3374277 3.10077417,16.3374277 L3.10077417,16.3374277 Z M14.343414,0 C18.4863608,0 21.8569708,3.39304644 21.8569708,7.56369435 C21.8569708,11.7343423 18.4863608,15.1273887 14.343414,15.1273887 C10.2003443,15.1273887 6.82973432,11.7343423 6.82973432,7.56369435 C6.82973432,3.39304644 10.2004671,0 14.343414,0 Z M14.343414,3.70040417 C12.22713,3.70040417 10.5055469,5.43344698 10.5055469,7.56381793 C10.5055469,9.69418889 12.2272528,11.4272317 14.343414,11.4272317 C16.4595751,11.4272317 18.1811582,9.69418889 18.1811582,7.56381793 C18.1811582,5.43344698 16.4595751,3.70040417 14.343414,3.70040417 Z" id="Combined-Shape"></path>
                </g>
            </g>
        </g>
    </g>
</svg>