<?xml version="1.0" encoding="UTF-8"?>
<svg width="64px" height="64px" viewBox="0 0 64 64" version="1.1" xmlns="http://www.w3.org/2000/svg" xmlns:xlink="http://www.w3.org/1999/xlink">
    <title>infr-icon-06</title>
    <defs>
        <linearGradient x1="101.557781%" y1="4.58076187%" x2="14.8566758%" y2="84.3544937%" id="linearGradient-1">
            <stop stop-color="#007053" offset="0%"></stop>
            <stop stop-color="#409E53" offset="100%"></stop>
        </linearGradient>
        <linearGradient x1="68.5709529%" y1="4.58076187%" x2="37.3414835%" y2="84.3544937%" id="linearGradient-2">
            <stop stop-color="#007053" offset="0%"></stop>
            <stop stop-color="#409E53" offset="100%"></stop>
        </linearGradient>
    </defs>
    <g id="Design" stroke="none" stroke-width="1" fill="none" fill-rule="evenodd">
        <g id="GreenLine-New:-Инфраструктура:-Раскладка:-Десктоп" transform="translate(-2528.000000, -446.000000)">
            <g id="infr-icon-06" transform="translate(2528.000000, 446.000000)">
                <rect id="sizer" x="0" y="0" width="64" height="64"></rect>
                <g id="playground" transform="translate(1.000000, 1.000000)">
                    <path d="M56.1355622,51.1185369 C54.5218701,51.1185369 53.0853377,50.034871 52.6418933,48.4832998 L52.6133152,48.3831555 L48.9903184,39.6371765 C47.209275,33.5680907 41.6258953,29.2004898 35.0477323,29.2004898 L32.8162211,29.2004898 L32.8162211,18.3020736 L36.9587091,18.3020736 L20.1015232,0 L3.24421632,18.3021947 L7.38670432,18.3021947 L7.38670432,29.2006109 L0,29.2006109 L0,62.0169531 L18.2851205,62.0169531 L18.2851205,56.4466515 C18.2851205,55.445087 19.0999588,54.6302488 20.1015232,54.6302488 C21.1030877,54.6302488 21.9179259,55.445087 21.9179259,56.4466515 L21.9179259,62.0169531 L32.8163422,62.0169531 L32.8163422,40.0990272 L35.04858,40.0990272 C36.6617878,40.0990272 38.098199,41.1824508 38.5412802,42.7336587 L38.5698583,42.8338031 L42.1932184,51.5803875 C43.9775313,57.6615827 49.5705985,62.0169531 56.1356833,62.0169531 L62,62.0169531 L62,56.9828535 C62,53.7492935 59.3691223,51.1185369 56.1355622,51.1185369 L56.1355622,51.1185369 Z M20.1015232,5.36226296 L28.6738542,14.6693893 L11.5291923,14.6693893 L20.1015232,5.36226296 Z M29.1835368,18.3021947 L29.1835368,43.7318326 L11.0195097,43.7318326 L11.0195097,18.3021947 L29.1835368,18.3021947 Z M3.6328054,43.7318326 L3.6328054,40.0990272 L7.38670432,40.0990272 L7.38670432,43.7318326 L3.6328054,43.7318326 Z M7.38670432,47.364638 L7.38670432,50.9974434 L3.6328054,50.9974434 L3.6328054,47.364638 L7.38670432,47.364638 Z M7.38670432,32.8334163 L7.38670432,36.4662217 L3.6328054,36.4662217 L3.6328054,32.8334163 L7.38670432,32.8334163 Z M3.6328054,58.3841477 L3.6328054,54.6302488 L7.38670432,54.6302488 L7.38670432,58.3841477 L3.6328054,58.3841477 Z M25.5507313,58.3841477 L25.5507313,56.4466515 C25.5507313,53.4419581 23.1062166,50.9974434 20.1015232,50.9974434 C17.0968299,50.9974434 14.6523151,53.4419581 14.6523151,56.4466515 L14.6523151,58.3841477 L11.0195097,58.3841477 L11.0195097,47.364638 L29.1835368,47.364638 L29.1835368,58.3841477 L25.5507313,58.3841477 Z M58.3670735,58.3841477 L56.1355622,58.3841477 C51.2950912,58.3841477 46.9858574,55.1335134 45.6562507,50.4792842 L45.6276726,50.3791399 L42.0027383,41.6286804 C41.0815799,38.5832996 38.238062,36.4661007 35.0484589,36.4661007 L32.8162211,36.4661007 L32.8162211,32.8332952 L35.0477323,32.8332952 C39.8882033,32.8332952 44.1974371,36.0839295 45.5270439,40.7381587 L45.555622,40.8383031 L49.1803141,49.588036 C50.1015936,52.63378 52.9455958,54.7512212 56.1355622,54.7512212 C57.3659934,54.7512212 58.3670735,55.7523013 58.3670735,56.9827325 L58.3670735,58.3841477 Z" id="Shape" fill="url(#linearGradient-1)"></path>
                    <path d="M25.5507313,27.3842082 C25.5507313,24.3795149 23.1062166,21.9350001 20.1015232,21.9350001 C17.0968299,21.9350001 14.6523151,24.3795149 14.6523151,27.3842082 L14.6523151,40.0990272 L25.5507313,40.0990272 L25.5507313,27.3842082 Z M21.9179259,36.4662217 L18.2851205,36.4662217 L18.2851205,27.3842082 C18.2851205,26.3826438 19.0999588,25.5678055 20.1015232,25.5678055 C21.1030877,25.5678055 21.9179259,26.3826438 21.9179259,27.3842082 L21.9179259,36.4662217 Z" id="Shape" fill="url(#linearGradient-2)"></path>
                </g>
            </g>
        </g>
    </g>
</svg>