<?xml version="1.0" encoding="UTF-8"?>
<svg width="64px" height="64px" viewBox="0 0 64 64" version="1.1" xmlns="http://www.w3.org/2000/svg" xmlns:xlink="http://www.w3.org/1999/xlink">
    <title>infr-icon-02</title>
    <defs>
        <linearGradient x1="101.58598%" y1="37.3692991%" x2="14.8374542%" y2="59.5536903%" id="linearGradient-1">
            <stop stop-color="#007053" offset="0%"></stop>
            <stop stop-color="#409E53" offset="100%"></stop>
        </linearGradient>
        <linearGradient x1="101.58598%" y1="11.8160693%" x2="14.8374542%" y2="78.8818056%" id="linearGradient-2">
            <stop stop-color="#007053" offset="0%"></stop>
            <stop stop-color="#409E53" offset="100%"></stop>
        </linearGradient>
        <linearGradient x1="101.58598%" y1="25.9617048%" x2="14.8374542%" y2="68.1822394%" id="linearGradient-3">
            <stop stop-color="#007053" offset="0%"></stop>
            <stop stop-color="#409E53" offset="100%"></stop>
        </linearGradient>
    </defs>
    <g id="Design" stroke="none" stroke-width="1" fill="none" fill-rule="evenodd">
        <g id="GreenLine-New:-Инфраструктура:-Раскладка:-Десктоп" transform="translate(-1832.000000, -342.000000)">
            <g id="infr-icon-02" transform="translate(1832.000000, 342.000000)">
                <rect id="sizer" x="0" y="0" width="64" height="64"></rect>
                <g id="fitness" transform="translate(0.000000, 0.000000)">
                    <path d="M52.96875,28.359375 L42.421875,28.359375 L42.421875,38.90625 L17.578125,38.90625 L17.578125,28.359375 L7.03125,28.359375 L7.03125,31.875 L0,31.875 L0,56.484375 L7.03125,56.484375 L7.03125,60 L17.578125,60 L17.578125,49.453125 L42.421875,49.453125 L42.421875,60 L52.96875,60 L52.96875,56.484375 L60,56.484375 L60,31.875 L52.96875,31.875 L52.96875,28.359375 Z M7.03125,52.96875 L3.515625,52.96875 L3.515625,35.390625 L7.03125,35.390625 L7.03125,52.96875 Z M14.0625,56.484375 L10.546875,56.484375 L10.546875,31.875 L14.0625,31.875 L14.0625,56.484375 Z M42.421875,45.9375 L17.578125,45.9375 L17.578125,42.421875 L42.421875,42.421875 L42.421875,45.9375 Z M49.453125,56.484375 L45.9375,56.484375 L45.9375,31.875 L49.453125,31.875 L49.453125,56.484375 Z M56.484375,35.390625 L56.484375,52.96875 L52.96875,52.96875 L52.96875,35.390625 L56.484375,35.390625 Z" id="Shape" fill="url(#linearGradient-1)"></path>
                    <path d="M37.9101562,0 C34.0154297,0 31.4733984,2.15367187 30,4.02480469 C28.5266016,2.15367187 25.9845703,0 22.0898438,0 C16.4717578,0 12.421875,4.76332031 12.421875,10.5645703 C12.421875,18.1539844 19.5778125,23.0532422 30,32.2346484 C40.4628516,23.0173828 47.578125,18.1344141 47.578125,10.5645703 C47.578125,4.76390625 43.5288281,0 37.9101562,0 Z M30,27.5373047 C21.4266797,20.0068359 15.9375,16.0257422 15.9375,10.5646875 C15.9375,6.54597656 18.5824219,3.515625 22.0898438,3.515625 C26.4159375,3.515625 28.2792187,7.824375 28.3726172,8.04738281 L29.9968359,12.0730078 L31.6259766,8.05019531 C31.7032031,7.86515625 33.5635547,3.515625 37.9101562,3.515625 C41.4175781,3.515625 44.0625,6.54597656 44.0625,10.5645703 C44.0625,16.0307813 38.5770703,20.0034375 30,27.5373047 Z" id="Shape" fill="url(#linearGradient-2)"></path>
                    <polygon id="Path" fill="url(#linearGradient-3)" points="30 16.8500391 25.9694531 12.8196094 23.4836719 15.3053906 30 21.8218359 38.2741406 13.5475781 35.7883594 11.0617969"></polygon>
                </g>
            </g>
        </g>
    </g>
</svg>