<?xml version="1.0" encoding="UTF-8"?>
<svg width="64px" height="64px" viewBox="0 0 64 64" version="1.1" xmlns="http://www.w3.org/2000/svg" xmlns:xlink="http://www.w3.org/1999/xlink">
    <title>infr-icon-03</title>
    <defs>
        <linearGradient x1="101.58598%" y1="32.0866027%" x2="14.8374542%" y2="63.54945%" id="linearGradient-1">
            <stop stop-color="#007053" offset="0%"></stop>
            <stop stop-color="#409E53" offset="100%"></stop>
        </linearGradient>
    </defs>
    <g id="Design" stroke="none" stroke-width="1" fill="none" fill-rule="evenodd">
        <g id="GreenLine-New:-Инфраструктура:-Раскладка:-Десктоп" transform="translate(-3256.000000, -342.000000)">
            <g id="infr-icon-03" transform="translate(3256.000000, 342.000000)">
                <rect id="sizer" x="0" y="0" width="64" height="64"></rect>
                <g id="bicycle-(1)" transform="translate(1.000000, 13.000000)" fill="url(#linearGradient-1)">
                    <path d="M49.9842835,14.9054108 C48.964447,14.9054108 47.973938,15.0335999 47.0274201,15.2738952 L42.0966339,3.66119385 L46.7691498,3.66119385 C46.8940277,3.66119385 46.9957275,3.76289371 46.9957275,3.88777164 C46.9957275,4.01264957 46.8940277,4.1143493 46.7691498,4.1143493 C45.7583008,4.1143493 44.9385529,4.93409732 44.9385529,5.94494629 C44.9385529,6.95579526 45.7583008,7.77554327 46.7691498,7.77554327 C48.9128875,7.77554327 50.6569214,6.03150943 50.6569214,3.88777164 C50.6569214,1.74403384 48.9128875,0 46.7691498,0 L39.3303986,0 C38.7164154,0 38.1426392,0.307937652 37.8039551,0.820221008 C37.464798,1.33297723 37.4051971,1.98101807 37.6454925,2.54627994 L40.6312103,9.57823178 L22.6213532,9.57823178 L23.8327637,7.12608334 L26.5181122,7.12608334 C27.5289612,7.12608334 28.3487091,6.30633545 28.3487091,5.29548648 C28.3487091,4.28463739 27.5289612,3.4648895 26.5181122,3.4648895 L18.8717041,3.4648895 C17.8603821,3.4648895 17.0406341,4.28463739 17.0406341,5.29548648 C17.0406341,6.30633545 17.8603821,7.12608334 18.8717041,7.12608334 L19.7491608,7.12608334 L15.6324463,15.4616852 C14.49057,15.100769 13.2758483,14.9049378 12.0157165,14.9049378 C5.39009097,14.9054108 0,20.2955016 0,26.9211273 C0,33.5462799 5.39009097,38.9368439 12.0157165,38.9368439 C18.0188446,38.9368439 23.0082855,34.5112458 23.8923646,28.7517243 L29.7209473,28.7517243 L29.7498016,28.7517243 C30.0790252,28.7517243 30.4125062,28.6627961 30.7119294,28.4773712 C30.7322692,28.4645996 30.7526092,28.451355 30.7729492,28.4381104 C30.7729492,28.4376374 30.7734222,28.4376374 30.7738952,28.4371644 C30.9181671,28.3397217 31.0439911,28.2252503 31.1508942,28.0980072 L42.8444824,14.7904663 L43.6595002,16.7090454 C40.2461701,18.8310241 37.9685669,22.6147308 37.9685669,26.9211273 C37.9685669,33.5462799 43.3586579,38.9368439 49.9842835,38.9368439 C56.609909,38.9368439 62,33.5462799 62,26.9211273 C62,20.2955016 56.609909,14.9054108 49.9842835,14.9054108 Z M12.0157165,35.2751771 C7.40942383,35.2751771 3.66119385,31.5274201 3.66119385,26.9211273 C3.66119385,22.3143616 7.40942383,18.5666046 12.0157165,18.5666046 C12.6935578,18.5666046 13.3515319,18.6498566 13.9830169,18.8026429 L10.3743286,26.1103669 C10.0938263,26.6775208 10.1269378,27.3496857 10.4608918,27.8870392 C10.7948456,28.4248657 11.3828125,28.7517243 12.0157165,28.7517243 L20.1654206,28.7517243 C19.3281707,32.4800872 15.9933625,35.2751771 12.0157165,35.2751771 Z M20.1654206,25.0900573 L14.9617005,25.0900573 L17.2639007,20.4274749 C18.702362,21.5925293 19.7463226,23.2239837 20.1654206,25.0900573 Z M23.8923646,25.0900573 C23.3857575,21.7911987 21.5324554,18.9303589 18.9133301,17.0879364 L19.924179,15.0406952 L26.3922882,25.0905304 L23.8923646,25.0905304 L23.8923646,25.0900573 Z M29.9740143,23.8899994 L23.1189728,13.2398987 L39.3327637,13.2398987 L29.9740143,23.8899994 Z M49.9842835,35.2751771 C45.3775177,35.2751771 41.6297607,31.5274201 41.6297607,26.9211273 C41.6297607,24.1302948 43.0067292,21.6563874 45.1154632,20.1384583 L48.2989044,27.6363372 C48.5950164,28.3335724 49.2723846,28.7521973 49.9847565,28.7521973 C50.2236328,28.7521973 50.4662933,28.705368 50.6994935,28.6060334 C51.6304017,28.2110596 52.0641632,27.1358795 51.6691895,26.2054443 L48.4838561,18.7042542 C48.9710693,18.6153259 49.4720002,18.5666046 49.9842835,18.5666046 C54.5905762,18.5666046 58.3383332,22.3143616 58.3383332,26.9211273 C58.3383332,31.5274201 54.5905762,35.2751771 49.9842835,35.2751771 Z" id="Shape"></path>
                </g>
            </g>
        </g>
    </g>
</svg>