<?xml version="1.0" encoding="utf-8"?>
<!-- Generator: Adobe Illustrator 24.3.0, SVG Export Plug-In . SVG Version: 6.00 Build 0)  -->
<svg version="1.1" id="Layer_1" xmlns="http://www.w3.org/2000/svg" xmlns:xlink="http://www.w3.org/1999/xlink" x="0px" y="0px"
	 viewBox="0 0 64 64" style="enable-background:new 0 0 64 64;" xml:space="preserve">
<style type="text/css">
	.st0{fill:url(#SVGID_1_);}
	.st1{fill:url(#SVGID_2_);}
	.st2{fill:#FFFFFF;}
</style>
<g>
	<linearGradient id="SVGID_1_" gradientUnits="userSpaceOnUse" x1="62.4206" y1="15.0511" x2="26.2286" y2="33.3091">
		<stop  offset="0" style="stop-color:#007053"/>
		<stop  offset="1" style="stop-color:#409E53"/>
	</linearGradient>
	<path class="st0" d="M31.5,18.9c3.3,10.4,6.6,20.6,9.9,30.9c-10.2,3.3-20.4,6.5-30.7,9.8C9.4,55.8,8.2,52,7,48.1
		c1.4-0.4,2.7-0.8,4-1.3c2.4-0.8,3.7-2.9,3.1-5c-0.6-2.2-2.9-3.3-5.4-2.6C7.3,39.6,6,40,4.6,40.5c-1.2-3.9-2.5-7.7-3.7-11.7
		c2.9-0.9,5.8-1.9,8.9-2.8c-0.8-2.9-1.6-5.8,0.6-8.1c1-1.1,2.5-2.1,4-2.5c3.7-0.9,6.4,1.2,8.3,6.4C25.5,20.8,28.5,19.9,31.5,18.9z
		 M6.2,37c6-1.3,9.1-0.3,10.2,3.6c0.4,1.4,0.3,3.2-0.1,4.7c-0.8,2.9-3.4,3.7-6,4.4c0.7,2.3,1.4,4.5,2.1,6.6
		c8.6-2.7,17.1-5.5,25.6-8.2c-2.7-8.6-5.5-17.1-8.2-25.8c-3.1,1-6.1,1.9-9.1,2.9c-0.5-1.6-1-3.1-1.4-4.5c-0.7-2.2-2.9-3.4-4.9-2.7
		c-2,0.6-3.1,2.8-2.5,5.1c0.4,1.5,0.9,2.9,1.5,4.6c-3.1,1-6.1,2-9.2,2.9C4.9,32.8,5.5,34.9,6.2,37z"/>
</g>
<g>
	<linearGradient id="SVGID_2_" gradientUnits="userSpaceOnUse" x1="68.5399" y1="16.3838" x2="30.7796" y2="32.7498">
		<stop  offset="0" style="stop-color:#007053"/>
		<stop  offset="1" style="stop-color:#409E53"/>
	</linearGradient>
	<path class="st1" d="M62.3,18c-0.5-1.6-1.3-3-2.5-4.4c-0.4-0.5-0.8-0.9-1.2-1.3l-0.6-0.6c0,0-0.1-0.1-0.1-0.1L56.2,10l-0.4-0.3
		c-0.3-0.2-0.6-0.4-0.8-0.6c-2.8-2-5.3-3.1-8-3.4c-1.5-0.1-3.2,0-5.1,0.3c-2.3,0.5-4.7,1.1-7.7,2.2c-2.2,0.8-4.4,1.6-6.5,2.4
		L26,11.4c-0.6,0.2-1.3,0.5-1.9,1c-1,0.9-1.6,2.1-1.7,3.4c-0.1,1.2,0.2,2.2,0.9,3.1c1.2,1.5,2.9,2.2,4.8,1.9
		c0.8-0.1,1.6-0.3,2.4-0.4c0.1,0,0.1,0,0.2,0l-3.4,3.9c-1.8,2.1-3.6,4.2-5.4,6.3c-0.9,1-1.7,2-2.6,3L19,34c-0.1,0.1-0.2,0.3-0.3,0.4
		c-0.1,0.2-0.2,0.3-0.4,0.5c-0.5,0.6-0.8,1.3-0.8,2.2c0,1.2,0.3,2.3,1,3.1c0.7,0.8,1.5,1.4,2.4,1.7c-0.7,1.5-0.7,3,0,4.5
		c0.4,0.7,0.9,1.2,1.4,1.6c1.3,1,2.9,1.2,4.6,0.6l0,0.1c0.2,0.3,0.3,0.6,0.5,0.8c0.9,1.3,2,2,3.3,2.1c1.2,0.2,2.4-0.2,3.5-1.1
		c0.4-0.3,0.8-0.7,1.2-1l0.3-0.2c0.2,0.3,0.3,0.5,0.5,0.7c0.9,1.1,2.2,1.9,3.7,1.9c0.9,0,1.9-0.3,2.8-1c0.9-0.7,1.6-1.5,2.3-2.3
		c3.6-4.2,7.3-8.3,10.9-12.5c1.3-1.5,2.5-2.9,3.8-4.4c1.4-1.6,2.1-3.6,2.6-5.1C63.2,23.7,63.2,20.9,62.3,18z M49.1,39.2l-4,4.6
		c-1,1.1-2,2.2-2.9,3.3c-0.4,0.5-0.8,0.9-1.3,1.2c-0.6,0.5-1,0.6-1.4,0.4c-0.3-0.1-0.6-0.4-0.9-0.6c-0.2-0.2-0.4-0.5-0.4-0.9
		c0-0.4,0.1-0.8,0.3-1c2.5-2.9,4.9-5.8,7.4-8.7c0.3-0.3,0.4-0.7,0.3-1.1c-0.1-0.4-0.4-0.8-0.8-1.1c-0.2-0.1-0.5-0.2-0.7-0.2
		c-0.3,0-0.6,0.1-0.9,0.4c-0.2,0.2-0.5,0.5-0.7,0.7c-2.1,2.4-4.3,4.8-6.4,7.2l-0.2,0.2c-1.2,1.4-2.4,2.7-3.6,4.1
		c-0.4,0.5-0.9,0.7-1.5,0.8c-0.2,0-0.4,0-0.6-0.1c-0.2-0.1-0.4-0.3-0.6-0.5c-0.3-0.3-0.5-0.6-0.5-0.9c-0.1-0.4,0.1-0.8,0.4-1.2
		l1.1-1.3c0.7-0.8,1.3-1.6,2-2.4c2.3-2.7,4.7-5.4,7-8.2c0.3-0.4,0.4-0.8,0.3-1.3c-0.2-0.5-0.6-0.9-1.1-1c-0.8-0.2-1.2,0.2-1.5,0.6
		c0,0-0.1,0.1-0.1,0.1l-2.3,2.6c-1.8,2-3.6,4.1-5.4,6.1c-1.1,1.2-2.2,2.4-3.3,3.6l-0.7,0.7c-0.1,0.1-0.2,0.2-0.3,0.2
		c-0.6,0.2-1.3,0.2-1.8-0.2c-0.5-0.4-0.7-0.9-0.7-1.6c0-0.3,0.1-0.5,0.3-0.7c0.5-0.5,1-1.1,1.4-1.7l10.2-11.8c0.5-0.5,0.4-1.5-0.1-2
		c-0.4-0.4-1-0.4-1.4-0.4c-0.2,0-0.4,0.1-0.6,0.3c-1.3,1.5-2.7,3-4,4.5l-6,6.8c-0.5,0.1-1.5,0.3-2.2-0.6c-0.4-0.5-0.6-1.3-0.1-1.9
		c0.4-0.5,0.8-0.9,1.1-1.4c0.5-0.6,1-1.2,1.5-1.7c1.7-2,3.5-4,5.2-6c1.7-2,3.5-4,5.2-6c0.6-0.7,1.3-1.5,1.9-2.3l0.4-0.5
		c0.1-0.1,0.2-0.3,0.3-0.6c0-0.4-0.3-0.9-0.6-1.2c-0.3-0.3-0.7-0.4-1-0.3c-0.1,0-0.3,0-0.4,0.1c-0.1,0-0.3,0-0.4,0.1l-1.3,0.2
		c-1.5,0.3-2.9,0.5-4.4,0.8c-1,0.2-1.7,0-2.3-0.5c-0.6-0.6-0.7-1.5-0.1-2.1c0.3-0.4,0.7-0.7,1.3-0.9l1.7-0.7c1.8-0.7,3.5-1.3,5.3-2
		c2.1-0.7,4.2-1.4,6.3-2c2-0.6,3.8-0.9,5.6-0.8c1.9,0.1,3.8,0.7,5.6,1.9c0.9,0.6,1.8,1.2,2.5,1.8c1.4,1.1,2.7,2.4,3.8,3.9
		c1.3,1.8,1.9,3.9,1.9,6.2c0,1.1-0.3,2.3-0.8,3.6c-0.6,1.5-1.1,2.6-1.8,3.5c-1,1.3-2.1,2.5-3.1,3.7l-0.1,0.1v0
		c-1.1,1.3-2.2,2.5-3.3,3.8l-1.4,1.6L49.1,39.2L49.1,39.2z"/>
	<path class="st2" d="M49.8,39.1c1.6-1.8,3.1-3.6,4.7-5.4c1.1-1.3,2.2-2.5,3.2-3.8c0.9-1.1,1.4-2.3,1.9-3.6c0.4-1.2,0.7-2.5,0.8-3.8
		c0.1-2.4-0.6-4.5-2-6.5c-1.1-1.5-2.4-2.9-3.8-4c-0.8-0.6-1.7-1.3-2.6-1.8c-1.8-1.1-3.7-1.9-5.9-1.9c-2-0.1-3.9,0.3-5.7,0.8
		c-2.1,0.6-4.2,1.3-6.3,2c-2.4,0.8-4.7,1.7-7,2.6c-0.6,0.2-1.1,0.5-1.5,1c-0.7,0.8-0.6,2,0.1,2.7c0.8,0.8,1.7,0.9,2.7,0.7
		c1.9-0.4,3.8-0.7,5.7-1.1c0.3-0.1,0.5-0.1,0.8-0.1c0.5-0.1,1.1,0.6,1.1,1c0,0.1-0.1,0.3-0.2,0.4c-0.8,0.9-1.5,1.9-2.3,2.8
		c-3.5,4-7,8-10.4,12.1c-0.9,1-1.7,2.1-2.6,3.1c-0.6,0.7-0.4,1.8,0.1,2.4c0.7,0.9,1.8,1,2.7,0.7c0.1,0,0.1-0.1,0.2-0.1
		c2-2.3,4-4.5,6-6.8c1.3-1.5,2.7-3,4-4.5c0.1-0.1,0.2-0.1,0.3-0.1c0.4,0,0.8,0,1.1,0.3c0.4,0.3,0.4,1,0.1,1.4
		c-3.1,3.6-6.3,7.3-9.4,10.9c-0.7,0.8-1.4,1.7-2.2,2.5c-0.3,0.3-0.4,0.6-0.4,1c-0.1,1.7,1.5,2.8,3.1,2.2c0.2-0.1,0.3-0.2,0.5-0.4
		c1.3-1.4,2.6-2.9,3.9-4.4c2.6-2.9,5.1-5.8,7.7-8.7c0.1-0.1,0.2-0.2,0.2-0.2c0.2-0.4,0.6-0.4,0.9-0.3c0.4,0.1,0.7,0.3,0.8,0.7
		c0.1,0.3,0.1,0.6-0.2,0.9c-2.4,2.7-4.7,5.4-7,8.2c-1,1.2-2.1,2.4-3.1,3.6c-0.4,0.5-0.7,1-0.5,1.6c0.1,0.4,0.3,0.8,0.7,1.1
		c0.2,0.2,0.5,0.4,0.7,0.6c0.3,0.1,0.6,0.2,0.8,0.2c0.7-0.1,1.3-0.4,1.8-1c1.2-1.5,2.5-2.9,3.8-4.3c2.1-2.4,4.3-4.8,6.4-7.2
		c0.2-0.2,0.5-0.5,0.7-0.7c0.3-0.3,0.7-0.3,1-0.1c0.3,0.2,0.5,0.5,0.6,0.8c0.1,0.3,0,0.5-0.2,0.7c-2.5,2.9-4.9,5.8-7.4,8.7
		c-0.6,0.7-0.5,2,0.2,2.6c0.3,0.3,0.7,0.5,1.1,0.7c0.7,0.3,1.3-0.1,1.8-0.5c0.5-0.4,0.9-0.8,1.3-1.3c1.3-1.4,2.5-2.8,3.8-4.3
		C47.4,41.8,48.6,40.4,49.8,39.1C49.8,39.1,49.8,39.1,49.8,39.1z"/>
</g>
</svg>
