<?xml version="1.0" encoding="UTF-8"?>
<svg width="64px" height="64px" viewBox="0 0 64 64" version="1.1" xmlns="http://www.w3.org/2000/svg" xmlns:xlink="http://www.w3.org/1999/xlink">
    <title>infr-icon-04</title>
    <defs>
        <linearGradient x1="101.58598%" y1="4.58076187%" x2="14.8374542%" y2="84.3544937%" id="linearGradient-1">
            <stop stop-color="#007053" offset="0%"></stop>
            <stop stop-color="#409E53" offset="100%"></stop>
        </linearGradient>
    </defs>
    <g id="Design" stroke="none" stroke-width="1" fill="none" fill-rule="evenodd">
        <g id="GreenLine-New:-Инфраструктура:-Раскладка:-Десктоп" transform="translate(-1136.000000, -446.000000)">
            <g id="infr-icon-04" transform="translate(1136.000000, 446.000000)">
                <rect id="sizer" x="0" y="0" width="64" height="64"></rect>
                <path d="M22.0985937,40.2511719 C25.4891797,39.9112109 28.9003906,41.0075 31.4568359,43.2571484 C32.2766797,43.9785547 32.6343359,44.421875 33.44375,44.421875 L33.44375,44.421875 L39.1484375,44.421875 C41.4059375,44.421875 43.3360156,45.8481641 44.0867187,47.8467969 L44.0867187,47.8467969 L49.4823828,42.4511328 C51.5383203,40.3949609 54.8836719,40.3950781 56.9394922,42.4510156 C58.9954297,44.5069531 58.9954297,47.8523047 56.9394922,49.9082422 L56.9394922,49.9082422 L46.3926172,60.4551172 C45.3965234,61.4513281 44.0723047,62 42.6640625,62 L42.6640625,62 L7.2734375,62 C6.30265625,62 5.515625,61.2129687 5.515625,60.2421875 L5.515625,60.2421875 L5.515625,46.1796875 C5.515625,45.2089062 6.30265625,44.421875 7.2734375,44.421875 L7.2734375,44.421875 L14.0382031,44.421875 C16.1219141,42.0372266 18.9524609,40.5660547 22.0985937,40.2511719 Z M12.78125,47.9375 L9.03125,47.9375 L9.03125,58.484375 L12.78125,58.484375 L12.78125,47.9375 Z M29.1344141,45.8963281 C27.3083984,44.2893359 24.8710156,43.506875 22.44875,43.7492187 C20.0031641,43.9939062 17.8204297,45.2235547 16.296875,47.2115234 L16.296875,47.2115234 L16.296875,58.484375 L16.296875,58.484375 L42.6640625,58.484375 C43.1264844,58.484375 43.5794141,58.2966406 43.9067187,57.9692187 L43.9067187,57.9692187 L54.4535937,47.4223437 C55.1389062,46.7371484 55.1389062,45.6222266 54.4535937,44.9369141 C53.7682812,44.2517187 52.6534766,44.2517187 51.9681641,44.9369141 L51.9681641,44.9369141 L42.45125,54.4538281 C42.1216016,54.7834766 41.6746484,54.96875 41.2083594,54.96875 L41.2083594,54.96875 L31.9673047,54.96875 C31.4050391,54.96875 30.8725391,55.2407422 30.5430078,55.6963672 C29.9739453,56.4830469 28.8749609,56.6595312 28.0885156,56.0905859 C27.3018359,55.5216406 27.1253516,54.4227734 27.6942969,53.6360937 C28.6828906,52.2692187 30.2802734,51.453125 31.9673047,51.453125 L31.9673047,51.453125 L39.1484375,51.453125 C40.1176953,51.453125 40.90625,50.6645703 40.90625,49.6953125 C40.90625,48.7260547 40.1176953,47.9375 39.1484375,47.9375 L39.1484375,47.9375 L33.44375,47.9375 C31.2034766,47.9375 30.0251562,46.6803125 29.1344141,45.8963281 Z M32.1171875,2 C35.0249609,2 37.390625,4.36566406 37.390625,7.2734375 C37.390625,8.058125 37.2170703,8.80273437 36.9083984,9.47257812 C48.5217969,11.6308203 57.6285547,21.62375 58.4256641,33.875 L58.4256641,33.875 L60.2421875,33.875 C61.2129688,33.875 62,34.6620312 62,35.6328125 C62,36.6035937 61.2129688,37.390625 60.2421875,37.390625 L60.2421875,37.390625 L3.7578125,37.390625 C2.78703125,37.390625 2,36.6035937 2,35.6328125 C2,34.6620312 2.78703125,33.875 3.7578125,33.875 L3.7578125,33.875 L5.57550781,33.875 C6.39054688,21.5795703 15.7139844,11.6137109 27.3249219,9.47023437 C27.0169531,8.80097656 26.84375,8.0571875 26.84375,7.2734375 C26.84375,4.36566406 29.2094141,2 32.1171875,2 Z M32.1171875,12.5234375 C20.1938281,12.5234375 10.0335547,22.1446484 9.10109375,33.875 L9.10109375,33.875 L54.9030078,33.875 C54.0110938,21.9633594 44.1323047,12.5234375 32.1171875,12.5234375 Z M32.1171875,5.515625 C31.1479297,5.515625 30.359375,6.30417969 30.359375,7.2734375 C30.359375,8.24269531 31.1479297,9.03125 32.1171875,9.03125 C33.0864453,9.03125 33.875,8.24269531 33.875,7.2734375 C33.875,6.30417969 33.0864453,5.515625 32.1171875,5.515625 Z" id="Combined-Shape" fill="url(#linearGradient-1)"></path>
            </g>
        </g>
    </g>
</svg>