<?xml version="1.0" encoding="UTF-8"?>
<svg width="72px" height="72px" viewBox="0 0 72 72" version="1.1" xmlns="http://www.w3.org/2000/svg" xmlns:xlink="http://www.w3.org/1999/xlink">
    <title>prem-icon-03</title>
    <defs>
        <linearGradient x1="101.58598%" y1="34.227822%" x2="14.8374542%" y2="61.9298609%" id="linearGradient-1">
            <stop stop-color="#007053" offset="0%"></stop>
            <stop stop-color="#409E53" offset="100%"></stop>
        </linearGradient>
        <linearGradient x1="64.5590755%" y1="4.58076187%" x2="40.076099%" y2="84.3544937%" id="linearGradient-2">
            <stop stop-color="#007053" offset="0%"></stop>
            <stop stop-color="#409E53" offset="100%"></stop>
        </linearGradient>
    </defs>
    <g id="Design" stroke="none" stroke-width="1" fill="none" fill-rule="evenodd">
        <g id="GreenLine-New:-Страница-ЖК:-Десктоп" transform="translate(-48.000000, -8571.000000)">
            <g id="Group-49" transform="translate(48.000000, 8162.000000)">
                <g id="Group-47" transform="translate(0.000000, 203.000000)">
                    <g id="sizer-2" transform="translate(0.000000, 206.000000)">
                        <rect id="sizer" x="0" y="0" width="72" height="72"></rect>
                        <g id="shrub-(1)" transform="translate(0.000000, 4.000000)">
                            <path d="M64.4266929,34.8853595 C60.9156494,30.5649732 54.6158742,29.7386787 50.1203472,32.9584603 C46.453007,30.3477386 41.5532304,30.346979 37.8809683,32.960739 C32.5235672,29.120287 24.9109651,31.1370316 22.1785614,37.129647 C16.2958327,39.7696661 14.1306473,47.081206 17.8100187,52.4680168 C16.9863164,60.0646093 24.4947936,65.9469798 31.7500679,63.3918146 C33.778316,64.1061281 35.9214077,64.1558251 37.8726558,63.6564676 C39.5425917,64.0848603 41.3156681,64.099292 43.0138228,63.6834863 C43.6138534,64.0901773 44.3926027,64.0858369 44.9866178,63.6835948 C46.6774443,64.0976644 48.4506301,64.0865965 50.1273472,63.6564676 C52.078486,64.1558251 54.2219058,64.1061281 56.2499351,63.3918146 C64.0443183,66.1369788 71.9560607,59.159646 69.9455314,51.0778021 C74.281371,45.2590177 71.4311706,36.9062274 64.4266929,34.8853595 Z M31.0480998,59.9354839 C25.9832765,62.1349572 20.3518913,57.835079 21.3648122,52.3255448 C21.4553746,51.8333489 21.327406,51.3262872 21.0138282,50.934462 C18.0470341,47.2273674 19.6339545,41.7052461 24.116794,40.0935649 C24.6047154,39.9181062 24.9890587,39.5368062 25.165918,39.0527485 C26.6663228,34.9447139 31.6152087,33.2071625 35.3755176,35.4776006 C35.0129398,35.9938854 34.694987,36.5461952 34.4287685,37.1301896 C28.5176022,39.7816021 26.3948543,47.1374136 30.0596789,52.4707296 C29.7761792,55.096968 30.5070222,57.7163704 32.1107863,59.8273006 C31.7567398,59.7531891 31.3850839,59.7891055 31.0480998,59.9354839 L31.0480998,59.9354839 Z M46.8471941,60.4834533 C51.1973618,51.8521209 50.9011746,52.495361 50.9660339,52.174392 L52.7160322,43.4936881 C52.9054696,42.5534594 52.290892,41.6388387 51.3431586,41.4507929 C50.3947688,41.2627472 49.4735041,41.8726751 49.2839574,42.8127954 L47.5800059,51.2654138 L45.019649,56.3455788 L44.0217124,48.425847 L45.7160389,40.0214065 C45.9054763,39.0811778 45.2908987,38.1665571 44.3431652,37.9785114 C43.3951037,37.7905741 42.4735108,38.4002851 42.2839641,39.3405138 L40.9226841,46.0927994 L37.5533905,44.9785225 C36.6368289,44.6753489 35.6454548,45.1667853 35.3398614,46.076523 C35.0342679,46.9861523 35.5297362,47.9693505 36.4466259,48.2725241 L40.6503406,49.6627388 L41.9974019,60.3537853 C37.1456409,61.4074057 32.7205514,57.2248256 33.6149099,52.3240257 C33.7045973,51.8326978 33.576738,51.3269383 33.2640352,50.9356556 C30.2949443,47.2220504 31.8878803,41.7030759 36.3668916,40.0942159 C36.8551412,39.9188657 37.2397033,39.5373488 37.4165625,39.052857 C39.3247169,33.824686 46.4348507,32.8027502 49.7209101,37.4180634 C49.9720349,37.770934 50.3467533,38.0181171 50.7717841,38.1115432 C55.9353729,39.2462197 58.0570271,45.5604552 54.4550931,49.5318772 C54.0271091,50.003782 53.8927967,50.669592 54.1048747,51.2684521 C55.7881543,56.0237417 51.9400174,60.9505837 46.8471941,60.4834533 L46.8471941,60.4834533 Z M66.7042064,49.5327453 C66.2764411,50.0048671 66.1423475,50.6707856 66.3548629,51.2696457 C68.3894548,57.0092186 62.4965541,62.3432941 56.9516844,59.9354839 C56.6148131,59.7891055 56.2431539,59.7531891 55.8891073,59.8271921 C57.8591679,57.2341573 58.4227768,54.0035248 57.6955431,51.0780191 C61.7441642,45.6479133 59.5928694,37.7610597 53.1148131,35.2071966 C56.1862789,33.6767885 59.9613534,34.5957496 61.9704609,37.4175209 C62.2215857,37.7701745 62.596304,38.0173575 63.0211161,38.1108921 C68.1864549,39.2464367 70.3043904,45.5604552 66.7042064,49.5327453 L66.7042064,49.5327453 Z" id="Shape" fill="url(#linearGradient-1)"></path>
                            <rect id="Rectangle" fill="#FFFFFF" x="16" y="30" width="10" height="31"></rect>
                            <path d="M32.0002807,59.9999805 L27.0772567,59.9999805 C28.3247628,56.7732148 30.0002709,51.1149373 30.0002709,43.9999027 C30.0002709,42.4696453 28.3505129,41.5098906 27.0212565,42.2557692 C27.9317609,38.0621238 28.9243907,31.514467 27.9742611,25.6785636 C27.7801351,24.4853078 26.5781293,23.7380541 25.4256237,24.0841808 C26.104877,20.3306626 26.6228795,15.5928895 25.9732514,11.6728704 C25.7818754,10.5179898 24.6464949,9.78048623 23.5222394,10.0577376 C22.9874868,7.22184878 21.8632314,3.41145524 19.5134699,0.692067013 C18.7182161,-0.228312465 17.2860841,-0.233062488 16.4868302,0.692067013 C14.1370688,3.41145524 13.0128133,7.22184878 12.4780607,10.0577376 C11.3526802,9.78023623 10.2181747,10.5189898 10.0270488,11.6728704 C9.37742062,15.5928895 9.89554814,20.3306626 10.5746764,24.0841808 C9.42167084,23.7379291 8.22016499,24.4859328 8.02603905,25.6785636 C7.07590942,31.514592 8.06853925,38.0621238 8.97904368,42.2557692 C7.64966221,41.5097656 6.00002919,42.4697703 6.00002919,43.9999027 C6.00002919,51.1149373 7.67553734,56.7732148 8.92304341,59.9999805 L2,59.9999805 C0.895504357,59.9999805 0,60.8953599 0,62 C0,63.1046206 0.895504357,64 2,64 L32.0001557,64 C33.1046611,64 34.0001654,63.1046206 34.0001654,62 C34.0001654,60.8953599 33.1047861,59.9999805 32.0002807,59.9999805 L32.0002807,59.9999805 Z M13.2589395,60.0002305 C12.4125604,58.0930963 10.7294272,53.6906998 10.1789245,47.8125462 C11.4594307,48.2252983 12.3435601,48.0059222 12.6965618,47.8747966 C13.6934416,47.5045448 14.2259442,46.4181645 13.9090677,45.4030345 C13.9003176,45.3751594 13.6686915,44.6226557 13.356565,43.3771497 C15.6920763,42.7176465 18.4775899,41.4271402 19.7762212,38.919753 C20.2842237,37.9388732 19.9009718,36.7319923 18.920092,36.2239899 C17.9394623,35.7163624 16.7324564,36.0994893 16.2243289,37.080244 C15.6599512,38.1699993 14.1366938,38.9598782 12.5066858,39.4548806 C12.0360586,36.8917431 11.6310566,33.773603 11.6418066,30.6668378 C12.2661847,31.2432156 12.7721871,31.6297175 13.1371889,31.8042184 C14.6988215,32.551472 16.4135799,31.0864649 15.9159524,29.4260818 C15.8904523,29.3407064 13.7916921,22.2519219 13.7266918,15.9811414 C14.8884474,16.1423922 15.9509526,15.2641379 15.9985778,14.0778821 C16.0009528,14.0207569 16.2103289,9.39198434 18.0000876,5.67409125 C19.7898463,9.39198434 19.9993473,14.0203819 20.0014723,14.0756321 C20.0460975,15.2562629 21.1018527,16.1432672 22.2724834,15.9812664 C22.205358,22.2455469 20.1094728,29.3410814 20.0842227,29.4260818 C19.5875953,31.0833399 21.2982286,32.552597 22.8629862,31.8042184 C23.227863,31.6297175 23.7339905,31.2433406 24.3583685,30.6668378 C24.3837436,37.9581233 22.1187326,45.3146591 22.0914825,45.4022845 C21.57323,47.0569176 23.1116124,48.6859255 25.8213756,47.8126713 C25.6187496,49.9764318 25.2623729,51.9393163 24.8509959,53.6523247 C23.7981158,53.2765728 22.4333591,52.5464443 21.8267312,51.1858127 C21.376854,50.1768078 20.1943482,49.7238055 19.1857183,50.1734327 C18.1768384,50.6231849 17.7235862,51.8055657 18.1733384,52.8144456 C19.3988444,55.563584 21.9254817,56.8795904 23.7274904,57.4903433 C23.3568636,58.5527235 23.0076119,59.4002276 22.7413606,60.0002305 L13.2589395,60.0002305 L13.2589395,60.0002305 Z" id="Shape" fill="url(#linearGradient-2)"></path>
                        </g>
                    </g>
                </g>
            </g>
        </g>
    </g>
</svg>