<svg width="68" height="68" viewBox="0 0 68 68" fill="none" xmlns="http://www.w3.org/2000/svg">
<mask id="mask0" mask-type="alpha" maskUnits="userSpaceOnUse" x="0" y="0" width="69" height="68">
<path d="M35.258 0C15.7855 0 0 15.7855 0 35.2578V68H0.252834H21.4717H30.285H39.0788V67.9682C56.2676 67.3024 68.0002 53.0849 68.0002 35.6343V27.1773V18.2617V18.2615H56.7297C37.2572 18.2615 21.4717 34.0468 21.4717 53.5192V58.7894H8.81332V34.6461C8.81332 20.4357 20.3332 8.91559 34.5439 8.91559H68.0002V0H35.258ZM30.285 52.9076C30.285 38.6972 41.8049 27.1773 56.0156 27.1773H59.643V34.9737C59.643 48.1254 51.1649 58.7872 38.0128 58.7872H37.8177V58.7894H30.285V52.9076Z" fill="white"/>
</mask>
<g mask="url(#mask0)">
<path fill-rule="evenodd" clip-rule="evenodd" d="M35.258 0C15.7855 0 0 15.7855 0 35.2578V68H0.252834H21.4717H30.285H39.0788V67.9682C56.2676 67.3024 68.0002 53.0849 68.0002 35.6343V27.1773V18.2617V18.2615H56.7297C37.2572 18.2615 21.4717 34.0468 21.4717 53.5192V58.7894H8.81332V34.6461C8.81332 20.4357 20.3332 8.91559 34.5439 8.91559H68.0002V0H35.258ZM30.285 52.9076C30.285 38.6972 41.8049 27.1773 56.0156 27.1773H59.643V34.9737C59.643 48.1254 51.1649 58.7872 38.0128 58.7872H37.8177V58.7894H30.285V52.9076Z" fill="url(#paint0_linear)"/>
</g>
<defs>
<linearGradient id="paint0_linear" x1="69.0787" y1="3.11492" x2="10.0897" y2="57.3612" gradientUnits="userSpaceOnUse">
<stop stop-color="#007053"/>
<stop offset="1" stop-color="#409E53"/>
</linearGradient>
</defs>
</svg>
