<?xml version="1.0" encoding="UTF-8"?>
<svg width="72px" height="72px" viewBox="0 0 72 72" version="1.1" xmlns="http://www.w3.org/2000/svg" xmlns:xlink="http://www.w3.org/1999/xlink">
    <title>prem-icon-01</title>
    <defs>
        <linearGradient x1="101.58598%" y1="24.738483%" x2="14.8374542%" y2="69.1074677%" id="linearGradient-1">
            <stop stop-color="#007053" offset="0%"></stop>
            <stop stop-color="#409E53" offset="100%"></stop>
        </linearGradient>
    </defs>
    <g id="Design" stroke="none" stroke-width="1" fill="none" fill-rule="evenodd">
        <g id="GreenLine-New:-Страница-ЖК:-Десктоп" transform="translate(-48.000000, -8365.000000)">
            <g id="Group-49" transform="translate(48.000000, 8162.000000)">
                <g id="sizer-2" transform="translate(0.000000, 203.000000)">
                    <rect id="sizer" x="0" y="0" width="72" height="72"></rect>
                    <path d="M25.2317087,11 C38.0635894,11 48.4629301,18.6114965 48.4629301,27.9585723 L48.4629301,27.9585723 L48.4629301,42.1848624 L68.6333716,42.1848624 C69.387844,42.1848624 70,42.7970183 70,43.5510035 L70,43.5510035 L70,60.3463015 C70,61.1007741 69.387844,61.7129301 68.6333716,61.7129301 L68.6333716,61.7129301 L25.2726491,61.7129301 C24.3022649,61.7129301 23.3455275,61.644696 22.4029244,61.5623279 L22.4029244,61.5623279 L22.1704415,61.5623279 C10.8143635,60.4827694 2,53.3766915 2,44.7675172 L2,44.7675172 L2,27.9585723 C2,18.6114965 12.3993406,11 25.2317087,11 Z M4.86972477,35.9395068 L4.86972477,44.7538703 C4.86972477,51.5865252 11.8120413,57.2986811 21.0353211,58.6653096 L21.0353211,58.6653096 L21.0353211,55.2350917 C21.0353211,54.4806193 21.6474771,53.8684633 22.4019495,53.8684633 C23.156422,53.8684633 23.768578,54.4806193 23.768578,55.2350917 L23.768578,55.2350917 L23.768578,58.9933199 L23.768578,58.9933199 L29.2350917,58.9933199 L29.2350917,55.2350917 C29.2350917,54.4806193 29.8472477,53.8684633 30.6017202,53.8684633 C31.3557053,53.8684633 31.9683486,54.4806193 31.9683486,55.2350917 L31.9683486,55.2350917 L31.9683486,58.9933199 L37.2018921,58.9933199 L37.2018921,52.0646501 C37.2018921,51.3101778 37.8145356,50.6980218 38.5685207,50.6980218 C39.3229931,50.6980218 39.935149,51.3106651 39.935149,52.0646501 L39.935149,52.0646501 L39.935149,58.9933199 L45.4016628,58.9933199 L45.4016628,55.2350917 C45.4016628,54.4806193 46.0138187,53.8684633 46.7682913,53.8684633 C47.5227637,53.8684633 48.1349197,54.4806193 48.1349197,55.2350917 L48.1349197,55.2350917 L48.1349197,58.9933199 L53.6009461,58.9933199 L53.6009461,55.2350917 C53.6009461,54.4806193 54.213102,53.8684633 54.9675745,53.8684633 C55.722047,53.8684633 56.334203,54.4806193 56.334203,55.2350917 L56.334203,55.2350917 L56.334203,58.9933199 L61.8007167,58.9933199 L61.8007167,52.0646501 C61.8007167,51.3101778 62.4128727,50.6980218 63.1673452,50.6980218 C63.9213303,50.6980218 64.5334862,51.3106651 64.5334862,52.0646501 L64.5334862,52.0646501 L64.5334862,58.9796732 L67.2667431,58.9796732 L67.2667431,44.9176318 L25.3681765,44.9176318 C16.4719323,44.9176318 8.77806769,41.2827121 4.86972477,35.9395068 L4.86972477,35.9395068 Z M25.2999427,13.7464163 C14.0393923,13.7464163 4.80149083,20.1282396 4.80149083,27.9722189 C4.80149083,35.8166857 13.9711582,42.1985092 25.2999427,42.1985092 C36.628727,42.1985092 45.7983945,35.8166857 45.7983945,27.9727064 C45.7983945,20.1282396 36.5736525,13.7464163 25.2999427,13.7464163 Z M45.7983945,35.9395068 L45.7296732,35.9395068 C43.665109,38.6371846 40.965969,40.7826548 37.872047,42.1848624 L37.872047,42.1848624 L45.7983945,42.1848624 L45.7983945,35.9395068 Z M25.2999427,20.2788417 C30.9438646,20.2788417 35.521875,23.7363532 35.521875,27.9727064 C35.521875,32.2085723 30.930218,35.6660837 25.2999427,35.6660837 C19.6696675,35.6660837 15.0780103,32.2085723 15.0780103,27.9727064 C15.0780103,23.7363532 19.6560206,20.2788417 25.2999427,20.2788417 Z M25.2999427,22.9979644 C21.2409978,22.9979644 17.8107798,25.2803899 17.8107798,27.9722189 C17.8107798,30.6645356 21.2409978,32.9328268 25.2999427,32.9328268 C29.3584002,32.9328268 32.7886182,30.6645356 32.7886182,27.9722189 C32.7886182,25.2803899 29.3993406,23.0116112 25.2999427,23.0116112 L25.2999427,23.0116112 Z" id="Combined-Shape" stroke="#398B5F" stroke-width="0.7" fill="url(#linearGradient-1)"></path>
                </g>
            </g>
        </g>
    </g>
</svg>