<?xml version="1.0" encoding="UTF-8"?>
<svg width="72px" height="72px" viewBox="0 0 72 72" version="1.1" xmlns="http://www.w3.org/2000/svg" xmlns:xlink="http://www.w3.org/1999/xlink">
    <title>prem-icon-06</title>
    <defs>
        <linearGradient x1="101.58598%" y1="10.0807477%" x2="14.8374542%" y2="80.1943793%" id="linearGradient-1">
            <stop stop-color="#007053" offset="0%"></stop>
            <stop stop-color="#409E53" offset="100%"></stop>
        </linearGradient>
    </defs>
    <g id="Design" stroke="none" stroke-width="1" fill="none" fill-rule="evenodd">
        <g id="GreenLine-New:-Страница-ЖК:-Десктоп" transform="translate(-596.000000, -8365.000000)">
            <g id="Group-49" transform="translate(48.000000, 8162.000000)">
                <g id="Group-47" transform="translate(0.000000, 203.000000)">
                    <g id="sizer-2" transform="translate(548.000000, 0.000000)">
                        <rect id="sizer" x="0" y="0" width="72" height="72"></rect>
                        <g id="security-camera" transform="translate(4.000000, 4.000000)" fill="url(#linearGradient-1)">
                            <path d="M53.09375,4 L53.09375,8.6875 L62,8.6875 L62,27.4375 L53.09375,27.4375 L53.09375,32.125 L29.65625,32.125 L29.65625,41.903125 C32.3841406,42.870625 34.34375,45.4758203 34.34375,48.53125 C34.34375,52.4082813 31.1895313,55.5625 27.3125,55.5625 C24.2570703,55.5625 21.651875,53.6028906 20.684375,50.875 L20.684375,50.875 L6.6875,50.875 L6.6875,60.25 L2,60.25 L2,36.8125 L6.6875,36.8125 L6.6875,46.1875 L20.684375,46.1875 C21.3917187,44.1930859 22.9744531,42.6104688 24.96875,41.903125 L24.96875,41.903125 L24.96875,32.125 L9.03125,32.125 C5.15421875,32.125 2,28.9707813 2,25.09375 L2,25.09375 L2,11.03125 C2,7.15421875 5.15421875,4 9.03125,4 L9.03125,4 L53.09375,4 Z M27.3125,46.1875 C26.0201562,46.1875 24.96875,47.2389063 24.96875,48.53125 C24.96875,49.8235938 26.0201562,50.875 27.3125,50.875 C28.6048438,50.875 29.65625,49.8235938 29.65625,48.53125 C29.65625,47.2389063 28.6048438,46.1875 27.3125,46.1875 Z M48.40625,8.6875 L9.03125,8.6875 C7.73890625,8.6875 6.6875,9.73890625 6.6875,11.03125 L6.6875,11.03125 L6.6875,25.09375 C6.6875,26.3860938 7.73890625,27.4375 9.03125,27.4375 L9.03125,27.4375 L48.40625,27.4375 L48.40625,8.6875 Z M57.3125,13.375 L53.09375,13.375 L53.09375,22.75 L57.3125,22.75 L57.3125,13.375 Z M41.375,13.375 C42.6694174,13.375 43.71875,14.4243326 43.71875,15.71875 C43.71875,17.0131674 42.6694174,18.0625 41.375,18.0625 C40.0805826,18.0625 39.03125,17.0131674 39.03125,15.71875 C39.03125,14.4243326 40.0805826,13.375 41.375,13.375 Z" id="Combined-Shape" transform="translate(32.000000, 32.125000) scale(-1, 1) translate(-32.000000, -32.125000) "></path>
                        </g>
                    </g>
                </g>
            </g>
        </g>
    </g>
</svg>