<?xml version="1.0" encoding="UTF-8"?>
<svg width="72px" height="72px" viewBox="0 0 72 72" version="1.1" xmlns="http://www.w3.org/2000/svg" xmlns:xlink="http://www.w3.org/1999/xlink">
    <title>prem-icon-09</title>
    <defs>
        <linearGradient x1="101.584406%" y1="4.58076187%" x2="14.8385272%" y2="84.3544937%" id="linearGradient-1">
            <stop stop-color="#007053" offset="0%"></stop>
            <stop stop-color="#409E53" offset="100%"></stop>
        </linearGradient>
    </defs>
    <g id="Design" stroke="none" stroke-width="1" fill="none" fill-rule="evenodd">
        <g id="GreenLine-New:-Страница-ЖК:-Десктоп" transform="translate(-1144.000000, -8571.000000)">
            <g id="Group-49" transform="translate(48.000000, 8162.000000)">
                <g id="Group-47" transform="translate(0.000000, 203.000000)">
                    <g id="sizer-2" transform="translate(1096.000000, 206.000000)">
                        <rect id="sizer" x="0" y="0" width="72" height="72"></rect>
                        <g id="baby-stroller" transform="translate(5.000000, 5.000000)" fill="url(#linearGradient-1)">
                            <path d="M61.999054,25.1633758 C61.999054,25.1629028 61.999054,25.1629028 61.999054,25.1624298 C61.999054,25.1619567 61.999054,25.1614837 61.999054,25.1614837 C61.999054,11.287262 50.711319,0 36.8356781,0 C35.8323975,0 35.0192718,0.813125641 35.0192718,1.81640625 L35.0192718,23.3469696 L15.184021,23.3469696 C14.3079834,16.7899323 8.69178775,11.6732484 1.81546027,11.6732484 C0.812179535,11.6732484 3.22658567e-15,12.486847 3.22658567e-15,13.4896546 C3.22658567e-15,14.4929352 0.814071625,15.3060609 1.81735223,15.3060609 C7.26042172,15.3060609 11.6727752,19.7094269 11.6727752,25.1614837 L11.6727752,25.1633758 L11.6727752,25.1643219 L11.6727752,25.1652679 C11.6727752,35.4629669 17.8916016,44.3335571 26.7711792,48.2236938 L25.503479,49.491394 C24.5385132,48.9497834 23.4269105,48.6390075 22.2438812,48.6390075 C18.5604554,48.6390075 15.5633851,51.6360778 15.5633851,55.3195038 C15.5633851,59.0034027 18.5604554,62 22.2438812,62 C25.9273071,62 28.9239044,59.0034027 28.9239044,55.3195038 C28.9239044,54.1364746 28.6136017,53.0253449 28.0719909,52.0603791 L30.5903626,49.5420075 C32.5879364,50.0538177 34.6805877,50.3267516 36.8356781,50.3267516 C38.4245605,50.3267516 39.9789124,50.1768036 41.487381,49.8939362 L43.6538239,52.0603791 C43.1122132,53.0253449 42.8014373,54.1364746 42.8014373,55.3195038 C42.8014373,59.0034027 45.7985077,62 49.4819336,62 C53.1653595,62 56.1619567,59.0034027 56.1619567,55.3195038 C56.1619567,51.6360778 53.1653595,48.6390075 49.4819336,48.6390075 C48.2989044,48.6390075 47.1873016,48.9497834 46.2223358,49.491394 L45.5142212,48.7832794 C55.1260376,45.2408141 61.999054,35.9894409 61.999054,25.1633758 Z M22.2438812,58.3671875 C20.5632324,58.3671875 19.1961976,57.0001526 19.1961976,55.3195038 C19.1961976,53.639328 20.5632324,52.27182 22.2438812,52.27182 C23.924057,52.27182 25.2910919,53.639328 25.2910919,55.3195038 C25.2910919,57.0001526 23.924057,58.3671875 22.2438812,58.3671875 Z M52.5291442,55.3195038 C52.5291442,57.0001526 51.1625824,58.3671875 49.4819336,58.3671875 C47.8012848,58.3671875 46.4342498,57.0001526 46.4342498,55.3195038 C46.4342498,53.639328 47.8012848,52.27182 49.4819336,52.27182 C51.1625824,52.27182 52.5291442,53.639328 52.5291442,55.3195038 L52.5291442,55.3195038 Z M53.2840882,11.2834778 C56.0867462,14.5998382 57.9069367,18.7723694 58.2900848,23.3469696 L41.2205963,23.3469696 L53.2840882,11.2834778 Z M50.7151032,8.71496582 L38.6520843,20.7779847 L38.6520843,3.70849609 C43.2266846,4.09211734 47.3992157,5.91230777 50.7151032,8.71496582 Z M36.833786,46.6939391 C25.5744323,46.6939391 16.3060303,38.0054626 15.3812713,26.9797821 L58.2900848,26.9797821 C57.3648529,38.0049896 48.0959778,46.6939391 36.833786,46.6939391 Z" id="Shape"></path>
                        </g>
                    </g>
                </g>
            </g>
        </g>
    </g>
</svg>