<?xml version="1.0" encoding="UTF-8"?>
<svg width="72px" height="72px" viewBox="0 0 72 72" version="1.1" xmlns="http://www.w3.org/2000/svg" xmlns:xlink="http://www.w3.org/1999/xlink">
    <title>prem-icon-04</title>
    <defs>
        <linearGradient x1="101.58598%" y1="4.58076187%" x2="14.8374542%" y2="84.3544937%" id="linearGradient-1">
            <stop stop-color="#007053" offset="0%"></stop>
            <stop stop-color="#409E53" offset="100%"></stop>
        </linearGradient>
    </defs>
    <g id="Design" stroke="none" stroke-width="1" fill="none" fill-rule="evenodd">
        <g id="GreenLine-New:-Страница-ЖК:-Десктоп" transform="translate(-322.000000, -8365.000000)">
            <g id="Group-49" transform="translate(48.000000, 8162.000000)">
                <g id="Group-47" transform="translate(0.000000, 203.000000)">
                    <g id="sizer-2" transform="translate(274.000000, 0.000000)">
                        <rect id="sizer" x="0" y="0" width="72" height="72"></rect>
                        <path d="M59.99505,34 C61.0996195,34 61.99505,34.8954305 61.99505,36 L61.99505,36 L61.99505,42 L63.99505,42 C65.0996195,42 65.99505,42.8954305 65.99505,44 C65.99505,45.1045695 65.0996195,46 63.99505,46 L63.99505,46 L61.99505,46 L61.99505,52 L65.99505,52 C66.5822766,52.0044175 67.1382963,52.265042 67.5173605,52.7135562 C67.8964247,53.1620704 68.0607346,53.7537504 67.96722,54.3335 L67.96722,54.3335 L65.93841,66.3335 C65.7757717,67.2958296 64.9422261,68 63.96625,68 L63.96625,68 L56.02386,68 C55.0478816,68 54.2143327,67.2958311 54.05169,66.3335 L54.05169,66.3335 L52.02289,54.3335 C51.9293756,53.7537521 52.0936843,53.1620737 52.4727462,52.7135599 C52.8518082,52.2650461 53.4078251,52.0044204 53.99505,52 L53.99505,52 L57.99505,52 L57.99505,41 L56.99505,41 C55.8904805,41 54.99505,40.1045695 54.99505,39 C54.99505,37.8954305 55.8904805,37 56.99505,37 L56.99505,37 L57.99505,37 L57.99505,36 C57.99505,34.8954305 58.8904805,34 59.99505,34 Z M39,27 C41.7600782,27.0032456 43.9967544,29.2399218 44,32 L44,32 L44,39 C46.2080927,39.0025239 47.9974761,40.7919073 48,43 L48,43 L48,64 C47.9974761,66.2080927 46.2080927,67.9974761 44,68 L44,68 L40,68 C37.7919073,67.9974761 36.0025239,66.2080927 36,64 L36,64 L36,62 L16,62 L16,64 C15.9974761,66.2080927 14.2080927,67.9974761 12,68 L12,68 L8,68 C5.79190729,67.9974761 4.00252393,66.2080927 4,64 L4,64 L4,43 C4.00252393,40.7919073 5.79190729,39.0025239 8,39 L8,39 L8,32 C8.00324014,29.2399195 10.2399195,27.0032401 13,27 L13,27 Z M63.62835,56 L56.36175,56 L57.71429,64 L62.27582,64 L63.62835,56 Z M12,43 L8,43 L8,64 L12.00244,64 L12.002,60.01959 L12,60 L12,43 Z M44,43 L40,43 L40,64 L44,64 L44,43 Z M36,52 L16,52 L16,58 L36,58 L36,52 Z M39,31 L13,31 C12.4480122,31.0007162 12.0007162,31.4480122 12,32 L12,32 L12,39 C14.2080927,39.0025239 15.9974761,40.7919073 16,43 L16,43 L16,48 L36,48 L36,43 C36.0025239,40.7919073 37.7919073,39.0025239 40,39 L40,39 L40,32 C39.9992838,31.4480122 39.5519878,31.0007162 39,31 L39,31 Z M30,38 C31.1045695,38 32,38.8954305 32,40 C32,41.1045695 31.1045695,42 30,42 C28.8954305,42 28,41.1045695 28,40 C28,38.8954305 28.8954305,38 30,38 Z M22,38 C23.1045695,38 24,38.8954305 24,40 C24,41.1045695 23.1045695,42 22,42 C20.8954305,42 20,41.1045695 20,40 C20,38.8954305 20.8954305,38 22,38 Z M55,4 C62.1797017,4 68,9.82029825 68,17 C68,24.1797017 62.1797017,30 55,30 C47.8235949,29.9920474 42.0079526,24.1764051 42,17 C42,9.82029825 47.8202983,4 55,4 Z M55,8 C50.0318291,8.00576958 46.0057696,12.0318291 46,17 C46,21.9705627 50.0294373,26 55,26 C59.9705627,26 64,21.9705627 64,17 C64,12.0294373 59.9705627,8 55,8 Z M55,11 C56.1045695,11 57,11.8954305 57,13 L57,13 L57,16.17188 L58.41406,17.58594 C59.1950238,18.3669038 59.1950238,19.6330962 58.41406,20.41406 C57.6330962,21.1950238 56.3669038,21.1950238 55.58594,20.41406 L55.58594,20.41406 L53.58722,18.41534 C53.2163215,18.0369154 53.0059396,17.5298449 53,17 L53,17 L53,13 C53,11.8954305 53.8954305,11 55,11 Z" id="Combined-Shape" fill="url(#linearGradient-1)"></path>
                    </g>
                </g>
            </g>
        </g>
    </g>
</svg>