<?xml version="1.0" encoding="UTF-8"?>
<svg width="72px" height="72px" viewBox="0 0 72 72" version="1.1" xmlns="http://www.w3.org/2000/svg" xmlns:xlink="http://www.w3.org/1999/xlink">
    <title>prem-icon-05</title>
    <defs>
        <linearGradient x1="101.58598%" y1="4.58076187%" x2="14.8374542%" y2="84.3544937%" id="linearGradient-1">
            <stop stop-color="#007053" offset="0%"></stop>
            <stop stop-color="#409E53" offset="100%"></stop>
        </linearGradient>
    </defs>
    <g id="Design" stroke="none" stroke-width="1" fill="none" fill-rule="evenodd">
        <g id="GreenLine-New:-Страница-ЖК:-Десктоп" transform="translate(-596.000000, -8571.000000)">
            <g id="Group-49" transform="translate(48.000000, 8162.000000)">
                <g id="Group-47" transform="translate(0.000000, 203.000000)">
                    <g id="sizer-2" transform="translate(548.000000, 206.000000)">
                        <rect id="sizer" x="0" y="0" width="72" height="72"></rect>
                        <g id="smart-lock" transform="translate(6.000000, 6.000000)" fill="url(#linearGradient-1)">
                            <path d="M54.3750082,4.61852778e-14 C57.4767224,4.61852778e-14 60,2.52339474 60,5.62499176 L60,5.62499176 L60,54.3749203 C60,57.4765174 57.4767224,59.9999121 54.3750082,59.9999121 L54.3750082,59.9999121 L33.7500385,59.9999121 C30.6483242,59.9999121 28.1250467,57.4765174 28.1250467,54.3749203 L28.1250467,54.3749203 L28.1250467,29.0624574 L13.1250687,29.0624574 C10.0234716,29.0624574 7.5000769,26.5390627 7.5000769,23.4374657 C7.5000769,20.3358686 10.0234716,17.8124739 13.1250687,17.8124739 L13.1250687,17.8124739 L28.1250467,17.8124739 L28.1250467,5.62499176 C28.1250467,2.52339474 30.6483242,4.61852778e-14 33.7500385,4.61852778e-14 L33.7500385,4.61852778e-14 Z M54.3750082,3.74999451 L33.7500385,3.74999451 C32.7162118,3.74999451 31.8750412,4.59116515 31.8750412,5.62499176 L31.8750412,5.62499176 L31.8750412,17.8124739 L36.5649953,17.8124739 C38.3231568,15.4755242 41.1047152,14.0624794 44.0625233,14.0624794 C49.2318908,14.0624794 53.4375096,18.2680982 53.4375096,23.4374657 C53.4375096,28.6068331 49.2318908,32.8124519 44.0625233,32.8124519 C41.104598,32.8124519 38.3231568,31.3994071 36.5649953,29.0624574 L36.5649953,29.0624574 L31.8750412,29.0624574 L31.8750412,54.3749203 C31.8750412,55.408747 32.7162118,56.2499176 33.7500385,56.2499176 L33.7500385,56.2499176 L54.3750082,56.2499176 C55.4088349,56.2499176 56.2500055,55.408747 56.2500055,54.3749203 L56.2500055,54.3749203 L56.2500055,5.62499176 C56.2500055,4.59116515 55.4088349,3.74999451 54.3750082,3.74999451 L54.3750082,3.74999451 Z M13.1449905,48.7499286 C14.6982891,48.7499286 15.9574864,50.0091259 15.9574864,51.5624245 C15.9574864,53.1157231 14.6982891,54.3749203 13.1449905,54.3749203 C11.5916919,54.3749203 10.3324946,53.1157231 10.3324946,51.5624245 C10.3324946,50.0091259 11.5916919,48.7499286 13.1449905,48.7499286 Z M44.0625233,38.4374437 C46.1301766,38.4374437 47.8125179,40.1196678 47.8125179,42.1874382 C47.8125179,43.5724752 47.0572455,44.7834891 45.9375206,45.4329413 L45.9375206,45.4329413 L45.9375206,48.7499286 C45.9375206,49.7853958 45.0981078,50.6249258 44.0625233,50.6249258 C43.0269389,50.6249258 42.1875261,49.7853958 42.1875261,48.7499286 L42.1875261,48.7499286 L42.1875261,45.4329413 C41.0678012,44.7834891 40.3125288,43.572358 40.3125288,42.1874382 C40.3125288,40.1196678 41.9947529,38.4374437 44.0625233,38.4374437 Z M5.85254026,44.270443 C9.87335468,40.2495114 16.415806,40.2495114 20.4363861,44.2705602 C21.6209156,45.4549725 20.766034,47.4712976 19.1106458,47.4712976 C18.6307637,47.4712976 18.1509988,47.288251 17.7847884,46.9220406 C15.2261203,44.3633725 11.0628061,44.3633725 8.50413793,46.9220406 C7.77183432,47.6543443 6.58472668,47.6543443 5.85254026,46.9220406 C5.12023664,46.1898542 5.12023664,45.0026294 5.85254026,44.270443 Z M0.549227711,38.9671304 C7.49433473,32.0220234 18.794826,32.0220234 25.7396986,38.9671304 C26.9242281,40.1516599 26.0693466,42.1679851 24.4139584,42.1679851 C23.9341935,42.1679851 23.4543113,41.9849385 23.0882181,41.6187281 C17.6052574,36.1358846 8.68378611,36.1358846 3.20082539,41.6187281 C2.46863896,42.3510317 1.28141414,42.3510317 0.549227711,41.6187281 C-0.183075904,40.8865417 -0.183075904,39.699434 0.549227711,38.9671304 Z M44.0625233,17.8124739 C42.06237,17.8124739 40.1956931,18.8908317 39.1912805,20.6266104 C38.8560075,21.2058674 38.2374928,21.5624684 37.5683532,21.5624684 L37.5683532,21.5624684 L13.1250687,21.5624684 C12.0912421,21.5624684 11.2500714,22.4036391 11.2500714,23.4374657 C11.2500714,24.4712923 12.0912421,25.3124629 13.1250687,25.3124629 L13.1250687,25.3124629 L37.5683532,25.3124629 C38.2374928,25.3124629 38.8561247,25.6691811 39.1912805,26.2483209 C40.1956931,27.9840996 42.06237,29.0624574 44.0625233,29.0624574 C47.1641204,29.0624574 49.6875151,26.5390627 49.6875151,23.4374657 C49.6875151,20.3358686 47.1641204,17.8124739 44.0625233,17.8124739 Z" id="Combined-Shape"></path>
                        </g>
                    </g>
                </g>
            </g>
        </g>
    </g>
</svg>