<?xml version="1.0" encoding="UTF-8"?>
<svg width="72px" height="72px" viewBox="0 0 72 72" version="1.1" xmlns="http://www.w3.org/2000/svg" xmlns:xlink="http://www.w3.org/1999/xlink">
    <title>prem-icon-010</title>
    <defs>
        <linearGradient x1="101.58598%" y1="4.58076187%" x2="14.8374542%" y2="84.3544937%" id="linearGradient-1">
            <stop stop-color="#007053" offset="0%"></stop>
            <stop stop-color="#409E53" offset="100%"></stop>
        </linearGradient>
    </defs>
    <g id="Design" stroke="none" stroke-width="1" fill="none" fill-rule="evenodd">
        <g id="GreenLine-New:-Страница-ЖК:-Десктоп" transform="translate(-1144.000000, -8365.000000)">
            <g id="Group-49" transform="translate(48.000000, 8162.000000)">
                <g id="Group-47" transform="translate(0.000000, 203.000000)">
                    <g id="sizer-2" transform="translate(1096.000000, 0.000000)">
                        <rect id="sizer" x="0" y="0" width="72" height="72"></rect>
                        <g id="car-parking" transform="translate(4.000000, 4.000000)" fill="url(#linearGradient-1)">
                            <path d="M29.404875,25.25 C32.464375,25.25 35.110625,27.218875 35.989875,30.149375 L35.989875,30.149375 L38.316,37.903125 C41.41725,38.567375 43.75,41.328375 43.75,44.625 L43.75,44.625 L43.75,54.625 C43.75,55.6605 42.9105,56.5 41.875,56.5 L41.875,56.5 L41.25,56.5 L41.25,58.375 C41.25,61.476625 38.726625,64 35.625,64 C32.523375,64 30,61.476625 30,58.375 L30,58.375 L30,56.5 L13.75,56.5 L13.75,58.375 C13.75,61.476625 11.226625,64 8.125,64 C5.023375,64 2.5,61.476625 2.5,58.375 L2.5,58.375 L2.5,56.5 L1.875,56.5 C0.8395,56.5 3.55271368e-15,55.6605 3.55271368e-15,54.625 L3.55271368e-15,54.625 L3.55271368e-15,44.625 C3.55271368e-15,41.328375 2.33275,38.567375 5.434,37.903125 L5.434,37.903125 L7.760125,30.149375 C8.639375,27.218875 11.285625,25.25 14.345125,25.25 L14.345125,25.25 Z M59.625,0 C62.037375,0 64,1.962625 64,4.375 L64,4.375 L64,24.375 C64,26.787375 62.037375,28.75 59.625,28.75 L59.625,28.75 L53.375,28.75 L53.375,60.25 L56.5,60.25 C57.5355,60.25 58.375,61.0895 58.375,62.125 C58.375,63.1605 57.5355,64 56.5,64 L56.5,64 L46.5,64 C45.4645,64 44.625,63.1605 44.625,62.125 C44.625,61.0895 45.4645,60.25 46.5,60.25 L46.5,60.25 L49.625,60.25 L49.625,28.75 L43.375,28.75 C40.962625,28.75 39,26.787375 39,24.375 L39,24.375 L39,4.375 C39,1.962625 40.962625,0 43.375,0 L43.375,0 Z M10,56.5 L6.25,56.5 L6.25,58.375 C6.25,59.408875 7.091125,60.25 8.125,60.25 C9.158875,60.25 10,59.408875 10,58.375 L10,58.375 L10,56.5 Z M37.5,56.5 L33.75,56.5 L33.75,58.375 C33.75,59.408875 34.591125,60.25 35.625,60.25 C36.658875,60.25 37.5,59.408875 37.5,58.375 L37.5,58.375 L37.5,56.5 Z M36.875,41.5 L6.875,41.5 C5.151875,41.5 3.75,42.901875 3.75,44.625 L3.75,44.625 L3.75,45.25 L6.875,45.25 C7.9105,45.25 8.75,46.0895 8.75,47.125 C8.75,48.1605 7.9105,49 6.875,49 L6.875,49 L3.75,49 L3.75,52.75 L40,52.75 L40,49 L36.875,49 C35.8395,49 35,48.1605 35,47.125 C35,46.0895 35.8395,45.25 36.875,45.25 L36.875,45.25 L40,45.25 L40,44.625 C40,42.901875 38.598125,41.5 36.875,41.5 L36.875,41.5 Z M26.875,45.25 C27.9105,45.25 28.75,46.0895 28.75,47.125 C28.75,48.1605 27.9105,49 26.875,49 L26.875,49 L16.875,49 C15.8395,49 15,48.1605 15,47.125 C15,46.0895 15.8395,45.25 16.875,45.25 L16.875,45.25 Z M29.405,29 L14.345125,29 C12.9545,29 11.751625,29.895 11.351875,31.227 L11.351875,31.227 L9.395,37.75 L34.355,37.75 L32.398125,31.227 C31.9985,29.895 30.795625,29 29.405,29 L29.405,29 Z M59.625,3.75 L43.375,3.75 C43.030375,3.75 42.75,4.030375 42.75,4.375 L42.75,4.375 L42.75,24.375 C42.75,24.719625 43.030375,25 43.375,25 L43.375,25 L59.625,25 C59.969625,25 60.25,24.719625 60.25,24.375 L60.25,24.375 L60.25,4.375 C60.25,4.030375 59.969625,3.75 59.625,3.75 L59.625,3.75 Z M51.82275,7.5 C54.296875,7.5 56.30975,9.485125 56.30975,11.924875 C56.30975,14.364625 54.296875,16.3495 51.82275,16.3495 C51.39075,16.3495 50.610375,16.353125 49.94025,16.356625 L49.94025,16.356625 L49.94025,20 C49.94025,20.69025 49.3805,21.25 48.69025,21.25 C48,21.25 47.44025,20.69025 47.44025,20 L47.44025,20 L47.44025,8.75 L47.4483127,8.60922595 C47.479898,8.33014286 47.60475,8.06828571 47.805,7.8675 C48.0395,7.63225 48.358125,7.5 48.69025,7.5 L48.69025,7.5 Z M51.82275,10.000125 L49.944125,10.000125 C49.94525,10.43145 49.946465,10.903365 49.947257,11.292723 L49.947889,11.650001 C49.94804,11.75688 49.948125,11.850025 49.948125,11.924875 L49.9486209,12.2666538 C49.9497299,12.7159105 49.9525278,13.3206111 49.95525,13.8565 C50.622375,13.852875 51.392625,13.8495 51.82275,13.8495 C52.89975,13.8495 53.80975,12.968125 53.80975,11.924875 C53.80975,10.881625 52.89975,10.000125 51.82275,10.000125 L51.82275,10.000125 Z" id="Combined-Shape"></path>
                        </g>
                    </g>
                </g>
            </g>
        </g>
    </g>
</svg>