<?xml version="1.0" encoding="UTF-8"?>
<svg width="72px" height="72px" viewBox="0 0 72 72" version="1.1" xmlns="http://www.w3.org/2000/svg" xmlns:xlink="http://www.w3.org/1999/xlink">
    <title>prem-icon-07</title>
    <defs>
        <linearGradient x1="101.58598%" y1="4.58076187%" x2="14.8374542%" y2="84.3544937%" id="linearGradient-1">
            <stop stop-color="#007053" offset="0%"></stop>
            <stop stop-color="#409E53" offset="100%"></stop>
        </linearGradient>
    </defs>
    <g id="Design" stroke="none" stroke-width="1" fill="none" fill-rule="evenodd">
        <g id="GreenLine-New:-Страница-ЖК:-Десктоп" transform="translate(-870.000000, -8571.000000)">
            <g id="Group-49" transform="translate(48.000000, 8162.000000)">
                <g id="Group-47" transform="translate(0.000000, 203.000000)">
                    <g id="sizer-2" transform="translate(822.000000, 206.000000)">
                        <rect id="sizer" x="0" y="0" width="72" height="72"></rect>
                        <g id="delivery-box" transform="translate(5.000000, 5.000000)" fill="url(#linearGradient-1)">
                            <path d="M45.5917969,0 C46.5949375,0 47.4082031,0.813265625 47.4082031,1.81640625 L47.4082031,1.81640625 L47.4082031,29.1835938 L60.1835938,29.1835938 C61.1867344,29.1835938 62,29.9968594 62,31 L62,31 L62,60.1835938 C62,61.1867344 61.1867344,62 60.1835938,62 L60.1835938,62 L1.81640625,62 C0.813265625,62 0,61.1867344 0,60.1835938 L0,60.1835938 L0,31 C0,29.9968594 0.813265625,29.1835938 1.81640625,29.1835938 L1.81640625,29.1835938 L14.5917969,29.1835938 L14.5917969,1.81640625 C14.5917969,0.813265625 15.4050625,0 16.4082031,0 L16.4082031,0 Z M10.65625,32.8164062 L3.6328125,32.8164062 L3.6328125,58.3671875 L29.1835938,58.3671875 L29.1835938,32.8164062 L22.1601562,32.8164062 L22.1601562,41.8984375 C22.1601562,42.9015781 21.3468906,43.7148438 20.34375,43.7148438 L20.34375,43.7148438 L12.4726562,43.7148438 C11.4695156,43.7148438 10.65625,42.9015781 10.65625,41.8984375 L10.65625,41.8984375 L10.65625,32.8164062 Z M39.8398438,32.8164062 L32.8164062,32.8164062 L32.8164062,58.3671875 L58.3671875,58.3671875 L58.3671875,32.8164062 L51.34375,32.8164062 L51.34375,41.8984375 C51.34375,42.9015781 50.5304844,43.7148438 49.5273438,43.7148438 L49.5273438,43.7148438 L41.65625,43.7148438 C40.6531094,43.7148438 39.8398438,42.9015781 39.8398438,41.8984375 L39.8398438,41.8984375 L39.8398438,32.8164062 Z M23.734375,51.1015625 C24.7375156,51.1015625 25.5507812,51.9148281 25.5507812,52.9179688 C25.5507812,53.9211094 24.7375156,54.734375 23.734375,54.734375 L23.734375,54.734375 L20.1015625,54.734375 C19.0984219,54.734375 18.2851562,53.9211094 18.2851562,52.9179688 C18.2851562,51.9148281 19.0984219,51.1015625 20.1015625,51.1015625 L20.1015625,51.1015625 Z M52.9179688,51.1015625 C53.9211094,51.1015625 54.734375,51.9148281 54.734375,52.9179688 C54.734375,53.9211094 53.9211094,54.734375 52.9179688,54.734375 L52.9179688,54.734375 L49.2851562,54.734375 C48.2820156,54.734375 47.46875,53.9211094 47.46875,52.9179688 C47.46875,51.9148281 48.2820156,51.1015625 49.2851562,51.1015625 L49.2851562,51.1015625 Z M47.7109375,32.8164062 L43.4726562,32.8164062 L43.4726562,40.0820312 L47.7109375,40.0820312 L47.7109375,32.8164062 Z M18.5273438,32.8164062 L14.2890625,32.8164062 L14.2890625,40.0820312 L18.5273438,40.0820312 L18.5273438,32.8164062 Z M25.2480469,3.6328125 L18.2246094,3.6328125 L18.2246094,29.1835938 L43.7753906,29.1835938 L43.7753906,3.6328125 L36.7519531,3.6328125 L36.7519531,12.7148438 C36.7519531,13.7179844 35.9386875,14.53125 34.9355469,14.53125 L34.9355469,14.53125 L27.0644531,14.53125 C26.0613125,14.53125 25.2480469,13.7179844 25.2480469,12.7148438 L25.2480469,12.7148438 L25.2480469,3.6328125 Z M38.3261719,21.9179688 C39.3293125,21.9179688 40.1425781,22.7312344 40.1425781,23.734375 C40.1425781,24.7375156 39.3293125,25.5507812 38.3261719,25.5507812 L38.3261719,25.5507812 L34.6933594,25.5507812 C33.6902187,25.5507812 32.8769531,24.7375156 32.8769531,23.734375 C32.8769531,22.7312344 33.6902187,21.9179688 34.6933594,21.9179688 L34.6933594,21.9179688 Z M33.1191406,3.6328125 L28.8808594,3.6328125 L28.8808594,10.8984375 L33.1191406,10.8984375 L33.1191406,3.6328125 Z" id="Combined-Shape"></path>
                        </g>
                    </g>
                </g>
            </g>
        </g>
    </g>
</svg>