<?xml version="1.0" encoding="UTF-8"?>
<svg width="72px" height="72px" viewBox="0 0 72 72" version="1.1" xmlns="http://www.w3.org/2000/svg" xmlns:xlink="http://www.w3.org/1999/xlink">
    <title>prem-icon-02</title>
    <defs>
        <linearGradient x1="101.58598%" y1="4.58076187%" x2="14.8374542%" y2="84.3544937%" id="linearGradient-1">
            <stop stop-color="#007053" offset="0%"></stop>
            <stop stop-color="#409E53" offset="100%"></stop>
        </linearGradient>
    </defs>
    <g id="Design" stroke="none" stroke-width="1" fill="none" fill-rule="evenodd">
        <g id="GreenLine-New:-Страница-ЖК:-Десктоп" transform="translate(-322.000000, -8571.000000)">
            <g id="Group-49" transform="translate(48.000000, 8162.000000)">
                <g id="Group-47" transform="translate(0.000000, 203.000000)">
                    <g id="sizer-2" transform="translate(274.000000, 206.000000)">
                        <rect id="sizer" x="0" y="0" width="72" height="72"></rect>
                        <g id="intercom" transform="translate(4.000000, 4.000000)" fill="url(#linearGradient-1)">
                            <path d="M57.125,21.5 C60.915875,21.5 64,24.584125 64,28.375 L64,28.375 L64,57.125 C64,60.915875 60.915875,64 57.125,64 L57.125,64 L6.875,64 C3.084125,64 0,60.915875 0,57.125 L0,57.125 L0,28.375 C0,24.584125 3.084125,21.5 6.875,21.5 L6.875,21.5 Z M57.125,25.25 L6.875,25.25 C5.151875,25.25 3.75,26.651875 3.75,28.375 L3.75,28.375 L3.75,57.125 C3.75,58.848125 5.151875,60.25 6.875,60.25 L6.875,60.25 L57.125,60.25 C58.848125,60.25 60.25,58.848125 60.25,57.125 L60.25,57.125 L60.25,28.375 C60.25,26.651875 58.848125,25.25 57.125,25.25 L57.125,25.25 Z M50.75,44.625 C54.19625,44.625 57,47.42875 57,50.875 C57,54.32125 54.19625,57.125 50.75,57.125 C47.30375,57.125 44.5,54.32125 44.5,50.875 C44.5,47.42875 47.30375,44.625 50.75,44.625 Z M34.5,29 C35.5355,29 36.375,29.8395 36.375,30.875 L36.375,30.875 L36.375,54.625 C36.375,55.6605 35.5355,56.5 34.5,56.5 L34.5,56.5 L9.5,56.5 C8.4645,56.5 7.625,55.6605 7.625,54.625 L7.625,54.625 L7.625,30.875 C7.625,29.8395 8.4645,29 9.5,29 L9.5,29 Z M50.75,48.375 C49.3715,48.375 48.25,49.4965 48.25,50.875 C48.25,52.2535 49.3715,53.375 50.75,53.375 C52.1285,53.375 53.25,52.2535 53.25,50.875 C53.25,49.4965 52.1285,48.375 50.75,48.375 Z M22,49 C19.555375,49 17.47,50.567375 16.69625,52.75 L16.69625,52.75 L27.30375,52.75 C26.529875,50.567375 24.444625,49 22,49 Z M32.625,32.75 L11.375,32.75 L11.375,52.75 L12.813625,52.75 C13.339875,50.16775 14.93125,47.968625 17.107,46.631875 C16.258625,45.56475 15.75,44.216125 15.75,42.75 C15.75,39.30375 18.55375,36.5 22,36.5 C25.44625,36.5 28.25,39.30375 28.25,42.75 C28.25,44.216125 27.741375,45.56475 26.893,46.631875 C29.06875,47.968625 30.660125,50.167625 31.186375,52.75 L31.186375,52.75 L32.625,52.75 L32.625,32.75 Z M22,40.25 C20.6215,40.25 19.5,41.3715 19.5,42.75 C19.5,44.1285 20.6215,45.25 22,45.25 C23.3785,45.25 24.5,44.1285 24.5,42.75 C24.5,41.3715 23.3785,40.25 22,40.25 Z M48.25,37.125 C49.2855339,37.125 50.125,37.9644661 50.125,39 C50.125,40.0355339 49.2855339,40.875 48.25,40.875 C47.2144661,40.875 46.375,40.0355339 46.375,39 C46.375,37.9644661 47.2144661,37.125 48.25,37.125 Z M41.375,37.125 C42.4105339,37.125 43.25,37.9644661 43.25,39 C43.25,40.0355339 42.4105339,40.875 41.375,40.875 C40.3394661,40.875 39.5,40.0355339 39.5,39 C39.5,37.9644661 40.3394661,37.125 41.375,37.125 Z M55.125,37.125 C56.1605339,37.125 57,37.9644661 57,39 C57,40.0355339 56.1605339,40.875 55.125,40.875 C54.0894661,40.875 53.25,40.0355339 53.25,39 C53.25,37.9644661 54.0894661,37.125 55.125,37.125 Z M48.25,29.625 C49.2855339,29.625 50.125,30.4644661 50.125,31.5 C50.125,32.5355339 49.2855339,33.375 48.25,33.375 C47.2144661,33.375 46.375,32.5355339 46.375,31.5 C46.375,30.4644661 47.2144661,29.625 48.25,29.625 Z M41.375,29.625 C42.4105339,29.625 43.25,30.4644661 43.25,31.5 C43.25,32.5355339 42.4105339,33.375 41.375,33.375 C40.3394661,33.375 39.5,32.5355339 39.5,31.5 C39.5,30.4644661 40.3394661,29.625 41.375,29.625 Z M55.125,29.625 C56.1605339,29.625 57,30.4644661 57,31.5 C57,32.5355339 56.1605339,33.375 55.125,33.375 C54.0894661,33.375 53.25,32.5355339 53.25,31.5 C53.25,30.4644661 54.0894661,29.625 55.125,29.625 Z M32,14.992875 C33.0355339,14.992875 33.875,15.8323411 33.875,16.867875 C33.875,17.9034089 33.0355339,18.742875 32,18.742875 C30.9644661,18.742875 30.125,17.9034089 30.125,16.867875 C30.125,15.8323411 30.9644661,14.992875 32,14.992875 Z M25.370875,10.23875 C29.026125,6.5835 34.973875,6.5835 38.629125,10.23875 C39.361375,10.971 39.361375,12.15825 38.629125,12.890375 C38.263125,13.2565 37.78325,13.439625 37.303375,13.439625 C36.8235,13.439625 36.343625,13.2565 35.977625,12.890375 C33.78425,10.69725 30.215875,10.69725 28.0225,12.890375 C27.29025,13.6225 26.103,13.6225 25.370875,12.890375 C24.638625,12.158125 24.638625,10.970875 25.370875,10.23875 Z M32,4.61852778e-14 C36.512125,4.61852778e-14 40.74975,1.75275 43.93225,4.9355 C44.6645,5.66775 44.6645,6.855 43.93225,7.587125 C43.56625,7.95325 43.08625,8.136375 42.6065,8.136375 C42.12675,8.136375 41.646875,7.953375 41.28075,7.587125 C38.80625,5.112625 35.510375,3.75 32,3.75 C28.489625,3.75 25.19375,5.112625 22.71925,7.587125 C21.987,8.319375 20.79975,8.319375 20.067625,7.587125 C19.335375,6.854875 19.335375,5.667625 20.067625,4.9355 C23.25025,1.75275 27.487875,4.61852778e-14 32,4.61852778e-14 Z" id="Combined-Shape"></path>
                        </g>
                    </g>
                </g>
            </g>
        </g>
    </g>
</svg>