<?xml version="1.0" encoding="UTF-8"?>
<svg width="72px" height="72px" viewBox="0 0 72 72" version="1.1" xmlns="http://www.w3.org/2000/svg" xmlns:xlink="http://www.w3.org/1999/xlink">
    <title>prem-icon-08</title>
    <defs>
        <linearGradient x1="101.58598%" y1="12.405925%" x2="14.8374542%" y2="78.4356468%" id="linearGradient-1">
            <stop stop-color="#007053" offset="0%"></stop>
            <stop stop-color="#409E53" offset="100%"></stop>
        </linearGradient>
    </defs>
    <g id="Design" stroke="none" stroke-width="1" fill="none" fill-rule="evenodd">
        <g id="GreenLine-New:-Страница-ЖК:-Десктоп" transform="translate(-870.000000, -8365.000000)">
            <g id="Group-49" transform="translate(48.000000, 8162.000000)">
                <g id="Group-47" transform="translate(0.000000, 203.000000)">
                    <g id="sizer-2" transform="translate(822.000000, 0.000000)">
                        <rect id="sizer" x="0" y="0" width="72" height="72"></rect>
                        <g id="Group" transform="translate(4.000000, 7.000000)" fill="url(#linearGradient-1)">
                            <path d="M5.983,8.52651283e-14 C11.92825,8.52651283e-14 13.4315,8.302125 7.853625,10.385125 L7.853625,10.385125 L7.853625,16.03575 C12.56125,17.587375 11.967375,22.3645 11.967375,23.739125 L11.967375,23.739125 L53.76175,2.3825 L59.434375,13.484625 L11.967375,37.739875 L11.967375,58.226375 L1.77635684e-14,58.226375 L1.77635684e-14,21.720625 C1.77635684e-14,19.263625 1.50225,16.943625 4.113375,16.035375 L4.113375,16.035375 L4.11390043,14.0935658 C4.11394669,14.0137434 4.11399543,13.9356408 4.11404644,13.859221 L4.11495216,12.8344948 C4.11501998,12.7739754 4.1150889,12.7149532 4.1151587,12.6573913 L4.11580407,12.177759 C4.115877,12.1286246 4.1159501,12.0808392 4.11602315,12.0343657 L4.11688211,11.5372798 C4.11695099,11.5007078 4.11701889,11.4652994 4.11708557,11.4310174 L4.11796556,10.9966332 C4.11801428,10.9726883 4.11806063,10.9496843 4.11810437,10.9275843 L4.11815227,10.458376 C4.11810006,10.4526286 4.11804247,10.4473402 4.11797925,10.4424734 L4.11725231,10.4090584 C4.11715329,10.4063884 4.11704795,10.4040288 4.11693607,10.4019426 C4.11562832,10.3878453 4.11496012,10.3864687 4.11416492,10.3859058 C-1.46325,8.303625 0.033125,8.52651283e-14 5.983,8.52651283e-14 Z M58.015625,21.230625 C61.31575,21.230625 64,23.914875 64,27.215 L64,27.215 L64,58.0705 L52.03125,58.0705 L52.03125,27.215 C52.03125,23.914875 54.71675,21.230625 58.015625,21.230625 Z M8.22725,28.18 L3.74025,28.18 L3.74025,54.486125 L8.22725,54.486125 L8.22725,54.486125 L8.22725,28.18 L8.22725,28.18 Z M60.25975,27.215 C60.25975,24.247 55.7715,24.24575 55.7715,27.215 L55.7715,27.215 L55.7715,54.33025 L60.25975,54.33025 Z M14.7019811,26.5413989 L14.700375,26.54175 L11.9675,27.938125 L11.9675,33.375125 C12.059875,33.5565 11.867125,33.58975 13.134375,32.9425 C14.0469408,29.2127039 14.4318913,27.6539529 14.5918742,27.0038684 L14.6185504,26.895403 C14.6956016,26.581857 14.7041572,26.5441689 14.7019811,26.5413989 Z M23.092875,22.2545 C20.031375,23.81875 19.273,24.2025 19.127,24.276 L19.1551481,24.2624722 C19.1680556,24.2566667 19.1628333,24.2605833 19.101,24.294 C17.6934671,30.0468224 17.541303,30.6336697 17.5338179,30.6885488 L17.5337728,30.6936544 C21.377962,28.7295163 21.5102635,28.6564828 21.5254435,28.6538444 L21.527125,28.65375 Z M31.485875,17.965125 L31.447,17.985 L31.4575,17.98075 C31.4531174,17.9829811 31.4481732,17.9854987 31.4426202,17.9883272 L31.4282176,17.9954769 C31.4349722,17.992125 31.4464583,17.9863333 31.4575,17.98075 L31.4273241,17.9955648 L31.4273241,17.9955648 L31.424,17.997 L31.4016196,18.0092197 C31.1644939,18.1300893 30.3360741,18.5528807 27.7664559,19.8660768 L27.494375,20.005125 C27.4941535,20.0052368 27.4939428,20.0053319 27.4937339,20.0054457 C27.4770008,20.0367238 27.393386,20.4155702 25.92775,26.4055 C28.5084167,25.0869545 29.4508005,24.6061336 29.7698998,24.443512 L29.829108,24.4133456 C29.8375093,24.4090665 29.8452081,24.4051459 29.8522506,24.4015602 L29.86,24.397 C29.8560052,24.3992344 29.863217,24.3953837 29.8820608,24.3855446 L29.919625,24.366 L31.4855,17.9665 L31.4855,17.9665 L31.485875,17.965125 Z M8.22725,21.720625 C8.22725,18.752375 3.74025,18.751 3.74025,21.720625 L3.74025,21.720625 L3.74025,24.43975 L8.22725,24.43975 Z M39.8798593,13.6779881 L39.8787695,13.6778188 L35.88625,15.7175 L34.3205,22.117 C37.0801591,20.707 37.9666777,20.2528884 38.2206644,20.1225278 L38.2523565,20.1065787 C38.2466713,20.1096435 38.2457593,20.1103009 38.2542269,20.106213 L38.312375,20.077375 C39.3270841,15.9301853 39.6894935,14.4699227 39.8156281,13.9561626 L39.834077,13.8808718 C39.8698471,13.7345267 39.8792256,13.6934116 39.880257,13.6820381 C39.8801207,13.6783174 39.8800024,13.6781163 39.8798593,13.6779881 Z M48.270875,9.389375 L44.279125,11.428875 L44.279125,11.428875 C44.2677249,11.436745 44.2072987,11.7217246 42.713375,17.8275 L42.713375,17.8275 L42.713125,17.828625 C42.762125,17.8040625 42.77725,17.7959063 42.7758906,17.7962813 L42.773,17.797 L42.7957211,17.7856744 C43.0323747,17.6652886 43.8607787,17.2431215 46.4324493,15.929248 L46.70475,15.790125 L48.270875,9.389375 Z M52.4515,8.04025 L51.10575,13.540875 L51.10575,13.540875 L51.105625,13.541125 C51.1132969,13.5370156 51.1156759,13.535798 51.118564,13.5343205 L51.126,13.53 L51.1428843,13.5219491 L51.1428843,13.5219491 L51.155,13.515 C51.332785,13.4248479 51.990622,13.0888821 54.1557952,11.982503 L54.402625,11.856375 L52.4515,8.04025 Z M5.983125,3.740125 C3.83875,3.740125 3.83975,6.981625 5.983125,6.981625 C8.124125,6.981625 8.129375,3.740125 5.983125,3.740125 Z" id="Combined-Shape"></path>
                        </g>
                    </g>
                </g>
            </g>
        </g>
    </g>
</svg>