<?xml version="1.0" encoding="UTF-8"?>
<svg width="68px" height="68px" viewBox="0 0 68 68" version="1.1" xmlns="http://www.w3.org/2000/svg" xmlns:xlink="http://www.w3.org/1999/xlink">
    <title>B5246A9D-FCCD-4269-8187-7D20B0BFEDDB</title>
    <g id="Design" stroke="none" stroke-width="1" fill="none" fill-rule="evenodd">
        <g id="GreenLine-New:-Страница-ЖК:-Десктоп" transform="translate(-48.000000, -195.000000)" fill="#FFFFFF">
            <g id="Group-31" transform="translate(48.000000, 168.000000)">
                <g id="Group-19" transform="translate(0.000000, 22.000000)">
                    <path d="M35.2577605,5 C15.7853565,5 0,20.7854021 0,40.257666 L0,40.257666 L0,73 L0.252809281,73 L21.4716992,73 L30.2848625,73 L39.078579,73 L39.078579,72.9681778 C56.2672529,72.3022679 68,58.0846022 68,40.6342291 L68,40.6342291 L68,32.1771744 L68,23.2616437 L56.7292633,23.2616437 C37.2570557,23.2616437 21.4716992,39.0468494 21.4716992,58.5193097 L21.4716992,58.5193097 L21.4716992,63.7894261 L8.81316332,63.7894261 L8.81316332,39.6461682 C8.81316332,25.4355741 20.3329771,13.9155307 34.5437266,13.9155307 L34.5437266,13.9155307 L68,13.9155307 L68,5 L35.2577605,5 Z M29.2777778,56.8122066 C29.2777778,42.8021091 41.1366675,31.4444444 55.7656984,31.4444444 L55.7656984,31.4444444 L59.5,31.4444444 L59.5,39.1311932 C59.5,52.0974375 50.7720028,62.6087871 37.2331121,62.6087871 L37.2331121,62.6087871 L37.0319083,62.6087871 L37.0319083,62.6111111 L29.2777778,62.6111111 L29.2777778,56.8122066 Z" id="Combined-Shape"></path>
                </g>
            </g>
        </g>
    </g>
</svg>