<?xml version="1.0" encoding="UTF-8"?>
<!DOCTYPE svg PUBLIC "-//W3C//DTD SVG 1.1//EN" "http://www.w3.org/Graphics/SVG/1.1/DTD/svg11.dtd">
<!-- Creator: CorelDRAW X6 -->
<svg xmlns="http://www.w3.org/2000/svg" xml:space="preserve" width="4.2115mm" height="4.213mm" version="1.1" style="shape-rendering:geometricPrecision; text-rendering:geometricPrecision; image-rendering:optimizeQuality; fill-rule:evenodd; clip-rule:evenodd"
viewBox="0 0 4104 4105"
 xmlns:xlink="http://www.w3.org/1999/xlink">
 <defs>
  <style type="text/css">
   <![CDATA[
    .fil0 {fill:#fff}
   ]]>
  </style>
 </defs>
 <g fill="#fff" id="Слой_x0020_1">
  <metadata id="CorelCorpID_0Corel-Layer"/>
  <path class="fil0" d="M2110 2092c80,9 194,99 239,143 70,69 106,124 159,215 37,59 96,194 120,269 28,47 80,205 97,269 15,22 41,102 54,139 19,55 42,98 61,150 11,22 47,88 53,117 55,76 67,166 237,348 168,180 308,211 335,241 33,11 119,34 141,58 76,-2 210,50 324,50 32,4 42,-1 59,14l114 -5 -2 -618c-112,9 -315,-42 -372,-95 -71,-25 -220,-166 -249,-232 -39,-43 -132,-216 -156,-284 -19,-33 -92,-204 -99,-254 -21,-47 -35,-96 -55,-148 -19,-49 -44,-106 -56,-154 -13,-27 -31,-75 -40,-112 -8,-9 -123,-280 -125,-295 -37,-29 -61,-92 -87,-134 -21,-33 -72,-97 -82,-128 -31,-19 -10,0 -13,-21 -31,-13 -38,-29 -51,-52l-82 -82c-26,-8 -49,-35 -70,-50l-168 -104c-9,-4 -10,-5 -18,-9 -16,-9 -8,-4 -17,-11 -34,-6 -43,-13 -75,-25 -29,-11 -45,-11 -71,-22 -42,-11 -90,-20 -136,-27 -29,-4 -44,-6 -74,-8 -30,-3 -43,0 -59,-13l-101 5 1 820c90,0 194,9 263,43zm-1623 -1846c-81,69 -456,334 -483,368l1633 0c-20,-26 -57,-46 -81,-67l-11 -16c-22,-5 -1,3 -19,-7l-540 -407c-52,-20 -118,-90 -164,-116 -56,40 -109,80 -166,123 -57,43 -109,87 -168,123zm-487 3855l410 0 0 -1848 -410 1 0 1847zm1231 -1436l-611 0 -5 409 616 2 0 410 -611 0 -5 409 616 2 0 204 410 0 0 -1848 -410 1 0 411zm-752 -1443c5,-37 43,-76 72,-99 0,0 16,-10 16,-11 18,-10 0,-2 19,-7 25,-39 100,-69 156,-72 122,-37 249,19 326,74 60,43 159,163 149,262 23,23 21,104 0,127 11,99 -89,219 -149,262 -76,55 -205,112 -326,74 -55,-3 -130,-32 -156,-72 -41,-11 -102,-74 -108,-117 -90,-60 -90,-363 0,-422zm-479 827l1642 0 0 -1231 -1642 0 0 1231z"/>
 </g>
</svg>
