<?xml version="1.0" encoding="utf-8"?>
<!-- Generator: Adobe Illustrator 24.3.0, SVG Export Plug-In . SVG Version: 6.00 Build 0)  -->
<svg version="1.1" id="Layer_1" xmlns="http://www.w3.org/2000/svg" xmlns:xlink="http://www.w3.org/1999/xlink" x="0px" y="0px"
	 viewBox="0 0 64 64" style="enable-background:new 0 0 64 64;" xml:space="preserve">
<style type="text/css">
	.st0{fill:url(#SVGID_1_);}
	.st1{fill:#FFFFFF;}
	.st2{fill:#409E53;}
</style>
<g>
	<linearGradient id="SVGID_1_" gradientUnits="userSpaceOnUse" x1="103.6124" y1="-4.1269" x2="42.9127" y2="26.4948">
		<stop  offset="0" style="stop-color:#007053"/>
		<stop  offset="1" style="stop-color:#409E53"/>
	</linearGradient>
	<circle class="st0" cx="32" cy="32" r="31"/>
	<path class="st1" d="M32,2c16.5,0,30,13.5,30,30S48.5,62,32,62S2,48.5,2,32S15.5,2,32,2 M32,0C14.3,0,0,14.3,0,32s14.3,32,32,32
		s32-14.3,32-32S49.7,0,32,0L32,0z"/>
</g>
<g>
	<path class="st1" d="M32.5,23c2.2,6.8,4.3,13.5,6.5,20.3c-6.7,2.1-13.4,4.3-20.2,6.4c-0.8-2.5-1.6-5-2.4-7.6
		c0.9-0.3,1.8-0.6,2.6-0.8c1.6-0.5,2.4-1.9,2-3.3c-0.4-1.5-1.9-2.2-3.6-1.7c-0.9,0.3-1.7,0.5-2.7,0.8c-0.8-2.6-1.6-5.1-2.4-7.7
		c1.9-0.6,3.8-1.2,5.8-1.9c-0.5-1.9-1.1-3.8,0.4-5.3c0.7-0.7,1.6-1.4,2.6-1.6c2.4-0.6,4.2,0.8,5.5,4.2C28.6,24.2,30.5,23.6,32.5,23z
		"/>
</g>
<g>
	<g>
		<g>
			<path class="st2" d="M52.7,22.4c-0.3-1-0.9-2-1.6-2.9c-0.3-0.3-0.5-0.6-0.8-0.9L50,18.3c0,0,0,0-0.1-0.1l-1.2-1L48.5,17
				c-0.2-0.1-0.4-0.3-0.6-0.4c-1.8-1.3-3.5-2-5.3-2.2c-1-0.1-2.1,0-3.3,0.2c-1.5,0.3-3.1,0.8-5.1,1.5c-1.4,0.5-2.9,1.1-4.3,1.6
				l-1.1,0.4c-0.4,0.1-0.8,0.3-1.2,0.7c-0.7,0.6-1,1.3-1.1,2.2c-0.1,0.8,0.1,1.5,0.6,2c0.8,1,1.9,1.4,3.1,1.3c0.5-0.1,1-0.2,1.6-0.3
				c0,0,0.1,0,0.1,0l-2.2,2.5c-1.2,1.4-2.4,2.7-3.6,4.1c-0.6,0.7-1.1,1.3-1.7,2l-0.2,0.3c-0.1,0.1-0.1,0.2-0.2,0.3
				c-0.1,0.1-0.2,0.2-0.2,0.3c-0.3,0.4-0.5,0.9-0.5,1.5c0,0.8,0.2,1.5,0.6,2.1c0.4,0.5,1,0.9,1.6,1.1c-0.5,1-0.5,2,0,2.9
				c0.2,0.5,0.6,0.8,0.9,1c0.9,0.7,1.9,0.8,3,0.4l0,0.1c0.1,0.2,0.2,0.4,0.3,0.6c0.6,0.8,1.3,1.3,2.2,1.4c0.8,0.1,1.6-0.1,2.3-0.7
				c0.3-0.2,0.5-0.5,0.8-0.7l0.2-0.2c0.1,0.2,0.2,0.3,0.3,0.5c0.6,0.7,1.5,1.2,2.4,1.2c0.6,0,1.2-0.2,1.8-0.7c0.6-0.5,1-1,1.5-1.5
				c2.4-2.7,4.8-5.5,7.2-8.2c0.8-1,1.6-1.9,2.5-2.9c0.9-1.1,1.4-2.3,1.7-3.3C53.3,26.1,53.3,24.3,52.7,22.4z M44.1,36.3l-2.6,3
				c-0.6,0.7-1.3,1.5-1.9,2.2c-0.3,0.3-0.5,0.6-0.8,0.8c-0.4,0.3-0.6,0.4-0.9,0.3c-0.2-0.1-0.4-0.2-0.6-0.4
				c-0.1-0.1-0.3-0.3-0.3-0.6c0-0.3,0-0.5,0.2-0.7c1.6-1.9,3.2-3.8,4.8-5.7c0.2-0.2,0.2-0.4,0.2-0.7c-0.1-0.3-0.2-0.5-0.5-0.7
				c-0.1-0.1-0.3-0.1-0.5-0.1c-0.2,0-0.4,0.1-0.6,0.3c-0.2,0.2-0.3,0.3-0.5,0.5c-1.4,1.6-2.8,3.1-4.2,4.7l-0.1,0.1
				c-0.8,0.9-1.6,1.8-2.4,2.7c-0.3,0.3-0.6,0.5-1,0.5c-0.1,0-0.3,0-0.4-0.1c-0.1-0.1-0.3-0.2-0.4-0.3c-0.2-0.2-0.3-0.4-0.4-0.6
				c-0.1-0.3,0-0.5,0.3-0.8l0.7-0.8c0.4-0.5,0.9-1,1.3-1.6c1.5-1.8,3.1-3.6,4.6-5.4c0.2-0.3,0.3-0.5,0.2-0.9
				c-0.1-0.4-0.4-0.6-0.7-0.7c-0.5-0.1-0.8,0.1-1,0.4c0,0,0,0-0.1,0.1l-1.5,1.7c-1.2,1.3-2.3,2.7-3.5,4c-0.7,0.8-1.4,1.6-2.1,2.4
				l-0.4,0.5c0,0-0.1,0.1-0.2,0.2c-0.4,0.2-0.8,0.1-1.2-0.1c-0.3-0.2-0.5-0.6-0.5-1c0-0.2,0.1-0.3,0.2-0.5c0.3-0.4,0.6-0.7,0.9-1.1
				l6.7-7.7c0.3-0.4,0.3-1-0.1-1.3c-0.3-0.3-0.6-0.3-0.9-0.3c-0.1,0-0.3,0.1-0.4,0.2c-0.9,1-1.7,2-2.6,2.9L27,36.2
				c-0.4,0.1-1,0.2-1.4-0.4c-0.3-0.3-0.4-0.9-0.1-1.2c0.3-0.3,0.5-0.6,0.7-0.9c0.3-0.4,0.6-0.8,1-1.1c1.1-1.3,2.3-2.6,3.4-4
				c1.1-1.3,2.3-2.6,3.4-3.9c0.4-0.5,0.8-1,1.2-1.5l0.3-0.3c0-0.1,0.2-0.2,0.2-0.4c0-0.3-0.2-0.6-0.4-0.8c-0.2-0.2-0.4-0.2-0.7-0.2
				c-0.1,0-0.2,0-0.3,0c-0.1,0-0.2,0-0.2,0l-0.9,0.2c-1,0.2-1.9,0.4-2.9,0.6c-0.7,0.1-1.1,0-1.5-0.4c-0.4-0.4-0.4-1-0.1-1.4
				c0.2-0.3,0.5-0.4,0.8-0.6l1.1-0.4c1.2-0.4,2.3-0.9,3.5-1.3c1.4-0.5,2.8-0.9,4.1-1.3c1.3-0.4,2.5-0.6,3.7-0.5
				c1.3,0,2.5,0.4,3.7,1.2c0.6,0.4,1.2,0.8,1.7,1.2c0.9,0.7,1.8,1.6,2.5,2.5c0.9,1.2,1.3,2.6,1.2,4.1c0,0.8-0.2,1.5-0.5,2.4
				c-0.4,1-0.7,1.7-1.2,2.3c-0.7,0.8-1.4,1.7-2.1,2.5l0,0.1v0c-0.7,0.8-1.4,1.7-2.2,2.5l-0.9,1L44.1,36.3L44.1,36.3z"/>
		</g>
	</g>
	<path class="st1" d="M44.5,36.2c1-1.2,2.1-2.3,3.1-3.5c0.7-0.8,1.4-1.7,2.1-2.5c0.6-0.7,0.9-1.5,1.3-2.4c0.3-0.8,0.5-1.6,0.5-2.5
		c0-1.6-0.4-3-1.3-4.2c-0.7-1-1.5-1.9-2.5-2.6c-0.5-0.4-1.1-0.8-1.7-1.2c-1.2-0.7-2.4-1.2-3.8-1.3c-1.3,0-2.5,0.2-3.8,0.5
		c-1.4,0.4-2.8,0.9-4.1,1.3c-1.5,0.5-3.1,1.1-4.6,1.7c-0.4,0.1-0.7,0.3-1,0.7c-0.5,0.5-0.4,1.3,0.1,1.8c0.5,0.5,1.1,0.6,1.7,0.4
		c1.2-0.3,2.5-0.5,3.7-0.7c0.2,0,0.4,0,0.5-0.1c0.3-0.1,0.7,0.4,0.7,0.7c0,0.1-0.1,0.2-0.1,0.3c-0.5,0.6-1,1.2-1.5,1.8
		c-2.3,2.6-4.6,5.3-6.8,7.9c-0.6,0.7-1.1,1.4-1.7,2c-0.4,0.5-0.3,1.2,0.1,1.6c0.5,0.6,1.2,0.6,1.7,0.5c0,0,0.1-0.1,0.1-0.1
		c1.3-1.5,2.6-3,4-4.5c0.9-1,1.7-2,2.6-2.9c0,0,0.1-0.1,0.2-0.1c0.3,0,0.5,0,0.7,0.2c0.2,0.2,0.3,0.7,0.1,0.9
		c-2.1,2.4-4.1,4.8-6.2,7.1c-0.5,0.5-0.9,1.1-1.4,1.6c-0.2,0.2-0.3,0.4-0.3,0.7c-0.1,1.1,1,1.8,2,1.4c0.1,0,0.2-0.1,0.3-0.2
		c0.9-0.9,1.7-1.9,2.6-2.9c1.7-1.9,3.4-3.8,5-5.7c0-0.1,0.1-0.1,0.1-0.2c0.1-0.3,0.4-0.3,0.6-0.2c0.3,0.1,0.4,0.2,0.5,0.5
		c0.1,0.2,0.1,0.4-0.1,0.6c-1.5,1.8-3.1,3.6-4.6,5.4c-0.7,0.8-1.3,1.6-2,2.4c-0.3,0.3-0.4,0.6-0.4,1.1c0.1,0.3,0.2,0.5,0.4,0.7
		c0.1,0.1,0.3,0.3,0.5,0.4c0.2,0.1,0.4,0.1,0.6,0.1c0.5-0.1,0.9-0.3,1.2-0.6c0.8-1,1.6-1.9,2.5-2.8c1.4-1.6,2.8-3.1,4.2-4.7
		c0.1-0.2,0.3-0.3,0.5-0.5c0.2-0.2,0.5-0.2,0.7-0.1c0.2,0.1,0.3,0.3,0.4,0.5c0,0.2,0,0.3-0.1,0.4c-1.6,1.9-3.2,3.8-4.8,5.7
		c-0.4,0.5-0.3,1.3,0.1,1.7c0.2,0.2,0.4,0.4,0.7,0.5c0.5,0.2,0.8,0,1.2-0.3c0.3-0.3,0.6-0.5,0.9-0.8c0.8-0.9,1.6-1.9,2.5-2.8
		C43,38,43.7,37.1,44.5,36.2C44.5,36.2,44.5,36.2,44.5,36.2z"/>
</g>
</svg>
