<svg width="20" height="20" xmlns="http://www.w3.org/2000/svg">
    <g fill="#FFF" fill-rule="nonzero">
        <path d="M10.858 1.41 1.7.018A1.477 1.477 0 0 0 .517.343 1.49 1.49 0 0 0 0 1.46v17.558c0 .459.375.834.833.834h2.709v-4.375c0-.809.65-1.459 1.458-1.459h2.083c.809 0 1.459.65 1.459 1.459v4.375h3.541v-17a1.46 1.46 0 0 0-1.225-1.442zM4.583 12.143h-1.25a.625.625 0 0 1 0-1.25h1.25a.625.625 0 0 1 0 1.25zm0-2.5h-1.25a.625.625 0 0 1 0-1.25h1.25a.625.625 0 0 1 0 1.25zm0-2.5h-1.25a.625.625 0 0 1 0-1.25h1.25a.625.625 0 0 1 0 1.25zm0-2.5h-1.25a.625.625 0 0 1 0-1.25h1.25a.625.625 0 0 1 0 1.25zm4.167 7.5H7.5a.625.625 0 0 1 0-1.25h1.25a.625.625 0 0 1 0 1.25zm0-2.5H7.5a.625.625 0 0 1 0-1.25h1.25a.625.625 0 0 1 0 1.25zm0-2.5H7.5a.625.625 0 0 1 0-1.25h1.25a.625.625 0 0 1 0 1.25zm0-2.5H7.5a.625.625 0 0 1 0-1.25h1.25a.625.625 0 0 1 0 1.25zM18.85 8.887l-5.933-1.243v12.208h5.625A1.46 1.46 0 0 0 20 18.393v-8.081c0-.689-.47-1.274-1.15-1.425zm-1.975 8.465h-1.25a.625.625 0 0 1 0-1.25h1.25a.625.625 0 0 1 0 1.25zm0-2.5h-1.25a.625.625 0 0 1 0-1.25h1.25a.625.625 0 0 1 0 1.25zm0-2.5h-1.25a.625.625 0 0 1 0-1.25h1.25a.625.625 0 0 1 0 1.25z"/>
    </g>
</svg>
