<svg xmlns="http://www.w3.org/2000/svg" xmlns:xlink="http://www.w3.org/1999/xlink" width="829" height="250" viewBox="0 0 829 250">
  <defs>
    <path id="map-main-path-aqua-a" d="M246.488281,648.6875 L251.454102,617.350586 L271.306641,615.429688 L276.493164,612.878906 L266.808594,567.34668 L295.220703,547.144531 L314.102051,557.317871 L321.15332,584.68457 L336.598633,589.584961 L335.40332,580.307617 L344.087402,561.539063 L379.578613,564.828613 L386.585449,584.68457 L405.68457,551.012695 L423.938965,543.779297 L419.682129,514.848145 L420.482422,497.556641 L454.546875,495.874512 L459.96875,528.20166 L484.82666,525.461426 L483.456055,491.234863 L517.294922,488.288574 L521.265137,521.205566 L547.65332,517.904297 L545.376953,485.468262 L578.147461,482.67041 L580.303711,496.884766 L582.706543,514.848145 L605.947998,512.571777 L605.255859,483.838379 L610.698242,481.884766 L629.312012,478.311523 L632.865723,491.234863 L634.954102,501.451416 L714.279297,494.195068 L715.163086,487.499512 L715.163086,478.311523 L775.099121,472.173828 C776.404892,474.108004 777.578394,475.202487 778.619629,475.457275 C779.660863,475.712064 781.404027,475.331286 783.849121,474.314941 L788.453125,485.468262 L788.453125,492.302002 L814.818359,488.288574 L815.510254,467.203613 L851.629883,462.442383 L855.790039,472.173828 L859.150391,483.838379 L929.494141,475.457275 L932.254395,456.790527 L953.206055,452.643555 L961.018555,452.643555 L962.766602,444.63916 L990.773438,440.210449 L999.323242,451.712891 L992.109863,473.120361 L1001.61621,476.624023 L1003.69824,464.010254 L1015.00098,456.790527 L1035.61328,467.203613 L1043.16602,462.442383 L1071.14209,476.624023 L1066.55811,512.571777 L1016.50146,548.751953 L985.400391,566.776367 L922.154297,590.412598 L885.067383,599.48877 L820.620117,607.597168 L815.510254,608.643066 L813.521484,607.597168 L790.228516,610.373535 L789.330566,612.027344 L786.543945,618.417969 L740.975586,624.866699 L664.01123,636.606934 L643.145508,639.509277 L642.058105,637.766602 L603.729492,642.595215 L603.729492,645.567383 L562.008789,650.833008 L527.848633,649.831543 L421.957031,664.601563 L371.96582,670.401855 L255.879395,686.073242 L246.488281,648.6875 Z"/>
    <mask id="map-main-path-aqua-b" width="827.854" height="249.063" x="-1.6" y="-1.6" maskContentUnits="userSpaceOnUse" maskUnits="objectBoundingBox">
      <rect width="827.854" height="249.063" x="244.888" y="438.61" fill="#fff"/>
      <use xlink:href="#map-main-path-aqua-a"/>
    </mask>
  </defs>
  <use fill="#FDD240" fill-opacity=".4" fill-rule="evenodd" stroke="#FFF" stroke-dasharray="4 5" stroke-width="3.2" mask="url(#map-main-path-aqua-b)" transform="translate(-244 -438)" xlink:href="#map-main-path-aqua-a"/>
</svg>
