<svg width="20" height="20" xmlns="http://www.w3.org/2000/svg">
    <g fill="#FFF" fill-rule="nonzero">
        <path d="m5.812 17.76.471-9.419A3.388 3.388 0 0 1 7.344 6.05a3.39 3.39 0 0 1 2.342-.946h4.03a2.158 2.158 0 0 0-2.147-1.966H9.8v-.199C9.801 1.32 8.483 0 6.861 0a2.943 2.943 0 0 0-2.939 2.94v.198H2.155A2.157 2.157 0 0 0 0 5.293v12.552C0 19.033.967 20 2.155 20h4.399a3.223 3.223 0 0 1-.742-2.24zM5.094 2.94a1.77 1.77 0 0 1 1.768-1.768 1.77 1.77 0 0 1 1.767 1.767v.199H5.094v-.199z"/>
        <path d="M19.921 17.818 19.45 8.4a2.261 2.261 0 0 0-2.233-2.124h-7.53A2.261 2.261 0 0 0 7.453 8.4l-.471 9.418a2.062 2.062 0 0 0 .566 1.54c.394.414.93.642 1.51.642h8.786c.58 0 1.116-.228 1.51-.642.394-.415.595-.962.566-1.54zm-3.53-7.034c0 1.621-1.318 2.94-2.94 2.94a2.943 2.943 0 0 1-2.939-2.94V10a.586.586 0 1 1 1.172 0v.784a1.77 1.77 0 0 0 1.768 1.768 1.77 1.77 0 0 0 1.767-1.768V10a.586.586 0 1 1 1.172 0v.784z"/>
    </g>
</svg>
