<svg width="19" height="19" xmlns="http://www.w3.org/2000/svg">
    <path d="M10.732 13.634V19H8.268v-5.366h2.464zM13.077 0c.308 0 .557.25.557.557v1.828c0 .307-.25.557-.557.557h-3.02V4.5l4.404 4.404H19v9.54c0 .307-.25.556-.557.556h-6.598v-5.923a.557.557 0 0 0-.556-.556H7.71a.557.557 0 0 0-.556.556V19H.557A.557.557 0 0 1 0 18.443v-9.54h4.54L8.942 4.5V.557c0-.308.25-.557.557-.557zM2.942 14.31a.557.557 0 0 0-.557.556v1.192a.557.557 0 0 0 1.113 0v-1.192a.557.557 0 0 0-.556-.557zm2.384 0a.557.557 0 0 0-.556.556v1.192a.557.557 0 0 0 1.113 0v-1.192a.557.557 0 0 0-.557-.557zm8.348 0a.557.557 0 0 0-.557.556v1.192a.557.557 0 0 0 1.113 0v-1.192a.557.557 0 0 0-.556-.557zm2.384 0a.557.557 0 0 0-.556.556v1.192a.557.557 0 0 0 1.113 0v-1.192a.557.557 0 0 0-.557-.557zM2.942 10.731a.557.557 0 0 0-.557.557v1.192a.557.557 0 0 0 1.113 0V11.29a.557.557 0 0 0-.556-.557zm2.384 0a.557.557 0 0 0-.556.557v1.192a.557.557 0 0 0 1.113 0V11.29a.557.557 0 0 0-.557-.557zm8.348 0a.557.557 0 0 0-.557.557v1.192a.557.557 0 0 0 1.113 0V11.29a.557.557 0 0 0-.556-.557zm2.384 0a.557.557 0 0 0-.556.557v1.192a.557.557 0 0 0 1.113 0V11.29a.557.557 0 0 0-.557-.557zM9.5 7.751c-.964 0-1.75.785-1.75 1.749 0 .964.786 1.75 1.75 1.75s1.75-.786 1.75-1.75-.786-1.75-1.75-1.75zm0 1.113a.637.637 0 1 1-.002 1.273.637.637 0 0 1 .002-1.273zm8.943-2.902c.308 0 .557.25.557.557V7.79h-4.078l-1.828-1.828zm-12.537 0L4.078 7.79H0V6.52c0-.308.25-.557.557-.557h5.349z" fill="#F7FCFF" fill-rule="nonzero"/>
</svg>
