<svg width="22" height="22" xmlns="http://www.w3.org/2000/svg">
    <path d="M20.066 15.555c.357 0 .645.288.645.644v1.934h.644a.644.644 0 1 1 0 1.289h-.644v1.289h.644a.644.644 0 1 1 0 1.289H.645a.644.644 0 1 1 0-1.29H3.91v-2.72a5.89 5.89 0 0 0 2.578 0v2.72h3.867v-2.73a5.698 5.698 0 0 0 2.579.01v2.72h2.578v-1.288h-.645a.644.644 0 1 1 0-1.29h.645V16.2c0-.356.288-.644.644-.644zm-.644 3.867H16.8v1.289h2.62v-1.29zM5.199 0c2.133 0 3.867 2.356 3.867 5.2 0 .86-.186 1.482-.222 1.686.073.13 1.511 1.593 1.511 4.114 0 3.199-2.313 5.844-5.156 5.844C2.356 16.844 0 14.199 0 11c0-2.567 1.44-3.985 1.512-4.114-.036-.198-.223-.828-.223-1.687C1.29 2.356 3.067 0 5.2 0zm6.446 0c2.132 0 3.867 2.356 3.867 5.2 0 .858-.187 1.488-.223 1.686.073.129 1.512 1.547 1.512 4.114 0 3.199-2.313 5.844-5.156 5.844a4.638 4.638 0 0 1-2.141-.54c1.31-1.298 2.14-3.216 2.14-5.304a7.605 7.605 0 0 0-1.418-4.42c.065-.35.13-.824.13-1.38 0-1.512-.436-2.928-1.136-4.028C9.886.45 10.722 0 11.645 0z" fill="#F7FCFF" fill-rule="nonzero"/>
</svg>
