<svg width="22" height="20" xmlns="http://www.w3.org/2000/svg">
    <g fill="#F7FCFF" fill-rule="nonzero">
        <path d="M10.994 1.826C6.198-2.37.1 1.316 0 6.312-.024 7.586.343 8.826 1.075 9.97h4.742l.843-1.406a.644.644 0 0 1 1.096-.014l1.78 2.796L12.13 5.87a.645.645 0 0 1 1.15-.03l2.223 4.13h5.41C24.92 3.707 17-3.428 10.993 1.826z"/>
        <path d="m14.551 10.92-1.802-3.347-2.548 5.379a.645.645 0 0 1-1.126.07L7.23 10.12l-.495.824a.644.644 0 0 1-.552.313H2.094c.129.134-.554-.547 8.445 8.406.252.25.658.25.91 0 8.86-8.816 8.316-8.272 8.444-8.406h-4.775a.644.644 0 0 1-.567-.339z"/>
    </g>
</svg>
