<svg width="16" height="21" xmlns="http://www.w3.org/2000/svg">
    <defs>
        <filter color-interpolation-filters="auto" id="a">
            <feColorMatrix in="SourceGraphic" values="0 0 0 0 1.000000 0 0 0 0 1.000000 0 0 0 0 1.000000 0 0 0 1.000000 0"/>
        </filter>
    </defs>
    <g transform="translate(-11 -10)" filter="url(#a)" fill="none" fill-rule="evenodd">
        <g fill="#44456B" fill-rule="nonzero">
            <path d="M21.001 14.007c.976 0 1.774-.829 1.774-1.841 0-1.013-.798-1.841-1.774-1.841-.975 0-1.773.828-1.773 1.84 0 1.013.798 1.842 1.773 1.842zM26.323 21.03v-1.856a4.86 4.86 0 0 1-4.108-2.274l-.897-1.486c-.33-.556-.945-.881-1.606-.881-.236 0-.472.046-.708.139l-4.958 1.996v4.362h1.889v-3.11l1.652-.649-1.463 7.472-4.628-.881-.378 1.81s6.611 1.253 6.611 1.3l.897-4.085 2.03 1.856v5.57h1.89v-7.008l-1.936-1.903.566-2.785a6.634 6.634 0 0 0 5.147 2.413z"/>
        </g>
    </g>
</svg>
