<svg width="112" height="112" viewBox="0 0 112 112" fill="none" xmlns="http://www.w3.org/2000/svg">
<path fill-rule="evenodd" clip-rule="evenodd" d="M112 0H0V112H112V0ZM1 58.0345C1 26.5352 26.5351 1 58.0346 1H111V15.4222H56.8796C33.8916 15.4222 15.2566 34.0575 15.2566 57.0453V96.1005H35.7336V87.5754C35.7336 56.0758 61.2688 30.5409 92.7679 30.5409H111V44.9631V58.6436C111 86.8721 92.0206 109.871 64.2153 110.949V111H49.9902H35.7336H1.40896H1V58.0345Z" fill="#195A35"/>
<path fill-rule="evenodd" clip-rule="evenodd" d="M91.9455 43C68.2271 43 49 61.5853 49 84.5109V94H61.572V93.9962H61.8982C83.8491 93.9962 98 76.7958 98 55.5783V43H91.9455Z" fill="#195A35"/>
<path d="M64.1379 108.95L64.1766 109.949L64.1766 109.949L64.1379 108.95ZM62.8479 109V110H62.8673L62.8866 109.999L62.8479 109ZM109 32.5409H110V31.5409H109V32.5409ZM37.7336 98.1005V99.1005H38.7336V98.1005H37.7336ZM13.2566 98.1005H12.2566V99.1005H13.2566V98.1005ZM109 13.4222V14.4222H110V13.4222H109ZM109 3H110V2H109V3ZM3 109H2V110H3V109ZM1 111H0V112H1V111ZM111 1H112V0H111V1ZM111 15.4222V16.4222H112V15.4222H111ZM15.2566 96.1005H14.2566V97.1005H15.2566V96.1005ZM35.7336 96.1005V97.1005H36.7336V96.1005H35.7336ZM111 30.5409H112V29.5409H111V30.5409ZM64.2153 110.949L64.1766 109.949L63.2153 109.987V110.949H64.2153ZM64.2153 111V112H65.2153V111H64.2153ZM59.572 91.9962V90.9962H58.572V91.9962H59.572ZM96 45H97V44H96V45ZM51 92H50V93H51V92ZM59.572 92V93H60.572V92H59.572ZM49 94H48V95H49V94ZM61.572 94V95H62.572V94H61.572ZM61.572 93.9962V92.9962H60.572V93.9962H61.572ZM98 43H99V42H98V43ZM64.0992 107.951L62.8092 108.001L62.8866 109.999L64.1766 109.949L64.0992 107.951ZM108 58.6436C108 85.5333 90.0346 106.946 64.0992 107.951L64.1766 109.949C91.3573 108.896 110 86.4273 110 58.6436H108ZM108 44.9631V58.6436H110V44.9631H108ZM108 32.5409V44.9631H110V32.5409H108ZM92.7679 33.5409H109V31.5409H92.7679V33.5409ZM38.7336 87.5754C38.7336 57.7326 62.9256 33.5409 92.7679 33.5409V31.5409C61.8211 31.5409 36.7336 56.6281 36.7336 87.5754H38.7336ZM38.7336 96.1005V87.5754H36.7336V96.1005H38.7336ZM38.7336 98.1005V96.1005H36.7336V98.1005H38.7336ZM35.7336 99.1005H37.7336V97.1005H35.7336V99.1005ZM15.2566 99.1005H35.7336V97.1005H15.2566V99.1005ZM13.2566 99.1005H15.2566V97.1005H13.2566V99.1005ZM12.2566 96.1005V98.1005H14.2566V96.1005H12.2566ZM12.2566 57.0453V96.1005H14.2566V57.0453H12.2566ZM56.8796 12.4222C32.2347 12.4222 12.2566 32.4007 12.2566 57.0453H14.2566C14.2566 33.5053 33.3393 14.4222 56.8796 14.4222V12.4222ZM109 12.4222H56.8796V14.4222H109V12.4222ZM108 3V13.4222H110V3H108ZM58.0346 4H109V2H58.0346V4ZM4 58.0345C4 28.1921 28.192 4 58.0346 4V2C27.0874 2 2 27.0875 2 58.0345H4ZM4 109V58.0345H2V109H4ZM35.7336 108H3V110H35.7336V108ZM49.9902 108H35.7336V110H49.9902V108ZM62.8479 108H49.9902V110H62.8479V108ZM1.40896 112H3V110H1.40896V112ZM1 112H1.40896V110H1V112ZM0 109V111H2V109H0ZM0 58.0345V109H2V58.0345H0ZM58.0346 0C25.9828 0 0 25.9829 0 58.0345H2C2 27.0875 27.0874 2 58.0346 2V0ZM109 0H58.0346V2H109V0ZM111 0H109V2H111V0ZM112 3V1H110V3H112ZM112 13.4222V3H110V13.4222H112ZM112 15.4222V13.4222H110V15.4222H112ZM109 16.4222H111V14.4222H109V16.4222ZM56.8796 16.4222H109V14.4222H56.8796V16.4222ZM16.2566 57.0453C16.2566 34.6098 34.4439 16.4222 56.8796 16.4222V14.4222C33.3393 14.4222 14.2566 33.5053 14.2566 57.0453H16.2566ZM16.2566 94.1005V57.0453H14.2566V94.1005H16.2566ZM16.2566 96.1005V94.1005H14.2566V96.1005H16.2566ZM17.2566 95.1005H15.2566V97.1005H17.2566V95.1005ZM33.7336 95.1005H17.2566V97.1005H33.7336V95.1005ZM35.7336 95.1005H33.7336V97.1005H35.7336V95.1005ZM34.7336 94.1005V96.1005H36.7336V94.1005H34.7336ZM34.7336 87.5754V94.1005H36.7336V87.5754H34.7336ZM92.7679 29.5409C60.7165 29.5409 34.7336 55.5235 34.7336 87.5754H36.7336C36.7336 56.6281 61.8211 31.5409 92.7679 31.5409V29.5409ZM109 29.5409H92.7679V31.5409H109V29.5409ZM111 29.5409H109V31.5409H111V29.5409ZM112 32.5409V30.5409H110V32.5409H112ZM112 44.9631V32.5409H110V44.9631H112ZM112 58.6436V44.9631H110V58.6436H112ZM64.2541 111.948C92.6829 110.846 112 87.3181 112 58.6436H110C110 86.4262 91.3582 108.896 64.1766 109.949L64.2541 111.948ZM65.2153 111V110.949H63.2153V111H65.2153ZM62.2153 112H64.2153V110H62.2153V112ZM49.9902 112H62.2153V110H49.9902V112ZM35.7336 112H49.9902V110H35.7336V112ZM3 112H35.7336V110H3V112ZM61.572 90.9962H59.572V92.9962H61.572V90.9962ZM61.8982 90.9962H61.572V92.9962H61.8982V90.9962ZM95 55.5783C95 75.4308 81.9147 90.9962 61.8982 90.9962V92.9962C83.2022 92.9962 97 76.3431 97 55.5783H95ZM95 45V55.5783H97V45H95ZM91.9455 46H96V44H91.9455V46ZM52 84.5109C52 63.3369 69.7876 46 91.9455 46V44C68.7466 44 50 62.1698 50 84.5109H52ZM52 92V84.5109H50V92H52ZM59.572 91H51V93H59.572V91ZM58.572 91.9962V92H60.572V91.9962H58.572ZM50 84.5109C50 62.1693 68.7471 44 91.9455 44V42C67.7071 42 48 61.0012 48 84.5109H50ZM50 92V84.5109H48V92H50ZM50 94V92H48V94H50ZM51 93H49V95H51V93ZM59.572 93H51V95H59.572V93ZM61.572 93H59.572V95H61.572V93ZM60.572 93.9962V94H62.572V93.9962H60.572ZM61.8982 92.9962H61.572V94.9962H61.8982V92.9962ZM97 55.5783C97 76.3414 83.2038 92.9962 61.8982 92.9962V94.9962C84.4944 94.9962 99 77.2502 99 55.5783H97ZM97 45V55.5783H99V45H97ZM97 43V45H99V43H97ZM96 44H98V42H96V44ZM91.9455 44H96V42H91.9455V44Z" fill="#80AA36"/>
</svg>
