<?xml version="1.0" encoding="UTF-8"?>
<svg width="86px" height="85px" viewBox="0 0 86 85" version="1.1" xmlns="http://www.w3.org/2000/svg" xmlns:xlink="http://www.w3.org/1999/xlink">
    <title>ab-icon-05</title>
    <g id="Design" stroke="none" stroke-width="1" fill="none" fill-rule="evenodd">
        <g id="Artboard" transform="translate(-698.000000, -630.000000)" fill="#80AA36" fill-rule="nonzero">
            <path d="M763.691991,630 C771.895562,630 778.570385,636.655094 778.570385,644.830098 C778.570385,645.839779 778.468349,646.842719 778.265891,647.825796 L778.265891,647.825796 L778.117756,648.545098 L778.595055,649.103241 L778.882829,649.447603 C781.71726,652.918918 783.25,657.214367 783.25,661.726348 L783.25,661.726348 L783.248036,662.299196 L783.237122,663.06543 C783.187212,665.364448 782.981407,667.113251 782.515187,668.758285 C781.758167,671.4313 780.412359,673.936088 778.594698,676.061681 L778.594698,676.061681 L778.117415,676.619821 L778.265547,677.33911 L778.358405,677.832258 C778.499192,678.656703 778.570041,679.493319 778.570041,680.334808 C778.570041,687.639625 773.204213,693.845304 766.035185,694.980378 L766.035185,694.980378 L764.769758,695.180733 L764.769758,712.836762 L782.171717,712.836762 L782.289195,712.84309 C782.829391,712.901635 783.25,713.359247 783.25,713.914873 C783.25,714.510187 782.767159,714.992984 782.171717,714.992984 L782.171717,714.992984 L699.328424,714.992984 L699.210936,714.986656 C698.670686,714.928104 698.25,714.470451 698.25,713.914873 C698.25,713.319612 698.73293,712.836762 699.328424,712.836762 L699.328424,712.836762 L701.51592,712.836762 L701.51592,704.508667 L699.328424,704.508667 L699.210936,704.502339 C698.670686,704.443787 698.25,703.986133 698.25,703.430556 C698.25,702.835294 698.73293,702.352445 699.328424,702.352445 L699.328424,702.352445 L701.344046,702.352445 L701.344046,689.508758 L701.350373,689.391294 C701.408911,688.851161 701.866471,688.430647 702.422157,688.430647 L702.422157,688.430647 L741.781315,688.430647 L741.898779,688.436974 C742.438911,688.495512 742.859426,688.953072 742.859426,689.508758 L742.859426,689.508758 L742.859426,702.352445 L744.875048,702.352445 L744.992512,702.358772 C745.532644,702.41731 745.953159,702.87487 745.953159,703.430556 C745.953159,704.025933 745.470425,704.508667 744.875048,704.508667 L744.875048,704.508667 L742.687552,704.508667 L742.687552,712.836762 L762.613708,712.836762 L762.613708,695.180728 L761.348277,694.980377 L761.018685,694.924403 C754.015273,693.654102 748.813253,687.527269 748.813253,680.334808 C748.813253,679.325127 748.91529,678.322187 749.117747,677.33911 C749.294265,676.481738 748.967584,675.842578 748.29701,674.991699 C748.258525,674.942866 748.218928,674.89368 748.178058,674.843887 L748.178058,674.843887 L747.916243,674.535792 L747.179536,673.715704 C746.50463,672.838991 745.963098,671.801476 745.477523,670.507015 C744.535712,667.995906 744.133638,665.150554 744.133638,661.72652 C744.133638,660.952864 744.179793,660.178979 744.271205,659.407381 L744.271205,659.407381 L744.419594,658.154838 L743.211096,657.793706 L743.104591,657.756163 C743.035803,657.727991 742.971499,657.69356 742.911982,657.653028 C741.158676,656.459113 739.103417,655.827404 736.974685,655.827404 C733.234322,655.827404 729.741413,657.832902 727.850393,661.065549 C727.569098,661.546567 726.967487,661.733845 726.462689,661.497549 C725.487904,661.04105 724.439335,660.808829 723.355901,660.808829 C722.212709,660.808829 721.111215,661.066385 720.094069,661.572366 C719.583377,661.82631 718.96278,661.63828 718.679001,661.143427 C716.797576,657.863204 713.286125,655.827232 709.508868,655.827232 C705.675411,655.827232 702.136296,657.910757 700.270789,661.265066 C700.078007,661.611623 699.716564,661.819621 699.326189,661.819621 C699.145733,661.819621 698.968216,661.774143 698.804023,661.682909 C698.284239,661.393757 698.096981,660.737264 698.386367,660.216986 C700.631929,656.179464 704.89435,653.67101 709.508696,653.67101 C713.362194,653.67101 717.024863,655.438822 719.435319,658.438229 L719.435319,658.438229 L720.042018,659.193163 L720.979739,658.950908 L721.366088,658.859857 C722.013416,658.721824 722.67762,658.652436 723.355901,658.652436 C724.111135,658.652436 724.850311,658.738919 725.56905,658.910853 L725.56905,658.910853 L726.48768,659.130603 L727.082821,658.397134 L727.312539,658.122051 C729.723194,655.316757 733.267381,653.670838 736.974857,653.670838 C738.983322,653.670838 740.937738,654.136494 742.710505,655.034504 L742.710505,655.034504 L743.44449,655.406311 L744.152501,654.987149 L744.456398,654.814844 C744.661175,654.703755 744.870274,654.600246 745.083479,654.504422 L745.083479,654.504422 L745.60264,654.271089 L745.836321,653.752085 L746.069635,653.253066 C746.790825,651.766305 747.702628,650.373297 748.788741,649.103257 L748.788741,649.103257 L749.266057,648.54511 L749.117919,647.825796 L749.025062,647.332648 C748.884274,646.508203 748.813425,645.671587 748.813425,644.830098 C748.813425,636.65507 755.488272,630 763.691991,630 Z M740.531502,704.508495 L703.672485,704.508495 L703.672485,712.836591 L740.531502,712.836591 L740.531502,704.508495 Z M740.703376,690.586697 L703.500439,690.586697 L703.500439,702.352273 L740.703376,702.352273 L740.703376,690.586697 Z M763.692163,632.156222 C756.677176,632.156222 750.969818,637.8389 750.969818,644.830098 C750.969818,646.08872 751.154974,647.333109 751.520416,648.52816 C751.636045,648.906092 751.535472,649.317035 751.258302,649.599093 C748.056633,652.856424 746.290375,657.167607 746.290375,661.726348 L746.290375,661.726348 L746.290375,663.438214 L746.29554,663.864846 C746.402168,668.265375 748.156689,672.409934 751.258433,675.565602 C751.535421,675.847403 751.635981,676.258374 751.520379,676.636523 C751.154974,677.831453 750.969818,679.075842 750.969818,680.334464 C750.969818,686.238184 755.073883,691.328506 760.770784,692.667755 L760.770784,692.667755 L762.614052,693.101092 L762.614052,676.864693 L762.04572,676.37833 L755.863325,670.197995 L755.779547,670.103959 C755.444436,669.680773 755.472356,669.064253 755.863235,668.673441 C756.284292,668.252456 756.967074,668.252456 757.387969,668.673351 L757.387969,668.673351 L762.614052,673.899434 L762.614052,655.066057 L762.620379,654.948593 C762.678917,654.40846 763.136477,653.987946 763.692163,653.987946 C764.28754,653.987946 764.770274,654.470679 764.770274,655.066057 L764.770274,655.066057 L764.770274,663.646803 L770.58176,657.835317 L770.675783,657.751567 C771.098931,657.416569 771.715573,657.444486 772.106404,657.835317 C772.52744,658.256354 772.52744,658.938996 772.106494,659.35987 L772.106494,659.35987 L765.945406,665.520958 L765.853441,665.602349 C765.788604,665.653086 765.716705,665.696793 765.637678,665.733549 L765.637678,665.733549 L764.770274,666.136993 L764.770274,693.101092 L766.613553,692.667752 L766.911897,692.593818 C772.453021,691.14964 776.414335,686.134604 776.414335,680.334636 C776.414335,679.076014 776.229179,677.831624 775.863738,676.636574 C775.748109,676.258642 775.848682,675.847699 776.125852,675.56564 C779.165146,672.473525 780.916191,668.131352 781.125417,663.507566 C781.363429,658.24543 779.58761,653.12193 776.125682,649.598923 C775.848743,649.317098 775.748186,648.906076 775.863752,648.528115 C776.229179,647.333109 776.414335,646.08872 776.414335,644.830098 C776.414335,637.838875 770.707124,632.156222 763.692163,632.156222 Z" id="ab-icon-05"></path>
        </g>
    </g>
</svg>