<?xml version="1.0" encoding="UTF-8"?>
<svg width="135px" height="89px" viewBox="0 0 135 89" version="1.1" xmlns="http://www.w3.org/2000/svg" xmlns:xlink="http://www.w3.org/1999/xlink">
    <title>0857ED43-1D08-423E-93B9-80A9CED505B1</title>
    <g id="Design" stroke="none" stroke-width="1" fill="none" fill-rule="evenodd">
        <g id="GreenLine-New:-Главная:-Десктоп" transform="translate(-382.000000, -4729.000000)" fill="#7BA535" fill-rule="nonzero">
            <g id="Group-7" transform="translate(48.000000, 4717.059913)">
                <g id="bike" transform="translate(403.722644, 52.120454) rotate(9.000000) translate(-403.722644, -52.120454) translate(335.722644, 10.120454)">
                    <path d="M77.320022,0.896684447 C77.5979821,0.15664685 78.2841258,-0.173188638 78.9854036,0.08936862 L78.9854036,0.08936862 L90.3217833,4.33369066 L90.441065,4.38056433 C90.9060903,4.59170248 91.2213004,5.07896535 91.2213004,5.56887179 L91.2213004,5.56887179 L91.2213004,20.6169969 L96.459865,30.7696605 L97.1332076,30.5007556 L97.7366068,30.2664696 C101.161025,28.9747172 104.671248,28.2940854 108.173295,28.2940854 C123.603659,28.2940854 136,40.670538 136,56.076304 C136,71.4820701 123.603659,83.8585226 108.173295,83.8585226 C92.7923901,83.8585226 80.3465907,71.3901364 80.3465907,56.076304 C80.3465907,46.3725286 85.4094641,37.4792077 93.4195681,32.7089165 L93.4195681,32.7089165 L94.0717047,32.3205468 L89.5573547,23.8471849 L66.564549,57.0382244 L66.4762169,57.1452583 C66.2329854,57.4134127 65.9267627,57.543726 65.520167,57.543726 L65.520167,57.543726 L55.5706949,57.543726 L55.5140531,58.2788874 L55.477461,58.7102657 C54.1618475,72.9145151 42.1748477,84 27.8267046,84 C12.3963406,84 1.13686838e-13,71.6235475 1.13686838e-13,56.2177814 C1.13686838e-13,40.8613944 12.4884216,28.4355628 27.8267046,28.4355628 C31.2286372,28.4355628 34.6716747,29.1088902 37.7273771,30.3569448 L37.7273771,30.3569448 L38.4345856,30.6457932 L42.9365379,20.8813806 L42.9365379,14.1101638 L38.3128558,14.1101638 L38.191271,14.1037014 C37.5472942,14.0353941 36.9849386,13.4356228 36.9849386,12.7842193 C36.9849386,12.0921029 37.6197853,11.4582747 38.3128558,11.4582747 L38.3128558,11.4582747 L51.4913971,11.4582747 L51.6129819,11.4647371 C52.2569588,11.5330444 52.8193144,12.1328157 52.8193144,12.7842193 C52.8193144,13.4763356 52.1844676,14.1101638 51.4913971,14.1101638 L51.4913971,14.1101638 L45.5923723,14.1101638 L45.5923723,19.8054414 L88.7071707,19.8054414 L88.7071707,6.427332 L78.1228138,2.55758874 L77.9897175,2.50125246 C77.3484243,2.19652061 77.073411,1.55325885 77.320022,0.896684447 Z M27.8267046,30.9459746 C13.9241863,30.9459746 2.65583445,42.196248 2.65583445,56.076304 C2.65583445,69.95636 13.9241863,81.2066335 27.8267046,81.2066335 C40.8887897,81.2066335 51.6777091,71.2329204 52.7115969,58.4037869 L52.7115969,58.4037869 L52.7809084,57.543726 L27.6075055,57.5435143 L27.4828044,57.5395927 L27.4406452,57.5320674 L27.3792332,57.5083717 L27.1648101,57.4022486 L27.1106699,57.4021219 L27.0648048,57.3712685 L27.0656064,57.302798 L26.6400541,56.8776143 L26.6404922,56.7372405 L26.5342282,56.5232185 C26.528177,56.5099259 26.5233475,56.4984884 26.5194767,56.488422 L26.5194767,56.488422 L26.5056518,56.440603 L26.5009775,56.3915565 L26.4994412,55.94722 L26.5017653,55.8829743 C26.5058314,55.8300705 26.5173458,55.8027424 26.5563099,55.7249394 L26.5563099,55.7249394 L26.6404922,55.5568449 L26.6400541,55.4056091 L37.2730829,32.8656924 L36.4764411,32.5563843 L35.9649324,32.3646183 C33.3948147,31.4350786 30.6389616,30.9459746 27.8267046,30.9459746 Z M108.031591,30.9459746 C104.842648,30.9459746 101.657994,31.596336 98.3950672,32.8373614 L98.3950672,32.8373614 L97.5584767,33.1555512 L109.165954,55.4530952 L109.224207,55.5693 C109.48106,56.1599291 109.225503,56.8831908 108.627718,57.2242345 C108.44903,57.312064 108.147932,57.4022486 108.031591,57.4022486 C107.60753,57.4022486 107.155559,57.1264877 106.873447,56.6570555 L106.873447,56.6570555 L95.2983286,34.4184492 L94.561946,34.8932667 L94.1956784,35.133725 C87.1614792,39.8351162 82.8607204,47.5702161 82.8607204,56.076304 C82.8607204,69.95636 94.1290723,81.2066335 108.031591,81.2066335 C121.934109,81.2066335 133.202461,69.95636 133.202461,56.076304 C133.202461,42.196248 121.934109,30.9459746 108.031591,30.9459746 Z M87.1591515,22.3158531 L45.0349746,22.3158531 L40.6785557,31.4979823 L41.3140568,31.8653138 L41.7152111,32.1014742 C49.5591278,36.8038513 54.7113411,44.9080403 55.372085,54.0116776 L55.372085,54.0116776 L55.4256987,54.7503594 L64.8059682,54.7503594 L87.1591515,22.3158531 Z M39.6620042,34.0178654 L29.8255681,54.7503594 L52.9288876,54.7503594 L52.85282,53.8845803 L52.8105635,53.4477924 C51.9663532,45.4568274 47.3087527,38.4036308 40.4107029,34.4472789 L40.4107029,34.4472789 L39.6620042,34.0178654 Z" id="ab-icon-01"></path>
                </g>
            </g>
        </g>
    </g>
</svg>