<?xml version="1.0" encoding="UTF-8"?>
<svg width="110px" height="90px" viewBox="0 0 110 90" version="1.1" xmlns="http://www.w3.org/2000/svg" xmlns:xlink="http://www.w3.org/1999/xlink">
    <title>16F727DB-68CE-4D3E-9A2C-9DD697F39137</title>
    <g id="Design" stroke="none" stroke-width="1" fill="none" fill-rule="evenodd">
        <g id="GreenLine-New:-Главная:-Десктоп" transform="translate(-659.000000, -4743.000000)" fill="#80AA36" fill-rule="nonzero">
            <g id="Group-7" transform="translate(48.000000, 4717.059913)">
                <g id="graduation-hat" transform="translate(668.000000, 68.940087) rotate(-5.000000) translate(-668.000000, -68.940087) translate(613.000000, 25.940087)">
                    <path d="M109.251484,20.8126079 L55.4220356,0.0782339742 C55.1505827,-0.0260779914 54.8501304,-0.0260779914 54.5786775,0.0782339742 L0.748515998,20.8126079 C0.297599882,20.9863821 0,21.4190397 0,21.9012455 C0,22.3834512 0.297599882,22.8163459 0.748515998,22.9898831 L17.2006552,29.326835 L17.2006552,72.1587505 C13.9023357,72.7158712 11.382007,75.583739 11.382007,79.02959 C11.382007,82.8732488 14.5170269,86 18.3708503,86 C22.2246736,86 25.3596935,82.8732488 25.3596935,79.02959 C25.3596935,75.5839761 22.8393648,72.7158712 19.5410453,72.1587505 L19.5410453,30.2284223 L27.125326,33.1496314 C27.1091625,33.2269171 27.1003676,33.3068106 27.1003676,33.3888377 L27.1003676,53.1175494 C27.1003676,60.3489765 32.9991205,66.2321713 40.249671,66.2321713 L69.7500913,66.2321713 C77.0006418,66.2321713 82.8993947,60.3489765 82.8993947,53.1175494 L82.8993947,33.3888377 C82.8993947,33.3068106 82.8905998,33.2269171 82.8744363,33.1496314 L109.251484,22.989646 C109.7024,22.8158717 110,22.3832142 110,21.9010084 C110,21.4188026 109.7024,20.9863821 109.251484,20.8126079 Z M23.0193034,79.0293529 C23.0193034,81.5857073 20.9339649,83.6655456 18.3708503,83.6655456 C15.8077356,83.6655456 13.7223971,81.5857073 13.7223971,79.0293529 C13.7223971,76.4729985 15.8077356,74.3931602 18.3708503,74.3931602 C20.9339649,74.3931602 23.0193034,76.4732356 23.0193034,79.0293529 Z M80.5592423,53.1177865 C80.5592423,59.0621461 75.7104084,63.8981911 69.750329,63.8981911 L40.2499087,63.8981911 C34.2898293,63.8981911 29.4409954,59.0621461 29.4409954,53.1177865 L29.4409954,34.0414987 L54.5786775,43.7240199 C54.7144039,43.7761759 54.8572614,43.8024909 55.0003565,43.8024909 C55.1434517,43.8024909 55.2863092,43.7761759 55.4220356,43.7240199 L80.5592423,34.0414987 L80.5592423,53.1177865 Z M55.0003565,41.3841128 L22.2130264,28.7552528 L55.2886861,20.3555318 C55.9152623,20.196456 56.2934423,19.5611013 56.1341836,18.9364149 C55.9746872,18.3117285 55.3367015,17.9343088 54.7113139,18.0931475 L18.4440617,27.3034199 L4.41859762,21.9012455 L55.0003565,2.41814102 L105.58164,21.9012455 L55.0003565,41.3841128 Z" id="ab-icon-02"></path>
                </g>
            </g>
        </g>
    </g>
</svg>