<?xml version="1.0" encoding="UTF-8"?>
<svg width="88px" height="88px" viewBox="0 0 88 88" version="1.1" xmlns="http://www.w3.org/2000/svg" xmlns:xlink="http://www.w3.org/1999/xlink">
    <title>ab-icon-04</title>
    <g id="Design" stroke="none" stroke-width="1" fill="none" fill-rule="evenodd">
        <g id="Artboard" transform="translate(-555.000000, -630.000000)" fill="#80AA36" fill-rule="nonzero">
            <path d="M598.625,630 C617.896731,630 634.763012,642.676193 640.340504,660.844647 L640.340504,660.844647 L640.393171,661.016207 L640.559816,661.082812 L640.669748,661.134035 C641.024104,661.32389 641.253948,661.700042 641.250017,662.117546 C641.247852,662.358059 641.169521,662.585186 641.028504,662.7725 L641.028504,662.7725 L640.921057,662.915224 L641.14019,663.823252 C641.875177,667.013908 642.25,670.295809 642.25,673.625 C642.25,678.32635 641.502415,682.929417 640.052583,687.307881 L640.052583,687.307881 L639.996952,687.475884 L640.091275,687.625627 L640.15481,687.742082 C640.302811,688.059651 640.279129,688.42856 640.076644,688.732842 C639.945333,688.928977 639.75257,689.07907 639.523567,689.166349 L639.523567,689.166349 L639.367934,689.225665 L639.095674,689.915572 C635.434423,698.976659 628.791612,706.587956 620.31576,711.465572 L620.31576,711.465572 L620.174044,711.610199 L620.10594,711.71902 C620.007223,711.858289 619.877629,711.973423 619.726481,712.054354 C613.382223,715.453373 606.205433,717.250536 598.972864,717.250536 L598.972864,717.250536 L598.624273,717.250536 L597.814558,717.242588 L597.006122,717.220374 L596.796583,717.246142 L596.678484,717.250536 L596.587212,717.245044 C596.523212,717.238071 596.454051,717.224457 596.386612,717.204108 C573.234415,715.970569 555,696.812294 555,673.625 L555,673.625 L555.004089,672.73361 C555.140299,662.790422 558.67502,653.245106 564.935097,645.578485 L564.935097,645.578485 L565.043062,645.446262 L565.014248,645.278009 L565.001748,645.167499 L565.001337,645.052336 L565.013222,644.93333 L565.039662,644.809501 C565.161523,644.366027 565.551991,644.043678 566.031548,644.003892 L566.031548,644.003892 L566.16637,643.999957 L566.165746,643.667746 L566.397512,643.877184 L566.827229,643.408905 C572.310091,637.51918 579.29839,633.222804 587.113131,631.040733 C587.346203,630.975173 587.594846,630.989221 587.825166,631.080107 L587.825166,631.080107 L588.238179,631.248644 L589.128399,631.040632 C592.223059,630.351294 595.401983,630 598.625,630 Z M614.896961,664.887494 L613.759961,665.062652 L612.319718,665.297217 C608.495522,665.940653 604.802815,666.72726 601.238629,667.650958 L601.238629,667.650958 L600.81177,667.761584 L601.272978,668.821785 C603.874795,674.973899 605.25,681.77449 605.25,688.803756 C605.25,698.586432 603.109984,707.403411 599.028316,714.482845 L599.028316,714.482845 L598.700785,715.05093 L599.356501,715.045136 L600.024821,715.033772 C600.470773,715.022557 600.917461,715.00407 601.364431,714.978355 C607.281051,714.588741 612.9679,712.9462 618.120041,710.188104 L618.120041,710.188104 L618.276841,710.104164 L618.608621,708.411589 L618.78292,707.310926 L619.096767,705.270807 L619.359828,703.456247 L619.473267,702.621082 L619.621887,701.444451 L619.707164,700.703501 L619.781844,699.991509 L619.846308,699.303487 L619.900939,698.634448 L619.946118,697.979403 C619.952881,697.871118 619.959266,697.763208 619.965282,697.65557 L619.965282,697.65557 L619.996998,697.012166 L620.028759,696.048362 L620.039947,695.399421 L620.043591,694.739537 C620.043591,684.280699 618.305184,674.198341 615.002566,665.175994 L615.002566,665.175994 L614.896961,664.887494 Z M598.680303,668.341846 L597.532246,668.674282 L596.637308,668.940652 C581.778564,673.426418 569.762724,680.220154 560.33687,688.511646 L560.33687,688.511646 L560.13705,688.687419 L560.423201,689.385872 C566.461511,703.798078 580.17242,713.806496 595.950269,714.939039 L595.950269,714.939039 L596.173038,714.95503 L596.293208,714.766773 L596.592583,714.289577 C600.836821,707.405618 603.066842,698.629826 603.066842,688.803929 C603.066842,681.672998 601.591658,674.787912 598.81411,668.638111 L598.81411,668.638111 L598.680303,668.341846 Z M625.456369,663.700297 L624.585458,663.770161 L623.163016,663.894803 C621.27341,664.069098 619.411678,664.275774 617.577098,664.514324 L617.577098,664.514324 L617.115576,664.574336 L617.272375,665.012534 L617.573774,665.87046 C620.641229,674.765683 622.25,684.584249 622.25,694.739537 L622.25,694.739537 L622.244931,695.496575 C622.243233,695.622036 622.241103,695.747215 622.238536,695.872221 L622.238536,695.872221 L622.217825,696.621062 L622.186289,697.371028 C622.180114,697.496409 622.173474,697.622056 622.166363,697.748079 L622.166363,697.748079 L622.117996,698.509614 L622.058011,699.285451 L621.986092,700.080859 L621.90192,700.901112 C621.886853,701.040184 621.871262,701.18051 621.855141,701.322202 L621.855141,701.322202 L621.751997,702.189603 L621.635809,703.095024 L621.506259,704.043738 L621.363029,705.041015 L621.121843,706.639516 L620.809147,708.625851 L621.521117,708.15219 L622.003044,707.826695 C628.875108,703.115085 634.2123,696.424645 637.246317,688.655381 L637.246317,688.655381 L637.351447,688.386174 L637.117902,688.215935 L636.815926,687.990591 C631.104693,683.629236 626.901505,674.733858 625.502685,664.053914 L625.502685,664.053914 L625.456369,663.700297 Z M567.533835,646.251167 L567.038606,646.823989 C561.487414,653.357206 558.065944,661.447398 557.332623,670.091893 C557.248714,671.171198 557.206582,672.250489 557.206582,673.330666 C557.206582,677.654609 557.86887,681.892845 559.15546,685.937587 L559.15546,685.937587 L559.326931,686.476653 L559.756674,686.108799 L560.348093,685.607126 C570.059068,677.44425 582.276503,670.811068 597.25309,666.465095 L597.25309,666.465095 L597.697502,666.336134 L597.479255,665.928089 L597.23659,665.48052 C590.789979,653.750311 579.90032,646.437107 567.956822,646.255088 L567.956822,646.255088 L567.533835,646.251167 Z M638.740624,663.203019 L637.639955,663.205861 L636.04281,663.221489 C633.390382,663.259285 630.785286,663.35575 628.226527,663.509736 L628.226527,663.509736 L627.823346,663.534 L627.953153,664.474691 C629.308751,673.815004 632.898192,681.739238 637.689111,685.812336 L637.689111,685.812336 L638.124678,686.182641 L638.290823,685.635613 L638.504102,684.909366 C639.536985,681.268291 640.066609,677.481313 640.066609,673.625 C640.066609,670.174054 639.642514,666.776586 638.812297,663.487009 L638.812297,663.487009 L638.740624,663.203019 Z M588.03211,633.554909 L587.413427,633.724163 L586.789381,633.905128 C580.566582,635.763143 574.878483,639.068697 570.165996,643.526901 L570.165996,643.526901 L569.562231,644.098088 L570.390002,644.172796 L570.862451,644.218987 C582.814422,645.477507 593.480429,653.438223 599.706486,665.476929 L599.706486,665.476929 L599.844617,665.74402 L600.135342,665.667231 L601.432013,665.332162 C605.338964,664.34478 609.398401,663.518102 613.611242,662.860286 L613.611242,662.860286 L614.081877,662.786799 L613.899965,662.346565 L613.63723,661.719075 C607.980229,648.384688 599.004449,638.391465 588.153919,633.608602 L588.153919,633.608602 L588.03211,633.554909 Z M598.625,632.183391 C596.603378,632.183391 594.599184,632.328924 592.622953,632.616881 L592.622953,632.616881 L591.528654,632.776331 L592.494225,633.315392 L593.000248,633.602502 C602.92161,639.322531 611.04163,649.372254 616.202897,662.193612 L616.202897,662.193612 L616.311819,662.46419 L617.951791,662.249356 C620.211341,661.965701 622.51103,661.729307 624.850391,661.541286 L624.850391,661.541286 L625.224041,661.511254 L625.194154,661.137593 L625.12445,660.168243 C625.041738,658.873073 625,657.567542 625,656.257089 C625,651.902736 625.449993,647.666942 626.338569,643.653033 L626.338569,643.653033 L626.493985,642.975895 L625.928621,642.474096 L625.50117,642.104075 C618.053395,635.744118 608.606595,632.183391 598.625,632.183391 Z M628.481094,644.902941 L628.306447,645.80125 L628.156307,646.644246 C627.629547,649.746064 627.364194,652.965677 627.364194,656.257089 C627.364194,657.839054 627.428852,659.416232 627.556781,660.977989 L627.556781,660.977989 L627.586772,661.344112 L627.953436,661.321674 L629.530591,661.232635 C632.168587,661.096144 634.853659,661.01926 637.58666,661.003184 L637.58666,661.003184 L638.104291,661.00014 L637.940086,660.509234 L637.7269,659.888428 C635.837133,654.525202 632.853902,649.610185 628.983164,645.44341 L628.983164,645.44341 L628.481094,644.902941 Z" id="ab-icon-04"></path>
        </g>
    </g>
</svg>