<?xml version="1.0" encoding="UTF-8"?>
<svg width="72px" height="72px" viewBox="0 0 72 72" version="1.1" xmlns="http://www.w3.org/2000/svg" xmlns:xlink="http://www.w3.org/1999/xlink">
    <title>9D9AAE1A-4FA6-4CD5-A725-2979423AF76D</title>
    <g id="Design" stroke="none" stroke-width="1" fill="none" fill-rule="evenodd">
        <g id="GreenLine-New:-Главная:-Десктоп" transform="translate(-49.000000, -4299.000000)" fill="#FDD13C">
            <path d="M86.3317465,4299 C65.7139069,4299 49,4315.71396 49,4336.33165 L49,4371 L49.2676804,4371 L71.7347403,4371 L81.066325,4371 L90.3773189,4371 L90.3773189,4370.96631 C108.577091,4370.26122 121,4355.20723 121,4336.73036 L121,4327.77583 L121,4318.33586 L109.066279,4318.33586 C88.4486472,4318.33586 71.7347403,4335.04961 71.7347403,4355.6675 L71.7347403,4361.24763 L58.3315847,4361.24763 L58.3315847,4335.68418 C58.3315847,4320.63767 70.5290345,4308.43997 85.5757105,4308.43997 L121,4308.43997 L121,4299 L86.3317465,4299 Z M80,4353.85998 C80,4339.02576 92.5564715,4327 108.046034,4327 L112,4327 L112,4335.13891 C112,4348.86788 102.758591,4359.99754 88.4232952,4359.99754 L88.2102559,4359.99754 L80,4360 L80,4353.85998 Z" id="ab-green-logo"></path>
        </g>
    </g>
</svg>