<?xml version="1.0" encoding="UTF-8"?>
<svg width="80px" height="80px" viewBox="0 0 80 80" version="1.1" xmlns="http://www.w3.org/2000/svg" xmlns:xlink="http://www.w3.org/1999/xlink">
    <title>school-quantum-icon-01</title>
    <defs>
        <linearGradient x1="101.58598%" y1="15.2608286%" x2="14.8374542%" y2="76.2762366%" id="linearGradient-1">
            <stop stop-color="#007053" offset="0%"></stop>
            <stop stop-color="#409E53" offset="100%"></stop>
        </linearGradient>
    </defs>
    <g id="Design" stroke="none" stroke-width="1" fill="none" fill-rule="evenodd">
        <g id="GreenLine-New:-Главная:-Десктоп" transform="translate(-132.000000, -7789.000000)">
            <g id="Group-8" transform="translate(48.000000, 7145.000000)">
                <g id="Group-34" transform="translate(0.000000, 644.000000)">
                    <g id="school-quantum-icon-01" transform="translate(84.000000, 0.000000)">
                        <rect id="sizer" x="0" y="0" width="80" height="80"></rect>
                        <g id="presentation" transform="translate(8.000000, 12.000000)" fill="url(#linearGradient-1)">
                            <path d="M58.1083985,0 C61.2939453,0 64,2.569336 64,5.8916015 L64,5.8916015 L64,27.9833985 C64,31.3051758 61.2939453,33.875 58.1083985,33.875 L58.1083985,33.875 L48.6640625,33.875 L55.8515625,53.4453125 C56.2089844,54.4174805 55.709961,55.4946289 54.7382813,55.8515625 C53.6044923,56.2680664 52.6225586,55.5297851 52.331543,54.7382812 L52.331543,54.7382812 L44.6694336,33.875 L43.3549805,33.875 L35.7705078,54.7324219 C35.4692383,55.5605469 34.4799805,56.2583008 33.3676758,55.8535156 C32.3945312,55.5 31.8920899,54.4238281 32.2460938,53.4506836 L32.2460938,53.4506836 L39.3647461,33.875 L32.6420899,33.875 C31.2329101,36.4897461 28.1166992,37.1743164 25.819336,36.0258789 L25.819336,36.0258789 L19.8164062,33.0249024 L19.8164062,54.0917969 C19.8164062,55.1269531 18.9770508,55.9667969 17.9414062,55.9667969 L17.9414062,55.9667969 L5.8916015,55.9667969 C4.855957,55.9667969 4.0166015,55.1269531 4.0166015,54.0917969 L4.0166015,54.0917969 L4.0166015,43.6108399 C1.684082,42.8261719 0,40.6186524 0,38.0249024 L0,38.0249024 L0,32 C0,27.3295899 2.6240235,23.5595703 6.059082,21.6269531 C4.19384763,19.9936524 3.01269525,17.597168 3.01269525,14.9291992 C3.01269525,10.0195312 7.006836,6.02490237 11.9169922,6.02490237 C16.8266601,6.02490237 20.8208008,10.0195312 20.8208008,14.9291992 C20.8208008,17.3144531 19.8759765,19.4824219 18.3432617,21.0825195 C18.5239258,21.1611328 18.703125,21.2441406 18.8793945,21.3320312 L18.8793945,21.3320312 L24.1000976,23.9282226 L24.1000976,5.8916015 C24.1000976,2.64306638 26.743164,0 29.9916992,0 L29.9916992,0 Z M13.5732422,23.8334961 L11.9165039,23.8334961 C7.48046875,23.8334961 3.75,27.418457 3.75,32 L3.75,32 L3.75,38.0249024 C3.75,39.2060548 4.71044925,40.1665039 5.8916015,40.1665039 C6.92675775,40.1665039 7.7666015,41.0063476 7.7666015,42.0415039 L7.7666015,42.0415039 L7.7666015,52.2167969 L16.0664062,52.2167969 L16.0664062,29.9916992 C16.0664062,28.5986327 17.5351562,27.6923827 18.7792969,28.3144531 L18.7792969,28.3144531 L18.805642,28.3276146 C18.8317435,28.3406545 18.8768726,28.3632005 18.9393844,28.3944314 L19.1774224,28.5133577 C19.241177,28.5452107 19.3119261,28.5805586 19.3891822,28.6191583 L19.6399841,28.7444687 C19.9093323,28.8790474 20.2328568,29.0407009 20.5973969,29.2228594 L21.3772651,29.6125696 C22.2729183,30.0601563 23.3199289,30.5834411 24.3844355,31.1156 L26.5760735,32.2114396 C26.8913269,32.3691067 27.1994629,32.5232341 27.496582,32.671875 C27.8564453,32.8515625 28.277832,32.8676757 28.6523438,32.715332 C29.0063476,32.5698242 29.2954101,32.269043 29.4233399,31.9121094 C29.4277344,31.8979492 29.4326172,31.883789 29.4375,31.8701172 C29.6245118,31.336914 29.3833008,30.7451172 28.8759765,30.493164 C26.8397667,29.4790467 19.6810978,25.9188551 17.7117569,24.9394795 L17.4972501,24.8328033 C17.3100816,24.739723 17.2070312,24.6884765 17.2070312,24.6884765 C16.0854492,24.128418 14.8300781,23.8334961 13.5732422,23.8334961 L13.5732422,23.8334961 Z M58.1083985,3.75 L29.9916992,3.75 C28.8105469,3.75 27.8500976,4.7109375 27.8500976,5.8916015 L27.8500976,5.8916015 L27.8500976,25.793457 C28.7714844,26.2514649 29.6313476,26.6796875 30.3710938,27.0483399 L30.3710938,27.0483399 L34.3398438,19.1113281 C34.8032226,18.1850586 35.9296875,17.8100586 36.8554688,18.2729493 C37.7817382,18.7363281 38.1567382,19.8623047 37.6938476,20.7885742 L37.6938476,20.7885742 L33.0405274,30.0947265 C33.0439453,30.1044922 33.0463867,30.1147461 33.0498047,30.125 L33.0498047,30.125 L58.1083985,30.125 C58.6733399,30.125 59.225586,29.8964844 59.6235351,29.4980469 C60.027832,29.09375 60.25,28.5561524 60.25,27.9833985 L60.25,27.9833985 L60.25,5.8916015 C60.25,5.31884763 60.027832,4.78125 59.6240235,4.37792975 C59.225586,3.97851562 58.6733399,3.75 58.1083985,3.75 L58.1083985,3.75 Z M54.0917969,22.0917969 C55.1274414,22.0917969 55.9667969,22.9311524 55.9667969,23.9667969 C55.9667969,25.0019531 55.1269531,25.8417969 54.0917969,25.8417969 L54.0917969,25.8417969 L44.0498048,25.8417969 C43.0146485,25.8417969 42.1748048,25.0019531 42.1748048,23.9667969 C42.1748048,22.9311524 43.0146485,22.0917969 44.0498048,22.0917969 L44.0498048,22.0917969 Z M11.9165039,9.77490237 C9.074707,9.77490237 6.76269525,12.086914 6.76269525,14.9291992 C6.76269525,17.7709961 9.074707,20.0830078 11.9165039,20.0830078 C14.758789,20.0830078 17.0708008,17.7709961 17.0708008,14.9291992 C17.0708008,12.086914 14.758789,9.77490237 11.9165039,9.77490237 Z M54.0917969,15.0625 C55.1274414,15.0625 55.9667969,15.9018555 55.9667969,16.9375 C55.9667969,17.9731445 55.1269531,18.8125 54.0917969,18.8125 L54.0917969,18.8125 L44.0498048,18.8125 C43.0146485,18.8125 42.1748048,17.9731445 42.1748048,16.9375 C42.1748048,15.9018555 43.0146485,15.0625 44.0498048,15.0625 L44.0498048,15.0625 Z M54.0917969,8.03320312 C55.1274414,8.03320312 55.9667969,8.87255862 55.9667969,9.90820312 C55.9667969,10.9438476 55.1269531,11.7832031 54.0917969,11.7832031 L54.0917969,11.7832031 L34.0083008,11.7832031 C32.9726563,11.7832031 32.1333008,10.9438476 32.1333008,9.90820312 C32.1333008,8.87255862 32.9726563,8.03320312 34.0083008,8.03320312 L34.0083008,8.03320312 Z" id="Combined-Shape"></path>
                        </g>
                    </g>
                </g>
            </g>
        </g>
    </g>
</svg>