<?xml version="1.0" encoding="UTF-8"?>
<svg width="80px" height="80px" viewBox="0 0 80 80" version="1.1" xmlns="http://www.w3.org/2000/svg" xmlns:xlink="http://www.w3.org/1999/xlink">
    <title>school-quantum-icon-03</title>
    <defs>
        <linearGradient x1="101.58598%" y1="9.48554956%" x2="14.8374542%" y2="80.6445791%" id="linearGradient-1">
            <stop stop-color="#007053" offset="0%"></stop>
            <stop stop-color="#409E53" offset="100%"></stop>
        </linearGradient>
    </defs>
    <g id="Design" stroke="none" stroke-width="1" fill="none" fill-rule="evenodd">
        <g id="GreenLine-New:-Главная:-Десктоп" transform="translate(-680.000000, -7789.000000)">
            <g id="Group-8" transform="translate(48.000000, 7145.000000)">
                <g id="Group-34" transform="translate(0.000000, 644.000000)">
                    <g id="school-quantum-icon-03" transform="translate(632.000000, 0.000000)">
                        <rect id="sizer" x="0" y="0" width="80" height="80"></rect>
                        <g id="settings" transform="translate(11.000000, 13.000000)" fill="url(#linearGradient-1)">
                            <path d="M41.7027158,0 C50.6891027,0 58,7.31089729 58,16.2973976 C58,22.541177 54.4700146,27.9751176 49.301634,30.7110322 L49.301634,30.7110322 L49.301634,42.9870279 L50.1186195,42.9870279 C51.0742271,42.9870279 51.9446422,43.4723186 52.4470622,44.2852204 C52.9494822,45.0981221 52.9942905,46.0937735 52.5668535,46.9484207 L52.5668535,46.9484207 L50.8010667,50.4803346 C49.4751952,53.1317373 46.8101798,54.7788672 43.8457997,54.7788672 L43.8457997,54.7788672 L9.01251868,54.7788672 C6.04802516,54.7788672 3.3830098,53.1317373 2.05725172,50.4803346 L2.05725172,50.4803346 L0.291351488,46.9483073 C-0.135858654,46.0936601 -0.0910503674,45.0981221 0.411256193,44.2852204 C0.913562753,43.4723186 1.78397789,42.9870279 2.73958549,42.9870279 L2.73958549,42.9870279 L3.55668445,42.9870279 L3.55668445,14.8882621 L25.4669154,14.8882621 C26.1837346,6.55913903 33.1910699,0 41.7027158,0 Z M49.0411787,46.3901889 L3.8171397,46.3901889 L5.10126577,48.958441 C5.84678491,50.4494793 7.34542356,51.3757063 9.01251868,51.3757063 L9.01251868,51.3757063 L43.8459132,51.3757063 C45.5128949,51.3757063 47.011647,50.4494793 47.7571661,48.9583276 L47.7571661,48.9583276 L49.0411787,46.3901889 Z M25.5273783,18.2914231 L6.95984542,18.2914231 L6.95984542,42.9870279 L45.898473,42.9870279 L45.898473,32.0462057 C44.5591023,32.4033107 43.1529162,32.5947952 41.7026024,32.5947952 C33.3911758,32.5947952 26.5138412,26.3406928 25.5273783,18.2914231 L25.5273783,18.2914231 Z M41.7027158,3.40316098 C34.5928319,3.40316098 28.8084792,9.18751369 28.8084792,16.2973976 C28.8084792,23.4072815 34.5928319,29.1916342 41.7027158,29.1916342 C48.8125997,29.1916342 54.596839,23.4072815 54.596839,16.2973976 C54.596839,9.18751369 48.8125997,3.40316098 41.7027158,3.40316098 Z M43.4041829,6.93167172 L43.4041829,9.14996548 C44.1738645,9.33328242 44.897263,9.63673094 45.5523715,10.0413668 L45.5523715,10.0413668 L47.1220228,8.4717155 L49.5283979,10.8780906 L47.9587467,12.4477419 C48.3633825,13.1028504 48.6669445,13.826249 48.850148,14.5959306 L48.850148,14.5959306 L51.0683283,14.5959306 L51.0683283,17.9990915 L48.850148,17.9990915 C48.6669445,18.7687731 48.3633825,19.4920583 47.9587467,20.1472802 L47.9587467,20.1472802 L49.5283979,21.7169315 L47.1220228,24.1233066 L45.5523715,22.5536553 C44.8971496,22.9582911 44.1738645,23.2618531 43.4041829,23.4450566 L43.4041829,23.4450566 L43.4041829,25.6632369 L40.0010219,25.6632369 L40.0010219,23.4450566 C39.2313403,23.2618531 38.5080552,22.9582911 37.8528333,22.5536553 L37.8528333,22.5536553 L36.283182,24.1233066 L33.8768069,21.7169315 L35.4464581,20.1472802 C35.0418223,19.4920583 34.7382603,18.7686597 34.5549434,17.9990915 L34.5549434,17.9990915 L32.3368765,17.9990915 L32.3368765,14.5959306 L34.5549434,14.5959306 C34.7382603,13.8261355 35.0418223,13.1028504 35.4464581,12.4476285 L35.4464581,12.4476285 L33.8768069,10.8779772 L36.283182,8.47160206 L37.8528333,10.0412533 C38.5079417,9.6366175 39.2313403,9.33305554 40.0010219,9.14985204 L40.0010219,9.14985204 L40.0010219,6.93167172 L43.4041829,6.93167172 Z M41.7027158,12.3519996 C39.527075,12.3519996 37.7572044,14.1219837 37.7572044,16.2973976 C37.7572044,18.4728115 39.527075,20.2427956 41.7027158,20.2427956 C43.8781298,20.2427956 45.6481138,18.4728115 45.6481138,16.2973976 C45.6481138,14.1219837 43.8782432,12.3519996 41.7027158,12.3519996 Z" id="Combined-Shape"></path>
                        </g>
                    </g>
                </g>
            </g>
        </g>
    </g>
</svg>