<?xml version="1.0" encoding="UTF-8"?>
<svg width="80px" height="80px" viewBox="0 0 80 80" version="1.1" xmlns="http://www.w3.org/2000/svg" xmlns:xlink="http://www.w3.org/1999/xlink">
    <title>school-quantum-icon-05</title>
    <defs>
        <linearGradient x1="101.562809%" y1="4.58076187%" x2="14.8532481%" y2="84.3544937%" id="linearGradient-1">
            <stop stop-color="#007053" offset="0%"></stop>
            <stop stop-color="#409E53" offset="100%"></stop>
        </linearGradient>
    </defs>
    <g id="Design" stroke="none" stroke-width="1" fill="none" fill-rule="evenodd">
        <g id="GreenLine-New:-Главная:-Десктоп" transform="translate(-1232.000000, -7789.000000)">
            <g id="Group-8" transform="translate(48.000000, 7145.000000)">
                <g id="Group-34" transform="translate(0.000000, 644.000000)">
                    <g id="school-quantum-icon-05" transform="translate(1184.000000, 0.000000)">
                        <rect id="sizer" x="0" y="0" width="80" height="80"></rect>
                        <g id="diploma" transform="translate(10.000000, 10.000000)">
                            <path d="M53.3178646,38.9985176 C53.3172787,38.9991035 53.316224,39.0001582 53.3147006,39.0016816 C53.3136459,39.0027363 53.3128256,39.0035566 53.3118881,39.0044941 C53.3144662,39.001916 53.3166927,38.9996895 53.3178646,38.9985176 Z" id="Path" fill="#000000" fill-rule="nonzero"></path>
                            <path d="M53.3021615,39.0142207 L53.3040365,39.0123457 C53.3038021,39.0125801 53.303685,39.0126972 53.3034506,39.0129316 L53.3075521,39.0088301 C53.3075521,39.0088301 53.3074349,39.0089472 53.3074349,39.0089472 L53.3118881,39.0044941 C53.3117709,39.0046113 53.3116537,39.0047285 53.3115365,39.0048457 C53.3127084,39.0036738 54.3642298,37.9513321 59.9865235,32.3249369 C58.4633233,31.756813 52.6282175,30.1648239 43.8267503,22.3573391 L49.3353724,22.3573391 L49.3353724,18.8671507 L41.1322634,18.8671507 L41.1322634,10.6640417 L37.6166453,10.6640417 L37.6166453,16.1725465 C30.0388476,7.63018041 28.4379523,2.03331634 27.6825631,0 L20.9833184,6.69924473 C19.1935172,3.99350783 18.1273474,2.14265207 17.7291451,1.49179396 C12.2083355,2.33214388 8.30623378,4.4614366 5.6379968,7.12967357 C2.95921297,9.80845741 0.841756168,13.6913404 0,19.2208218 L1.00464648,19.8236332 C27.8725237,35.9443829 40.2921479,59.3733997 40.7791782,60 C46.2998705,59.1596501 50.2020894,57.0304745 52.8703264,54.3621204 C55.5491103,51.6833366 57.6665671,47.8004535 58.508206,42.2709721 C57.8738713,41.8829651 56.0155156,40.8125765 53.3000521,39.01633 C53.3008725,39.0155097 53.3014584,39.0149238 53.3021615,39.0142207 L53.3021615,39.0142207 Z M39.4137121,23.0717128 C45.5489345,28.942795 50.8333773,32.0981795 53.7634106,33.5813016 L50.3481048,36.9966074 C45.5372157,33.5918485 40.9944512,29.817598 36.7676235,25.7179185 L39.4137121,23.0717128 Z M26.4182297,6.23623782 C27.9013518,9.16627116 31.0567362,14.4505968 36.9278185,20.5858192 L34.2816127,23.2320249 C30.1820504,19.0051973 26.4078,14.4624327 23.003041,9.65142646 L26.4182297,6.23623782 Z M3.88944553,17.462544 C4.33756965,15.7103599 5.50135644,12.2381011 8.1237732,9.61568434 C10.7463071,6.9931504 14.218566,5.82936361 15.9706329,5.38123949 C20.4791788,12.7159908 25.7910434,19.5483603 31.7868129,25.7265904 L24.2347964,33.2786069 C18.0565663,27.2828373 11.2241968,21.9710899 3.88944553,17.462544 Z M54.6188777,44.0293671 C54.1707536,45.7815512 53.0069668,49.2538101 50.3844328,51.8762268 C47.761313,54.4993467 44.2879994,55.6631335 42.5376904,56.1106717 C38.0289101,48.775686 32.7168111,41.942965 26.7208072,35.7645005 L34.2728237,28.212484 C40.4512882,34.2087222 47.283892,39.5205869 54.6188777,44.0293671 Z" id="Shape" fill="url(#linearGradient-1)"></path>
                            <path d="M53.3074349,39.0089472 C53.3061459,39.0102363 53.3050912,39.0114082 53.3040365,39.0123457 C53.3050912,39.011291 53.3062631,39.0101191 53.3074349,39.0089472 Z" id="Path" fill="#000000" fill-rule="nonzero"></path>
                        </g>
                    </g>
                </g>
            </g>
        </g>
    </g>
</svg>