<?xml version="1.0" encoding="UTF-8"?>
<svg width="80px" height="80px" viewBox="0 0 80 80" version="1.1" xmlns="http://www.w3.org/2000/svg" xmlns:xlink="http://www.w3.org/1999/xlink">
    <title>school-quantum-icon-02</title>
    <defs>
        <linearGradient x1="101.58598%" y1="14.9145443%" x2="14.8374542%" y2="76.5381613%" id="linearGradient-1">
            <stop stop-color="#007053" offset="0%"></stop>
            <stop stop-color="#409E53" offset="100%"></stop>
        </linearGradient>
        <linearGradient x1="101.58598%" y1="44.167714%" x2="14.8374542%" y2="54.4114618%" id="linearGradient-2">
            <stop stop-color="#007053" offset="0%"></stop>
            <stop stop-color="#409E53" offset="100%"></stop>
        </linearGradient>
    </defs>
    <g id="Design" stroke="none" stroke-width="1" fill="none" fill-rule="evenodd">
        <g id="GreenLine-New:-Главная:-Десктоп" transform="translate(-406.000000, -7789.000000)">
            <g id="Group-8" transform="translate(48.000000, 7145.000000)">
                <g id="Group-34" transform="translate(0.000000, 644.000000)">
                    <g id="Group-49" transform="translate(358.000000, 0.000000)">
                        <rect id="sizer" x="0" y="0" width="80" height="80"></rect>
                        <g id="mortarboard" transform="translate(8.000000, 12.000000)">
                            <path d="M64,39.3750938 C64,36.9307188 62.432375,34.8465937 60.25,34.0725938 L60.25,19.9033438 L62.96075,18.5535937 C63.597625,18.2364688 64,17.5864688 64,16.8750937 C64,16.1637188 63.5975,15.5137188 62.96075,15.1965938 L32.83575,0.19659375 C32.309375,-0.06553125 31.6905,-0.06553125 31.16425,0.19659375 L1.03925,15.1965938 C0.4025,15.5137188 0,16.1638438 0,16.8750937 C0,17.5863438 0.4025,18.2364688 1.03925,18.5535937 L12.512,24.2660937 L15.179,35.1344687 C15.282375,35.5554687 15.52825,35.9275938 15.875,36.1875938 C20.5635,39.7039688 26.139375,41.5625938 32,41.5625938 C37.860625,41.5625938 43.436625,39.7039688 48.125,36.1875938 C48.47175,35.9274688 48.717625,35.5553437 48.820875,35.1344687 L51.487875,24.2662188 L56.5,21.7705937 L56.5,34.0727187 C54.317625,34.8467188 52.75,36.9308438 52.75,39.3752188 C52.75,41.1532188 53.580125,42.7402188 54.87225,43.7717187 C53.783,45.0297188 52.75,46.7497188 52.75,48.7500938 C52.75,52.7408438 56.861,55.6168438 57.32975,55.9317188 C57.96175,56.3562188 58.78825,56.3563438 59.420375,55.9317188 C59.889125,55.6168438 64,52.7409688 64,48.7500938 C64,46.7497188 62.967125,45.0295938 61.87775,43.7715938 C63.169875,42.7400937 64,41.1532188 64,39.3750938 Z M45.342375,33.5752187 C37.394375,39.1855937 26.605875,39.1855937 18.657625,33.5752187 L16.91075,26.4563438 L31.16425,33.5535937 C31.6905,33.8155937 32.309375,33.8157187 32.83575,33.5535937 L47.089375,26.4563438 L45.342375,33.5752187 Z M32,29.7805938 C30.96725,29.2663437 7.246625,17.4552188 6.081625,16.8750937 L32,3.96971875 L57.918375,16.8750937 C57.416875,17.1248437 33.243875,29.1612187 32,29.7805938 Z M58.37525,51.9577187 C57.497125,51.1279688 56.5,49.9029687 56.5,48.7500937 C56.5,47.5968437 57.49775,46.3713438 58.37475,45.5424687 C59.253,46.3723437 60.25,47.5973438 60.25,48.7500937 C60.25,49.9033437 59.25225,51.1289687 58.37525,51.9577187 Z M58.375,41.2500937 C57.341125,41.2500937 56.5,40.4089687 56.5,39.3750937 C56.5,38.3412187 57.341125,37.5000937 58.375,37.5000937 C59.408875,37.5000937 60.25,38.3412187 60.25,39.3750937 C60.25,40.4089687 59.408875,41.2500937 58.375,41.2500937 Z" id="Shape" fill="url(#linearGradient-1)"></path>
                            <path d="M41.280875,12.2543437 C40.54875,11.5220937 39.3615,11.5220937 38.62925,12.2543437 C36.8585,14.0249687 34.504125,15.0000937 32,15.0000937 C29.495875,15.0000937 27.141625,14.0249687 25.370875,12.2542187 C24.638625,11.5220937 23.4515,11.5219687 22.71925,12.2542187 C21.987,12.9864688 21.987,14.1737187 22.71925,14.9059687 C25.19825,17.3848438 28.49425,18.7500937 32,18.7500937 C35.505625,18.7500937 38.80175,17.3848438 41.280875,14.9059687 C42.013,14.1737187 42.013125,12.9865937 41.280875,12.2543437 Z" id="Path" fill="url(#linearGradient-2)"></path>
                        </g>
                    </g>
                </g>
            </g>
        </g>
    </g>
</svg>