<svg width="20" height="20" viewBox="0 0 20 20" fill="none" xmlns="http://www.w3.org/2000/svg">
<path d="M10 20C15.5228 20 20 15.5228 20 10C20 4.47715 15.5228 0 10 0C4.47715 0 0 4.47715 0 10C0 15.5228 4.47715 20 10 20Z" fill="url(#paint0_linear_10570_39568)"/>
<path d="M6.76953 10.7308L7.95595 14.0146C7.95595 14.0146 8.10428 14.3219 8.26311 14.3219C8.42195 14.3219 10.7844 11.8642 10.7844 11.8642L13.4114 6.79004L6.81186 9.88312L6.76953 10.7308Z" fill="#C8DAEA"/>
<path d="M8.34215 11.5731L8.1144 13.9936C8.1144 13.9936 8.01907 14.7353 8.76057 13.9936C9.50207 13.252 10.2118 12.68 10.2118 12.68" fill="#A9C6D8"/>
<path d="M6.79049 10.8481L4.34999 10.053C4.34999 10.053 4.05832 9.93462 4.15224 9.66629C4.17157 9.61095 4.21057 9.56387 4.32724 9.48295C4.86799 9.10604 14.3361 5.70295 14.3361 5.70295C14.3361 5.70295 14.6034 5.61287 14.7611 5.67279C14.8001 5.68486 14.8352 5.70708 14.8628 5.73717C14.8904 5.76726 14.9095 5.80414 14.9182 5.84404C14.9352 5.91451 14.9423 5.98701 14.9393 6.05945C14.9386 6.12212 14.931 6.1802 14.9252 6.27129C14.8676 7.2017 13.1419 14.1457 13.1419 14.1457C13.1419 14.1457 13.0387 14.552 12.6687 14.566C12.5778 14.5689 12.4873 14.5535 12.4024 14.5207C12.3176 14.4879 12.2403 14.4383 12.175 14.375C11.4491 13.7505 8.94007 12.0644 8.38566 11.6935C8.37315 11.685 8.36262 11.6739 8.35477 11.661C8.34692 11.648 8.34194 11.6336 8.34016 11.6185C8.33241 11.5795 8.37491 11.531 8.37491 11.531C8.37491 11.531 12.7437 7.6477 12.86 7.24004C12.869 7.20845 12.835 7.19287 12.7893 7.2067C12.4992 7.31345 7.46899 10.49 6.91382 10.8406C6.87386 10.8527 6.83162 10.8553 6.79049 10.8481V10.8481Z" fill="white"/>
<defs>
<linearGradient id="paint0_linear_10570_39568" x1="10" y1="20" x2="10" y2="0" gradientUnits="userSpaceOnUse">
<stop stop-color="#1D93D2"/>
<stop offset="1" stop-color="#38B0E3"/>
</linearGradient>
</defs>
</svg>
