<svg width="256" height="256" viewBox="0 0 256 256" fill="none" xmlns="http://www.w3.org/2000/svg">
<g clip-path="url(#clip0)">
<mask id="mask0" style="mask-type:alpha" maskUnits="userSpaceOnUse" x="0" y="0" width="257" height="256">
<path d="M132.736 0C59.4278 0 0 59.4278 0 132.735V256H0.951846H80.8346H114.014H147.12V255.88C211.831 253.374 256.001 199.849 256.001 134.153V102.315V68.7499V68.7492H213.571C140.262 68.7492 80.8346 128.176 80.8346 201.484V221.325H33.1796V130.432C33.1796 76.9344 76.5485 33.5646 130.048 33.5646H256.001V0H132.736ZM114.014 199.182C114.014 145.684 157.383 102.315 210.882 102.315H224.538V131.666C224.538 181.178 192.621 221.317 143.107 221.317H142.373V221.325H114.014V199.182Z" fill="white"/>
</mask>
<g mask="url(#mask0)">
<path fill-rule="evenodd" clip-rule="evenodd" d="M132.736 0C59.4278 0 0 59.4278 0 132.735V256H0.951846H80.8346H114.014H147.12V255.88C211.831 253.374 256.001 199.849 256.001 134.153V102.315V68.7499V68.7492H213.571C140.262 68.7492 80.8346 128.176 80.8346 201.484V221.325H33.1796V130.432C33.1796 76.9344 76.5485 33.5646 130.048 33.5646H256.001V0H132.736ZM114.014 199.182C114.014 145.684 157.383 102.315 210.882 102.315H224.538V131.666C224.538 181.178 192.621 221.317 143.107 221.317H142.373V221.325H114.014V199.182Z" fill="url(#paint0_linear)"/>
</g>
</g>
<defs>
<linearGradient id="paint0_linear" x1="260.061" y1="11.7268" x2="37.9847" y2="215.948" gradientUnits="userSpaceOnUse">
<stop stop-color="#007053"/>
<stop offset="1" stop-color="#409E53"/>
</linearGradient>
<clipPath id="clip0">
<rect width="256" height="256" fill="white"/>
</clipPath>
</defs>
</svg>
